{
.appVersion = "1141";
classes = (
{
automatic = 1;
code = "A Aacute Acircumflex Adieresis Agrave Aring Atilde AE B C Ccedilla D Eth E Eacute Ecircumflex Edieresis Egrave F G H I IJ Iacute Icircumflex Idieresis Igrave J K L Ldot Lslash M N Ntilde O Oacute Ocircumflex Odieresis Ograve Oslash Otilde OE P Thorn Q R S T U Uacute Ucircumflex Udieresis Ugrave V W X Y Yacute Ycircumflex Ydieresis Ygrave Z Delta Omega Tbold-math Tbold-math.001";
name = Uppercase;
}
);
copyright = "SIL OFL 1.1";
date = "2018-03-06 22:45:12 +0000";
designer = "Justin Bihan";
designerURL = www.cj2b.work;
familyName = VG5000;
featurePrefixes = (
{
automatic = 1;
code = "languagesystem DFLT dflt;\012languagesystem latn dflt;\012languagesystem latn CAT;\012";
name = Languagesystems;
}
);
features = (
{
automatic = 1;
code = "feature locl;\012feature sups;\012feature frac;\012feature ordn;\012feature c2sc;\012feature salt;\012feature ss01;\012feature ss02;\012feature ss03;\012";
name = aalt;
},
{
automatic = 1;
code = "script latn;\012language CAT;\012sub  l' periodcentered' l by ldot;\012sub  L' periodcentered' L by Ldot;\012";
name = locl;
},
{
automatic = 1;
code = "sub zero by zerosuperior;\012sub one by onesuperior;\012sub two by twosuperior;\012sub three by threesuperior;\012sub four by foursuperior;\012sub five by fivesuperior;\012sub six by sixsuperior;\012sub seven by sevensuperior;\012sub eight by eightsuperior;\012sub nine by ninesuperior;\012";
name = sups;
},
{
automatic = 1;
code = "sub one slash four by onequarter;\012sub one slash two by onehalf;\012sub three slash four by threequarters;\012";
name = frac;
},
{
automatic = 1;
code = "sub [zero one two three four five six seven eight nine] [A a]' by ordfeminine;\012sub [zero one two three four five six seven eight nine] [O o]' by ordmasculine;\012";
name = ordn;
},
{
code = "sub f f by f_f;\012sub f i by fi;\012sub f l by fl;\012sub f f i by f_f_i;\012sub f f l by f_f_l;";
name = liga;
},
{
automatic = 1;

glyphs = (
{
glyphname = A;
lastChange = "2018-05-05 21:56:25 +0000";
layers = (
{
background = {
paths = (
{
closed = 1;
nodes = (
"550 200 LINE",
"550 300 LINE",
"150 300 LINE",
"150 200 LINE"
);
},
{
closed = 1;
nodes = (
"225 700 OFFCURVE",
"125 625 OFFCURVE",
"125 475 CURVE SMOOTH",
"125 0 LINE",
"225 0 LINE",
"225 475 LINE",
"225 550 OFFCURVE",
"275 600 OFFCURVE",
"350 600 CURVE",
"425 600 OFFCURVE",
"475 550 OFFCURVE",
"475 475 CURVE",
"475 0 LINE",
"575 0 LINE",
"575 475 LINE",
"575 625 OFFCURVE",
"475 700 OFFCURVE",
"350 700 CURVE SMOOTH"
);
}
);
};
layerId = "F98BA250-6091-4D70-9AF4-192CADB0E332";
paths = (
{
closed = 1;
nodes = (
"150 200 LINE",
"550 200 LINE",
"550 300 LINE",
"150 300 LINE"
);
},
{
closed = 1;
nodes = (
"25 0 LINE",
"125 0 LINE",
"375 700 LINE",
"275 700 LINE"
);
},
{
closed = 1;
nodes = (
"575 0 LINE",
"675 0 LINE",
"425 700 LINE",
"325 700 LINE"
);
}
);
width = 700;
}
);
leftKerningGroup = A;
rightKerningGroup = A;
unicode = 0041;
},
{
glyphname = Aacute;
lastChange = "2018-04-09 20:03:12 +0000";
layers = (
{
background = {
paths = (
{
closed = 1;
nodes = (
"100 0 LINE",
"100 100 LINE",
"400 100 LINE",
"400 0 LINE",
"500 0 LINE",
"300 400 LINE",
"200 400 LINE",
"0 0 LINE"
);
},
{
closed = 1;
nodes = (
"200 300 LINE",
"300 300 LINE",
"300 200 LINE",
"200 200 LINE"
);
}
);
};
layerId = "F98BA250-6091-4D70-9AF4-192CADB0E332";
paths = (
{
closed = 1;
nodes = (
"300 700 LINE",
"300 600 LINE",
"400 600 LINE",
"400 700 LINE"
);
},
{
closed = 1;
nodes = (
"100 600 LINE",
"100 500 LINE",
"300 500 LINE",
"300 600 LINE"
);
},
{
closed = 1;
nodes = (
"300 400 LINE",
"200 400 LINE",
"25 0 LINE",
"125 0 LINE",
"200 175 LINE",
"200 300 LINE",
"300 300 LINE",
"300 175 LINE",
"375 0 LINE",
"475 0 LINE"
);
},
{
closed = 1;
nodes = (
"125 100 LINE",
"375 100 LINE",
"375 175 LINE",
"125 175 LINE"
);
}
);
width = 500;
}
);
leftKerningGroup = A;
rightKerningGroup = A;
unicode = 00C1;
},
{
glyphname = Acircumflex;
lastChange = "2018-04-09 20:03:12 +0000";
layers = (
{
background = {
components = (
{
name = circumflex;
transform = "{1, 0, 0, 1, -100, 0}";
}
);
paths = (
{
closed = 1;
nodes = (
"400 300 LINE",
"400 0 LINE",
"500 0 LINE",
"500 300 LINE"
);
},
{
closed = 1;
nodes = (
"0 300 LINE",
"0 0 LINE",
"100 0 LINE",
"100 300 LINE"
);
},
{
closed = 1;
nodes = (
"100 200 LINE",
"100 100 LINE",
"400 100 LINE",
"400 200 LINE"
);
},
{
closed = 1;
nodes = (
"100 400 LINE",
"100 300 LINE",
"400 300 LINE",
"400 400 LINE"
);
}
);
};
components = (
{
name = circumflex;
transform = "{1, 0, 0, 1, 50, 0}";
}
);
layerId = "F98BA250-6091-4D70-9AF4-192CADB0E332";
paths = (
{
closed = 1;
nodes = (
"300 400 LINE",
"200 400 LINE",
"25 0 LINE",
"125 0 LINE",
"200 175 LINE",
"200 300 LINE",
"300 300 LINE",
"300 175 LINE",
"375 0 LINE",
"475 0 LINE"
);
},
{
closed = 1;
nodes = (
"125 100 LINE",
"375 100 LINE",
"375 175 LINE",
"125 175 LINE"
);
}
);
width = 500;
}
);
leftKerningGroup = A;
rightKerningGroup = A;
unicode = 00C2;
},
{
glyphname = Adieresis;
lastChange = "2018-05-09 00:09:48 +0000";
layers = (
{
background = {
components = (
{
name = dieresis;
transform = "{1, 0, 0, 1, -75, 0}";
}
);
paths = (
{
closed = 1;
nodes = (
"425 400 LINE",
"425 0 LINE",
"525 0 LINE",
"525 400 LINE"
);
},
{
closed = 1;
nodes = (
"25 400 LINE",
"25 0 LINE",
"125 0 LINE",
"125 400 LINE"
);
},
{
closed = 1;
nodes = (
"125 300 LINE",
"125 200 LINE",
"425 200 LINE",
"425 300 LINE"
);
},
{
closed = 1;
nodes = (
"125 500 LINE",
"125 400 LINE",
"425 400 LINE",
"425 500 LINE"
);
}
);
};
components = (
{
name = dieresis;
transform = "{1, 0, 0, 1, 75, 0}";
}
);
layerId = "F98BA250-6091-4D70-9AF4-192CADB0E332";
paths = (
{
closed = 1;
nodes = (
"150 100 LINE",
"400 100 LINE",
"400 175 LINE",
"150 175 LINE"
);
},
{
closed = 1;
nodes = (
"250 500 LINE",
"425 0 LINE",
"525 0 LINE",
"350 500 LINE"
);
},
{
closed = 1;
nodes = (
"200 500 LINE",
"25 0 LINE",
"125 0 LINE",
"300 500 LINE"
);
}
);
width = 550;
}
);
leftKerningGroup = A;
rightKerningGroup = A;
unicode = 00C4;
},
{
glyphname = Agrave;
lastChange = "2018-04-09 20:03:12 +0000";
layers = (
{
background = {
components = (
{
name = grave;
transform = "{1, 0, 0, 1, -50, 0}";
}
);
paths = (
{
closed = 1;
nodes = (
"450 300 LINE",
"450 0 LINE",
"550 0 LINE",
"550 300 LINE"
);
},
{
closed = 1;
nodes = (
"50 300 LINE",
"50 0 LINE",
"150 0 LINE",
"150 300 LINE"
);
},
{
closed = 1;
nodes = (
"150 200 LINE",
"150 100 LINE",
"450 100 LINE",
"450 200 LINE"
);
},
{
closed = 1;
nodes = (
"150 400 LINE",
"150 300 LINE",
"450 300 LINE",
"450 400 LINE"
);
}
);
};
layerId = "F98BA250-6091-4D70-9AF4-192CADB0E332";
paths = (
{
closed = 1;
nodes = (
"200 600 LINE",
"200 500 LINE",
"400 500 LINE",
"400 600 LINE"
);
},
{
closed = 1;
nodes = (
"100 700 LINE",
"100 600 LINE",
"200 600 LINE",
"200 700 LINE"
);
},
{
closed = 1;
nodes = (
"300 400 LINE",
"200 400 LINE",
"25 0 LINE",
"125 0 LINE",
"200 175 LINE",
"200 300 LINE",
"300 300 LINE",
"300 175 LINE",
"375 0 LINE",
"475 0 LINE"
);
},
{
closed = 1;
nodes = (
"125 100 LINE",
"375 100 LINE",
"375 175 LINE",
"125 175 LINE"
);
}
);
width = 500;
}
);
leftKerningGroup = A;
rightKerningGroup = A;
unicode = 00C0;
},
{
glyphname = Aring;
lastChange = "2018-04-09 20:03:12 +0000";
layers = (
{
background = {
components = (
{
name = ring;
transform = "{1, 0, 0, 1, -50, 0}";
}
);
paths = (
{
closed = 1;
nodes = (
"450 300 LINE",
"450 0 LINE",
"550 0 LINE",
"550 300 LINE"
);
},
{
closed = 1;
nodes = (
"50 300 LINE",
"50 0 LINE",
"150 0 LINE",
"150 300 LINE"
);
},
{
closed = 1;
nodes = (
"150 200 LINE",
"150 100 LINE",
"450 100 LINE",
"450 200 LINE"
);
},
{
closed = 1;
nodes = (
"150 400 LINE",
"150 300 LINE",
"450 300 LINE",
"450 400 LINE"
);
}
);
};
components = (
{
name = ring;
transform = "{1, 0, 0, 1, 50, 0}";
}
);
layerId = "F98BA250-6091-4D70-9AF4-192CADB0E332";
paths = (
{
closed = 1;
nodes = (
"300 400 LINE",
"200 400 LINE",
"25 0 LINE",
"125 0 LINE",
"200 175 LINE",
"200 300 LINE",
"300 300 LINE",
"300 175 LINE",
"375 0 LINE",
"475 0 LINE"
);
},
{
closed = 1;
nodes = (
"125 100 LINE",
"375 100 LINE",
"375 175 LINE",
"125 175 LINE"
);
}
);
width = 500;
}
);
leftKerningGroup = A;
rightKerningGroup = A;
unicode = 00C5;
},
{
glyphname = Atilde;
lastChange = "2018-04-09 20:03:12 +0000";
layers = (
{
background = {
components = (
{
name = tilde;
transform = "{1, 0, 0, 1, -100, 0}";
}
);
paths = (
{
closed = 1;
nodes = (
"400 300 LINE",
"400 0 LINE",
"500 0 LINE",
"500 300 LINE"
);
},
{
closed = 1;
nodes = (
"0 300 LINE",
"0 0 LINE",
"100 0 LINE",
"100 300 LINE"
);
},
{
closed = 1;
nodes = (
"100 200 LINE",
"100 100 LINE",
"400 100 LINE",
"400 200 LINE"
);
},
{
closed = 1;
nodes = (
"100 400 LINE",
"100 300 LINE",
"400 300 LINE",
"400 400 LINE"
);
}
);
};
components = (
{
name = tilde;
transform = "{1, 0, 0, 1, -50, 0}";
}
);
layerId = "F98BA250-6091-4D70-9AF4-192CADB0E332";
paths = (
{
closed = 1;
nodes = (
"300 400 LINE",
"200 400 LINE",
"25 0 LINE",
"125 0 LINE",
"200 175 LINE",
"200 300 LINE",
"300 300 LINE",
"300 175 LINE",
"375 0 LINE",
"475 0 LINE"
);
},
{
closed = 1;
nodes = (
"125 100 LINE",
"375 100 LINE",
"375 175 LINE",
"125 175 LINE"
);
}
);
width = 500;
}
);
leftKerningGroup = A;
rightKerningGroup = A;
unicode = 00C3;
},
{
glyphname = AE;
lastChange = "2018-04-09 20:03:12 +0000";
layers = (
{
background = {
paths = (
{
closed = 1;
nodes = (
"300 700 LINE",
"300 0 LINE",
"400 0 LINE",
"400 700 LINE"
);
},
{
closed = 1;
nodes = (
"100 600 LINE",
"100 0 LINE",
"200 0 LINE",
"200 600 LINE"
);
},
{
closed = 1;
nodes = (
"200 300 LINE",
"200 200 LINE",
"300 200 LINE",
"300 300 LINE"
);
},
{
closed = 1;
nodes = (
"400 100 LINE",
"400 0 LINE",
"600 0 LINE",
"600 100 LINE"
);
},
{
closed = 1;
nodes = (
"400 400 LINE",
"400 300 LINE",
"500 300 LINE",
"500 400 LINE"
);
},
{
closed = 1;
nodes = (
"200 700 LINE",
"200 600 LINE",
"300 600 LINE",
"300 700 LINE"
);
},
{
closed = 1;
nodes = (
"400 700 LINE",
"400 600 LINE",
"600 600 LINE",
"600 700 LINE"
);
}
);
};
layerId = "F98BA250-6091-4D70-9AF4-192CADB0E332";
paths = (
{
closed = 1;
nodes = (
"250 700 LINE",
"250 0 LINE",
"350 0 LINE",
"350 700 LINE"
);
},
{
closed = 1;
nodes = (
"50 600 LINE",
"50 0 LINE",
"150 0 LINE",
"150 600 LINE"
);
},
{
closed = 1;
nodes = (
"150 300 LINE",
"150 200 LINE",
"250 200 LINE",
"250 300 LINE"
);
},
{
closed = 1;
nodes = (
"350 100 LINE",
"350 0 LINE",
"550 0 LINE",
"550 100 LINE"
);
},
{
closed = 1;
nodes = (
"350 400 LINE",
"350 300 LINE",
"450 300 LINE",
"450 400 LINE"
);
},
{
closed = 1;
nodes = (
"150 700 LINE",
"150 600 LINE",
"250 600 LINE",
"250 700 LINE"
);
},
{
closed = 1;
nodes = (
"350 700 LINE",
"350 600 LINE",
"550 600 LINE",
"550 700 LINE"
);
}
);
width = 600;
}
);
unicode = 00C6;
},
{
glyphname = B;
lastChange = "2018-05-09 00:07:10 +0000";
layers = (
{
background = {
paths = (
{
closed = 1;
nodes = (
"100 700 LINE",
"100 0 LINE",
"200 0 LINE",
"200 700 LINE"
);
},
{
closed = 1;
nodes = (
"200 100 LINE",
"200 0 LINE",
"500 0 LINE",
"500 100 LINE"
);
},
{
closed = 1;
nodes = (
"200 400 LINE",
"200 300 LINE",
"500 300 LINE",
"500 400 LINE"
);
},
{
closed = 1;
nodes = (
"500 300 LINE",
"500 100 LINE",
"600 100 LINE",
"600 300 LINE"
);
},
{
closed = 1;
nodes = (
"200 700 LINE",
"200 600 LINE",
"500 600 LINE",
"500 700 LINE"
);
},
{
closed = 1;
nodes = (
"500 600 LINE",
"500 400 LINE",
"600 400 LINE",
"600 600 LINE"
);
}
);
};
layerId = "F98BA250-6091-4D70-9AF4-192CADB0E332";
paths = (
{
closed = 1;
nodes = (
"50 0 LINE",
"150 0 LINE",
"150 700 LINE",
"50 700 LINE"
);
},
{
closed = 1;
nodes = (
"150 300 LINE",
"300 300 LINE",
"375 300 OFFCURVE",
"425 275 OFFCURVE",
"425 200 CURVE",
"425 125 OFFCURVE",
"375 100 OFFCURVE",
"300 100 CURVE",
"150 100 LINE",
"150 0 LINE",
"300 0 LINE",
"450 0 OFFCURVE",
"525 75 OFFCURVE",
"525 200 CURVE",
"525 325 OFFCURVE",
"450 375 OFFCURVE",
"300 375 CURVE",
"150 375 LINE"
);
},
{
closed = 1;
nodes = (
"100 600 LINE",
"250 600 LINE",
"325 600 OFFCURVE",
"375 575 OFFCURVE",
"375 500 CURVE",
"375 425 OFFCURVE",
"325 400 OFFCURVE",
"250 400 CURVE",
"100 400 LINE",
"100 325 LINE",
"250 325 LINE",
"400 325 OFFCURVE",
"475 375 OFFCURVE",
"475 500 CURVE",
"475 625 OFFCURVE",
"400 700 OFFCURVE",
"250 700 CURVE",
"100 700 LINE"
);
},
{
closed = 1;
nodes = (
"150 0 LINE",
"150 700 LINE",
"50 700 LINE",
"50 0 LINE"
);
}
);
width = 550;
}
);
unicode = 0042;
},
{
glyphname = C;
lastChange = "2018-04-09 20:03:12 +0000";
layers = (
{
background = {
paths = (
{
closed = 1;
nodes = (
"75 600 LINE",
"75 100 LINE",
"175 100 LINE",
"175 600 LINE"
);
},
{
closed = 1;
nodes = (
"175 100 LINE",
"175 0 LINE",
"475 0 LINE",
"475 100 LINE"
);
},
{
closed = 1;
nodes = (
"475 200 LINE",
"475 100 LINE",
"575 100 LINE",
"575 200 LINE"
);
},
{
closed = 1;
nodes = (
"175 700 LINE",
"175 600 LINE",
"475 600 LINE",
"475 700 LINE"
);
},
{
closed = 1;
nodes = (
"475 600 LINE",
"475 500 LINE",
"575 500 LINE",
"575 600 LINE"
);
}
);
};
layerId = "F98BA250-6091-4D70-9AF4-192CADB0E332";
paths = (
{
closed = 1;
nodes = (
"175 700 OFFCURVE",
"25 575 OFFCURVE",
"25 350 CURVE",
"25 125 OFFCURVE",
"175 0 OFFCURVE",
"375 0 CURVE",
"475 0 OFFCURVE",
"550 50 OFFCURVE",
"550 50 CURVE",
"550 150 LINE",
"550 150 OFFCURVE",
"475 100 OFFCURVE",
"375 100 CURVE",
"250 100 OFFCURVE",
"125 175 OFFCURVE",
"125 350 CURVE",
"125 525 OFFCURVE",
"250 600 OFFCURVE",
"375 600 CURVE",
"475 600 OFFCURVE",
"550 550 OFFCURVE",
"550 550 CURVE",
"550 650 LINE",
"550 650 OFFCURVE",
"475 700 OFFCURVE",
"375 700 CURVE"
);
}
);
width = 600;
}
);
leftKerningGroup = O;
unicode = 0043;
},
{
glyphname = D;
lastChange = "2018-04-09 20:03:12 +0000";
layers = (
{
background = {
paths = (
{
closed = 1;
nodes = (
"50 700 LINE",
"50 0 LINE",
"150 0 LINE",
"150 700 LINE"
);
},
{
closed = 1;
nodes = (
"150 100 LINE",
"150 0 LINE",
"450 0 LINE",
"450 100 LINE"
);
},
{
closed = 1;
nodes = (
"450 600 LINE",
"450 100 LINE",
"550 100 LINE",
"550 600 LINE"
);
},
{
closed = 1;
nodes = (
"150 700 LINE",
"150 600 LINE",
"450 600 LINE",
"450 700 LINE"
);
}
);
};
layerId = "F98BA250-6091-4D70-9AF4-192CADB0E332";
paths = (
{
closed = 1;
nodes = (
"150 700 LINE",
"150 600 LINE",
"175 600 LINE",
"300 600 OFFCURVE",
"425 525 OFFCURVE",
"425 350 CURVE",
"425 175 OFFCURVE",
"300 100 OFFCURVE",
"175 100 CURVE",
"150 100 LINE",
"150 0 LINE",
"175 0 LINE",
"375 0 OFFCURVE",
"525 150 OFFCURVE",
"525 350 CURVE",
"525 550 OFFCURVE",
"375 700 OFFCURVE",
"175 700 CURVE"
);
},
{
closed = 1;
nodes = (
"50 700 LINE",
"50 0 LINE",
"150 0 LINE",
"150 700 LINE"
);
}
);
width = 550;
}
);
rightKerningGroup = O;
unicode = 0044;
},
{
glyphname = Eth;
lastChange = "2018-04-09 20:03:12 +0000";
layers = (
{
background = {
components = (
{
name = D;
transform = "{1, 0, 0, 1, 200, 0}";
},
{
name = hyphen;
transform = "{1, 0, 0, 1, 75, 50}";
}
);
};
components = (
{
name = hyphen;
transform = "{1, 0, 0, 1, 0, 100}";
}
);
layerId = "F98BA250-6091-4D70-9AF4-192CADB0E332";
paths = (
{
closed = 1;
nodes = (
"250 700 LINE",
"250 600 LINE",
"275 600 LINE",
"400 600 OFFCURVE",
"525 525 OFFCURVE",
"525 350 CURVE",
"525 175 OFFCURVE",
"400 100 OFFCURVE",
"275 100 CURVE",
"250 100 LINE",
"250 0 LINE",
"275 0 LINE",
"475 0 OFFCURVE",
"625 150 OFFCURVE",
"625 350 CURVE",
"625 550 OFFCURVE",
"475 700 OFFCURVE",
"275 700 CURVE"
);
},
{
closed = 1;
nodes = (
"150 700 LINE",
"150 0 LINE",
"250 0 LINE",
"250 700 LINE"
);
}
);
width = 650;
}
);
unicode = 00D0;
},
{
glyphname = E;
lastChange = "2018-05-15 22:10:38 +0000";
layers = (
{
background = {
paths = (
{
closed = 1;
nodes = (
"50 700 LINE",
"50 0 LINE",
"150 0 LINE",
"150 700 LINE"
);
},
{
closed = 1;
nodes = (
"150 100 LINE",
"150 0 LINE",
"550 0 LINE",
"550 100 LINE"
);
},
{
closed = 1;
nodes = (
"150 400 LINE",
"150 300 LINE",
"350 300 LINE",
"350 400 LINE"
);
},
{
closed = 1;
nodes = (
"150 700 LINE",
"150 600 LINE",
"550 600 LINE",
"550 700 LINE"
);
}
);
};
layerId = "F98BA250-6091-4D70-9AF4-192CADB0E332";
paths = (
{
closed = 1;
nodes = (
"50 700 LINE",
"50 0 LINE",
"150 0 LINE",
"150 700 LINE"
);
},
{
closed = 1;
nodes = (
"150 100 LINE",
"150 0 LINE",
"450 0 LINE",
"450 100 LINE"
);
},
{
closed = 1;
nodes = (
"150 400 LINE",
"150 300 LINE",
"350 300 LINE",
"350 400 LINE"
);
},
{
closed = 1;
nodes = (
"150 700 LINE",
"150 600 LINE",
"450 600 LINE",
"450 700 LINE"
);
}
);
width = 500;
}
);
rightKerningGroup = E;
unicode = 0045;
},
{
glyphname = Eacute;
lastChange = "2018-04-09 20:03:12 +0000";
layers = (
{
background = {
components = (
{
name = acute;
}
);
paths = (
{
closed = 1;
nodes = (
"200 500 LINE",
"200 0 LINE",
"300 0 LINE",
"300 500 LINE"
);
},
{
closed = 1;
nodes = (
"300 100 LINE",
"300 0 LINE",
"600 0 LINE",
"600 100 LINE"
);
},
{
closed = 1;
nodes = (
"300 300 LINE",
"300 200 LINE",
"400 200 LINE",
"400 300 LINE"
);
},
{
closed = 1;
nodes = (
"300 500 LINE",
"300 400 LINE",
"600 400 LINE",
"600 500 LINE"
);
}
);
};
components = (
{
name = acute;
transform = "{1, 0, 0, 1, 100, 0}";
}
);
layerId = "F98BA250-6091-4D70-9AF4-192CADB0E332";
paths = (
{
closed = 1;
nodes = (
"50 500 LINE",
"50 0 LINE",
"150 0 LINE",
"150 500 LINE"
);
},
{
closed = 1;
nodes = (
"150 100 LINE",
"150 0 LINE",
"450 0 LINE",
"450 100 LINE"
);
},
{
closed = 1;
nodes = (
"150 300 LINE",
"150 200 LINE",
"250 200 LINE",
"250 300 LINE"
);
},
{
closed = 1;
nodes = (
"150 500 LINE",
"150 400 LINE",
"450 400 LINE",
"450 500 LINE"
);
}
);
width = 500;
}
);
unicode = 00C9;
},
{
glyphname = Ecircumflex;
lastChange = "2018-04-09 20:03:12 +0000";
layers = (
{
background = {
components = (
{
name = circumflex;
transform = "{1, 0, 0, 1, 50, 0}";
}
);
paths = (
{
closed = 1;
nodes = (
"200 500 LINE",
"200 0 LINE",
"300 0 LINE",
"300 500 LINE"
);
},
{
closed = 1;
nodes = (
"300 100 LINE",
"300 0 LINE",
"600 0 LINE",
"600 100 LINE"
);
},
{
closed = 1;
nodes = (
"300 300 LINE",
"300 200 LINE",
"400 200 LINE",
"400 300 LINE"
);
},
{
closed = 1;
nodes = (
"300 500 LINE",
"300 400 LINE",
"600 400 LINE",
"600 500 LINE"
);
}
);
};
components = (
{
name = circumflex;
transform = "{1, 0, 0, 1, 100, 0}";
}
);
layerId = "F98BA250-6091-4D70-9AF4-192CADB0E332";
paths = (
{
closed = 1;
nodes = (
"50 500 LINE",
"50 0 LINE",
"150 0 LINE",
"150 500 LINE"
);
},
{
closed = 1;
nodes = (
"150 100 LINE",
"150 0 LINE",
"450 0 LINE",
"450 100 LINE"
);
},
{
closed = 1;
nodes = (
"150 300 LINE",
"150 200 LINE",
"250 200 LINE",
"250 300 LINE"
);
},
{
closed = 1;
nodes = (
"150 500 LINE",
"150 400 LINE",
"450 400 LINE",
"450 500 LINE"
);
}
);
width = 500;
}
);
unicode = 00CA;
},
{
glyphname = Edieresis;
lastChange = "2018-04-09 20:03:12 +0000";
layers = (
{
background = {
components = (
{
name = dieresis;
}
);
paths = (
{
closed = 1;
nodes = (
"200 500 LINE",
"200 0 LINE",
"300 0 LINE",
"300 500 LINE"
);
},
{
closed = 1;
nodes = (
"300 100 LINE",
"300 0 LINE",
"600 0 LINE",
"600 100 LINE"
);
},
{
closed = 1;
nodes = (
"300 300 LINE",
"300 200 LINE",
"400 200 LINE",
"400 300 LINE"
);
},
{
closed = 1;
nodes = (
"300 500 LINE",
"300 400 LINE",
"600 400 LINE",
"600 500 LINE"
);
}
);
};
components = (
{
name = dieresis;
transform = "{1, 0, 0, 1, 50, 0}";
}
);
layerId = "F98BA250-6091-4D70-9AF4-192CADB0E332";
paths = (
{
closed = 1;
nodes = (
"100 500 LINE",
"100 0 LINE",
"200 0 LINE",
"200 500 LINE"
);
},
{
closed = 1;
nodes = (
"200 100 LINE",
"200 0 LINE",
"500 0 LINE",
"500 100 LINE"
);
},
{
closed = 1;
nodes = (
"200 300 LINE",
"200 200 LINE",
"300 200 LINE",
"300 300 LINE"
);
},
{
closed = 1;
nodes = (
"200 500 LINE",
"200 400 LINE",
"500 400 LINE",
"500 500 LINE"
);
}
);
width = 550;
}
);
unicode = 00CB;
},
{
glyphname = Egrave;
lastChange = "2018-04-09 20:03:12 +0000";
layers = (
{
background = {
components = (
{
name = grave;
transform = "{1, 0, 0, 1, 50, 0}";
}
);
paths = (
{
closed = 1;
nodes = (
"200 500 LINE",
"200 0 LINE",
"300 0 LINE",
"300 500 LINE"
);
},
{
closed = 1;
nodes = (
"300 100 LINE",
"300 0 LINE",
"600 0 LINE",
"600 100 LINE"
);
},
{
closed = 1;
nodes = (
"300 300 LINE",
"300 200 LINE",
"400 200 LINE",
"400 300 LINE"
);
},
{
closed = 1;
nodes = (
"300 500 LINE",
"300 400 LINE",
"600 400 LINE",
"600 500 LINE"
);
}
);
};
components = (
{
name = grave;
transform = "{1, 0, 0, 1, 100, 0}";
}
);
layerId = "F98BA250-6091-4D70-9AF4-192CADB0E332";
paths = (
{
closed = 1;
nodes = (
"50 500 LINE",
"50 0 LINE",
"150 0 LINE",
"150 500 LINE"
);
},
{
closed = 1;
nodes = (
"150 100 LINE",
"150 0 LINE",
"450 0 LINE",
"450 100 LINE"
);
},
{
closed = 1;
nodes = (
"150 300 LINE",
"150 200 LINE",
"250 200 LINE",
"250 300 LINE"
);
},
{
closed = 1;
nodes = (
"150 500 LINE",
"150 400 LINE",
"450 400 LINE",
"450 500 LINE"
);
}
);
width = 500;
}
);
unicode = 00C8;
},
{
glyphname = F;
lastChange = "2018-04-09 20:03:12 +0000";
layers = (
{
background = {
paths = (
{
closed = 1;
nodes = (
"100 700 LINE",
"100 0 LINE",
"200 0 LINE",
"200 700 LINE"
);
},
{
closed = 1;
nodes = (
"200 400 LINE",
"200 300 LINE",
"400 300 LINE",
"400 400 LINE"
);
},
{
closed = 1;
nodes = (
"200 700 LINE",
"200 600 LINE",
"600 600 LINE",
"600 700 LINE"
);
}
);
};
layerId = "F98BA250-6091-4D70-9AF4-192CADB0E332";
paths = (
{
closed = 1;
nodes = (
"50 700 LINE",
"50 0 LINE",
"150 0 LINE",
"150 700 LINE"
);
},
{
closed = 1;
nodes = (
"150 400 LINE",
"150 300 LINE",
"350 300 LINE",
"350 400 LINE"
);
},
{
closed = 1;
nodes = (
"150 700 LINE",
"150 600 LINE",
"450 600 LINE",
"450 700 LINE"
);
}
);
width = 500;
}
);
rightKerningGroup = F;
unicode = 0046;
},
{
glyphname = G;
lastChange = "2018-05-21 18:07:07 +0000";
layers = (
{
background = {
paths = (
{
closed = 1;
nodes = (
"175 600 LINE",
"475 600 LINE",
"475 700 LINE",
"175 700 LINE"
);
},
{
closed = 1;
nodes = (
"475 500 LINE",
"575 500 LINE",
"575 600 LINE",
"475 600 LINE"
);
},
{
closed = 1;
nodes = (
"75 100 LINE",
"175 100 LINE",
"175 600 LINE",
"75 600 LINE"
);
},
{
closed = 1;
nodes = (
"175 0 LINE",
"575 0 LINE",
"575 100 LINE",
"175 100 LINE"
);
},
{
closed = 1;
nodes = (
"475 100 LINE",
"575 100 LINE",
"575 200 LINE",
"475 200 LINE"
);
},
{
closed = 1;
nodes = (
"375 200 LINE",
"575 200 LINE",
"575 300 LINE",
"375 300 LINE"
);
}
);
};
layerId = "F98BA250-6091-4D70-9AF4-192CADB0E332";
paths = (
{
closed = 1;
nodes = (
"175 700 OFFCURVE",
"25 575 OFFCURVE",
"25 350 CURVE",
"25 125 OFFCURVE",
"175 0 OFFCURVE",
"375 0 CURVE",
"475 0 OFFCURVE",
"550 25 OFFCURVE",
"550 25 CURVE",
"550 100 LINE",
"375 100 LINE",
"250 100 OFFCURVE",
"125 175 OFFCURVE",
"125 350 CURVE",
"125 525 OFFCURVE",
"250 600 OFFCURVE",
"375 600 CURVE",
"475 600 OFFCURVE",
"550 550 OFFCURVE",
"550 550 CURVE",
"550 650 LINE",
"550 650 OFFCURVE",
"475 700 OFFCURVE",
"375 700 CURVE"
);
},
{
closed = 1;
nodes = (
"350 300 LINE",
"350 200 LINE",
"450 200 LINE",
"450 300 LINE"
);
},
{
closed = 1;
nodes = (
"450 300 LINE",
"450 100 LINE",
"550 100 LINE",
"550 300 LINE"
);
}
);
width = 600;
}
);
leftKerningGroup = O;
unicode = 0047;
},
{
glyphname = H;
lastChange = "2018-04-09 20:03:12 +0000";
layers = (
{
background = {
paths = (
{
closed = 1;
nodes = (
"450 700 LINE",
"450 0 LINE",
"550 0 LINE",
"550 700 LINE"
);
},
{
closed = 1;
nodes = (
"50 700 LINE",
"50 0 LINE",
"150 0 LINE",
"150 700 LINE"
);
},
{
closed = 1;
nodes = (
"150 400 LINE",
"150 300 LINE",
"450 300 LINE",
"450 400 LINE"
);
}
);
};
layerId = "F98BA250-6091-4D70-9AF4-192CADB0E332";
paths = (
{
closed = 1;
nodes = (
"450 700 LINE",
"450 0 LINE",
"550 0 LINE",
"550 700 LINE"
);
},
{
closed = 1;
nodes = (
"50 700 LINE",
"50 0 LINE",
"150 0 LINE",
"150 700 LINE"
);
},
{
closed = 1;
nodes = (
"150 400 LINE",
"150 300 LINE",
"450 300 LINE",
"450 400 LINE"
);
}
);
width = 600;
}
);
unicode = 0048;
},
{
glyphname = I;
lastChange = "2018-04-09 20:03:12 +0000";
layers = (
{
background = {
paths = (
{
closed = 1;
nodes = (
"300 600 LINE",
"300 100 LINE",
"400 100 LINE",
"400 600 LINE"
);
},
{
closed = 1;
nodes = (
"200 100 LINE",
"200 0 LINE",
"500 0 LINE",
"500 100 LINE"
);
},
{
closed = 1;
nodes = (
"200 700 LINE",
"200 600 LINE",
"500 600 LINE",
"500 700 LINE"
);
}
);
};
layerId = "F98BA250-6091-4D70-9AF4-192CADB0E332";
paths = (
{
closed = 1;
nodes = (
"150 600 LINE",
"150 100 LINE",
"250 100 LINE",
"250 600 LINE"
);
},
{
closed = 1;
nodes = (
"50 100 LINE",
"50 0 LINE",
"350 0 LINE",
"350 100 LINE"
);
},
{
closed = 1;
nodes = (
"50 700 LINE",
"50 600 LINE",
"350 600 LINE",
"350 700 LINE"
);
}
);
width = 400;
}
);
leftKerningGroup = I;
rightKerningGroup = I;
unicode = 0049;
},
{
glyphname = IJ;
lastChange = "2018-04-09 20:03:12 +0000";
layers = (
{
background = {
paths = (
{
closed = 1;
nodes = (
"100 700 LINE",
"100 600 LINE",
"600 600 LINE",
"600 700 LINE"
);
},
{
closed = 1;
nodes = (
"100 200 LINE",
"100 100 LINE",
"200 100 LINE",
"200 200 LINE"
);
},
{
closed = 1;
nodes = (
"200 100 LINE",
"200 0 LINE",
"400 0 LINE",
"400 100 LINE"
);
},
{
closed = 1;
nodes = (
"200 600 LINE",
"200 100 LINE",
"300 100 LINE",
"300 600 LINE"
);
},
{
closed = 1;
nodes = (
"400 600 LINE",
"400 100 LINE",
"500 100 LINE",
"500 600 LINE"
);
}
);
};
layerId = "F98BA250-6091-4D70-9AF4-192CADB0E332";
paths = (
{
closed = 1;
nodes = (
"350 700 LINE",
"350 250 LINE",
"350 150 OFFCURVE",
"300 100 OFFCURVE",
"225 100 CURVE",
"125 100 OFFCURVE",
"50 200 OFFCURVE",
"50 200 CURVE",
"50 75 LINE",
"50 75 OFFCURVE",
"100 0 OFFCURVE",
"225 0 CURVE",
"350 0 OFFCURVE",
"450 75 OFFCURVE",
"450 250 CURVE",
"450 700 LINE"
);
},
{
closed = 1;
nodes = (
"50 700 LINE",
"50 300 LINE",
"150 300 LINE",
"150 700 LINE"
);
},
{
closed = 1;
nodes = (
"250 700 LINE",
"250 600 LINE",
"550 600 LINE",
"550 700 LINE"
);
}
);
width = 600;
}
);
unicode = 0132;
},
{
glyphname = Iacute;
lastChange = "2018-04-09 20:03:12 +0000";
layers = (
{
background = {
components = (
{
name = acute;
}
);
paths = (
{
closed = 1;
nodes = (
"300 400 LINE",
"300 100 LINE",
"400 100 LINE",
"400 400 LINE"
);
},
{
closed = 1;
nodes = (
"200 100 LINE",
"200 0 LINE",
"500 0 LINE",
"500 100 LINE"
);
},
{
closed = 1;
nodes = (
"200 500 LINE",
"200 400 LINE",
"500 400 LINE",
"500 500 LINE"
);
}
);
};
layerId = "F98BA250-6091-4D70-9AF4-192CADB0E332";
paths = (
{
closed = 1;
nodes = (
"50 400 LINE",
"50 300 LINE",
"350 300 LINE",
"350 400 LINE"
);
},
{
closed = 1;
nodes = (
"50 100 LINE",
"50 0 LINE",
"350 0 LINE",
"350 100 LINE"
);
},
{
closed = 1;
nodes = (
"150 300 LINE",
"150 100 LINE",
"250 100 LINE",
"250 300 LINE"
);
},
{
closed = 1;
nodes = (
"250 700 LINE",
"250 600 LINE",
"350 600 LINE",
"350 700 LINE"
);
},
{
closed = 1;
nodes = (
"50 600 LINE",
"50 500 LINE",
"250 500 LINE",
"250 600 LINE"
);
}
);
width = 400;
}
);
unicode = 00CD;
},
{
glyphname = Icircumflex;
lastChange = "2018-04-09 20:03:12 +0000";
layers = (
{
background = {
components = (
{
name = circumflex;
transform = "{1, 0, 0, 1, -50, 0}";
}
);
paths = (
{
closed = 1;
nodes = (
"250 300 LINE",
"250 100 LINE",
"350 100 LINE",
"350 300 LINE"
);
},
{
closed = 1;
nodes = (
"150 100 LINE",
"150 0 LINE",
"450 0 LINE",
"450 100 LINE"
);
},
{
closed = 1;
nodes = (
"150 400 LINE",
"150 300 LINE",
"450 300 LINE",
"450 400 LINE"
);
}
);
};
components = (
{
name = circumflex;
}
);
layerId = "F98BA250-6091-4D70-9AF4-192CADB0E332";
paths = (
{
closed = 1;
nodes = (
"50 400 LINE",
"50 300 LINE",
"350 300 LINE",
"350 400 LINE"
);
},
{
closed = 1;
nodes = (
"50 100 LINE",
"50 0 LINE",
"350 0 LINE",
"350 100 LINE"
);
},
{
closed = 1;
nodes = (
"150 300 LINE",
"150 100 LINE",
"250 100 LINE",
"250 300 LINE"
);
}
);
width = 400;
}
);
unicode = 00CE;
},
{
glyphname = Idieresis;
lastChange = "2018-04-09 20:03:12 +0000";
layers = (
{
background = {
components = (
{
name = dieresis;
}
);
paths = (
{
closed = 1;
nodes = (
"300 400 LINE",
"300 100 LINE",
"400 100 LINE",
"400 400 LINE"
);
},
{
closed = 1;
nodes = (
"200 100 LINE",
"200 0 LINE",
"500 0 LINE",
"500 100 LINE"
);
},
{
closed = 1;
nodes = (
"200 500 LINE",
"200 400 LINE",
"500 400 LINE",
"500 500 LINE"
);
}
);
};
components = (
{
name = dieresis;
transform = "{1, 0, 0, 1, 50, 0}";
}
);
layerId = "F98BA250-6091-4D70-9AF4-192CADB0E332";
paths = (
{
closed = 1;
nodes = (
"100 500 LINE",
"100 400 LINE",
"400 400 LINE",
"400 500 LINE"
);
},
{
closed = 1;
nodes = (
"100 100 LINE",
"100 0 LINE",
"400 0 LINE",
"400 100 LINE"
);
},
{
closed = 1;
nodes = (
"200 400 LINE",
"200 100 LINE",
"300 100 LINE",
"300 400 LINE"
);
}
);
width = 450;
}
);
unicode = 00CF;
},
{
glyphname = Igrave;
lastChange = "2018-04-09 20:03:12 +0000";
layers = (
{
background = {
components = (
{
name = grave;
}
);
paths = (
{
closed = 1;
nodes = (
"300 400 LINE",
"300 100 LINE",
"400 100 LINE",
"400 400 LINE"
);
},
{
closed = 1;
nodes = (
"200 100 LINE",
"200 0 LINE",
"500 0 LINE",
"500 100 LINE"
);
},
{
closed = 1;
nodes = (
"200 500 LINE",
"200 400 LINE",
"500 400 LINE",
"500 500 LINE"
);
}
);
};
layerId = "F98BA250-6091-4D70-9AF4-192CADB0E332";
paths = (
{
closed = 1;
nodes = (
"100 400 LINE",
"100 300 LINE",
"400 300 LINE",
"400 400 LINE"
);
},
{
closed = 1;
nodes = (
"100 100 LINE",
"100 0 LINE",
"400 0 LINE",
"400 100 LINE"
);
},
{
closed = 1;
nodes = (
"200 300 LINE",
"200 100 LINE",
"300 100 LINE",
"300 300 LINE"
);
},
{
closed = 1;
nodes = (
"200 600 LINE",
"200 500 LINE",
"400 500 LINE",
"400 600 LINE"
);
},
{
closed = 1;
nodes = (
"100 700 LINE",
"100 600 LINE",
"200 600 LINE",
"200 700 LINE"
);
}
);
width = 450;
}
);
unicode = 00CC;
},
{
glyphname = J;
lastChange = "2018-05-15 23:01:00 +0000";
layers = (
{
background = {
paths = (
{
closed = 1;
nodes = (
"350 600 LINE",
"350 100 LINE",
"450 100 LINE",
"450 600 LINE"
);
},
{
closed = 1;
nodes = (
"50 200 LINE",
"50 100 LINE",
"150 100 LINE",
"150 200 LINE"
);
},
{
closed = 1;
nodes = (
"150 100 LINE",
"150 0 LINE",
"350 0 LINE",
"350 100 LINE"
);
},
{
closed = 1;
nodes = (
"250 700 LINE",
"250 600 LINE",
"550 600 LINE",
"550 700 LINE"
);
}
);
};
layerId = "F98BA250-6091-4D70-9AF4-192CADB0E332";
paths = (
{
closed = 1;
nodes = (
"250 700 LINE",
"250 600 LINE",
"550 600 LINE",
"550 700 LINE"
);
},
{
closed = 1;
nodes = (
"350 700 LINE",
"350 225 LINE",
"350 150 OFFCURVE",
"300 100 OFFCURVE",
"225 100 CURVE",
"125 100 OFFCURVE",
"50 200 OFFCURVE",
"50 200 CURVE",
"50 75 LINE",
"50 75 OFFCURVE",
"100 0 OFFCURVE",
"225 0 CURVE",
"350 0 OFFCURVE",
"450 75 OFFCURVE",
"450 225 CURVE",
"450 700 LINE"
);
}
);
width = 600;
}
);
leftKerningGroup = J;
rightKerningGroup = J;
unicode = 004A;
},
{
glyphname = K;
lastChange = "2018-05-15 21:52:28 +0000";
layers = (
{
background = {
paths = (
{
closed = 1;
nodes = (
"50 700 LINE",
"50 0 LINE",
"150 0 LINE",
"150 700 LINE"
);
},
{
closed = 1;
nodes = (
"150 400 LINE",
"150 300 LINE",
"250 300 LINE",
"250 400 LINE"
);
},
{
closed = 1;
nodes = (
"250 300 LINE",
"250 200 LINE",
"350 200 LINE",
"350 300 LINE"
);
},
{
closed = 1;
nodes = (
"350 200 LINE",
"350 100 LINE",
"450 100 LINE",
"450 200 LINE"
);
},
{
closed = 1;
nodes = (
"450 100 LINE",
"450 0 LINE",
"550 0 LINE",
"550 100 LINE"
);
},
{
closed = 1;
nodes = (
"250 500 LINE",
"250 400 LINE",
"350 400 LINE",
"350 500 LINE"
);
},
{
closed = 1;
nodes = (
"350 600 LINE",
"350 500 LINE",
"450 500 LINE",
"450 600 LINE"
);
},
{
closed = 1;
nodes = (
"450 700 LINE",
"450 600 LINE",
"550 600 LINE",
"550 700 LINE"
);
}
);
};
layerId = "F98BA250-6091-4D70-9AF4-192CADB0E332";
paths = (
{
closed = 1;
nodes = (
"50 700 LINE",
"50 0 LINE",
"150 0 LINE",
"150 700 LINE"
);
},
{
closed = 1;
nodes = (
"250 500 LINE",
"150 350 LINE",
"75 100 LINE",
"525 700 LINE",
"400 700 LINE"
);
},
{
closed = 1;
nodes = (
"225 400 LINE",
"175 300 LINE",
"400 0 LINE",
"525 0 LINE"
);
}
);
width = 550;
}
);
rightKerningGroup = X;
unicode = 004B;
},
{
glyphname = L;
lastChange = "2018-04-09 20:03:12 +0000";
layers = (
{
background = {
paths = (
{
closed = 1;
nodes = (
"100 700 LINE",
"100 0 LINE",
"200 0 LINE",
"200 700 LINE"
);
},
{
closed = 1;
nodes = (
"200 100 LINE",
"200 0 LINE",
"600 0 LINE",
"600 100 LINE"
);
}
);
};
layerId = "F98BA250-6091-4D70-9AF4-192CADB0E332";
paths = (
{
closed = 1;
nodes = (
"50 700 LINE",
"50 0 LINE",
"150 0 LINE",
"150 700 LINE"
);
},
{
closed = 1;
nodes = (
"150 100 LINE",
"150 0 LINE",
"450 0 LINE",
"450 100 LINE"
);
}
);
width = 500;
},
{
associatedMasterId = "F98BA250-6091-4D70-9AF4-192CADB0E332";
background = {
paths = (
{
closed = 1;
nodes = (
"100 700 LINE",
"100 0 LINE",
"200 0 LINE",
"200 700 LINE"
);
},
{
closed = 1;
nodes = (
"200 100 LINE",
"200 0 LINE",
"600 0 LINE",
"600 100 LINE"
);
}
);
};
layerId = "AD562BDB-C948-4181-89A5-CD092185B514";
name = "Mar 25 18, 20:04";
paths = (
{
closed = 1;
nodes = (
"50 700 LINE",
"50 0 LINE",
"150 0 LINE",
"150 700 LINE"
);
},
{
closed = 1;
nodes = (
"150 100 LINE",
"150 0 LINE",
"450 0 LINE",
"450 100 LINE"
);
}
);
width = 500;
},
{
associatedMasterId = "F98BA250-6091-4D70-9AF4-192CADB0E332";
background = {
paths = (
{
closed = 1;
nodes = (
"100 700 LINE",
"100 0 LINE",
"200 0 LINE",
"200 700 LINE"
);
},
{
closed = 1;
nodes = (
"200 100 LINE",
"200 0 LINE",
"600 0 LINE",
"600 100 LINE"
);
}
);
};
layerId = "CFD360AA-C842-454B-88FD-1E347A94AC70";
name = "Mar 25 18, 20:04";
paths = (
{
closed = 1;
nodes = (
"50 700 LINE",
"50 0 LINE",
"150 0 LINE",
"150 700 LINE"
);
},
{
closed = 1;
nodes = (
"150 100 LINE",
"150 0 LINE",
"450 0 LINE",
"450 100 LINE"
);
}
);
width = 500;
},
{
associatedMasterId = "F98BA250-6091-4D70-9AF4-192CADB0E332";
background = {
paths = (
{
closed = 1;
nodes = (
"100 700 LINE",
"100 0 LINE",
"200 0 LINE",
"200 700 LINE"
);
},
{
closed = 1;
nodes = (
"200 100 LINE",
"200 0 LINE",
"600 0 LINE",
"600 100 LINE"
);
}
);
};
layerId = "D4F241D1-FC74-492F-A1E7-42AA2488FF9E";
name = "Mar 25 18, 20:04";
paths = (
{
closed = 1;
nodes = (
"50 700 LINE",
"50 0 LINE",
"150 0 LINE",
"150 700 LINE"
);
},
{
closed = 1;
nodes = (
"150 100 LINE",
"150 0 LINE",
"450 0 LINE",
"450 100 LINE"
);
}
);
width = 500;
}
);
rightKerningGroup = L;
unicode = 004C;
},
{
glyphname = Lslash;
lastChange = "2018-04-09 20:03:12 +0000";
layers = (
{
background = {
paths = (
{
closed = 1;
nodes = (
"200 700 LINE",
"200 0 LINE",
"300 0 LINE",
"300 700 LINE"
);
},
{
closed = 1;
nodes = (
"0 100 LINE",
"0 0 LINE",
"100 0 LINE",
"100 100 LINE"
);
},
{
closed = 1;
nodes = (
"100 200 LINE",
"100 100 LINE",
"200 100 LINE",
"200 200 LINE"
);
},
{
closed = 1;
nodes = (
"300 100 LINE",
"300 0 LINE",
"600 0 LINE",
"600 100 LINE"
);
},
{
closed = 1;
nodes = (
"300 400 LINE",
"300 300 LINE",
"400 300 LINE",
"400 400 LINE"
);
},
{
closed = 1;
nodes = (
"400 500 LINE",
"400 400 LINE",
"500 400 LINE",
"500 500 LINE"
);
}
);
};
layerId = "F98BA250-6091-4D70-9AF4-192CADB0E332";
paths = (
{
closed = 1;
nodes = (
"250 700 LINE",
"250 0 LINE",
"350 0 LINE",
"350 700 LINE"
);
},
{
closed = 1;
nodes = (
"50 200 LINE",
"50 100 LINE",
"150 100 LINE",
"150 200 LINE"
);
},
{
closed = 1;
nodes = (
"150 300 LINE",
"150 200 LINE",
"250 200 LINE",
"250 300 LINE"
);
},
{
closed = 1;
nodes = (
"350 100 LINE",
"350 0 LINE",
"750 0 LINE",
"750 100 LINE"
);
},
{
closed = 1;
nodes = (
"350 500 LINE",
"350 400 LINE",
"450 400 LINE",
"450 500 LINE"
);
},
{
closed = 1;
nodes = (
"450 600 LINE",
"450 500 LINE",
"550 500 LINE",
"550 600 LINE"
);
}
);
width = 800;
}
);
unicode = 0141;
},
{
glyphname = M;
lastChange = "2018-05-15 22:54:11 +0000";
layers = (
{
background = {
paths = (
{
closed = 1;
nodes = (
"475 700 LINE",
"475 0 LINE",
"575 0 LINE",
"575 700 LINE"
);
},
{
closed = 1;
nodes = (
"75 700 LINE",
"75 0 LINE",
"175 0 LINE",
"175 700 LINE"
);
},
{
closed = 1;
nodes = (
"175 600 LINE",
"175 500 LINE",
"275 500 LINE",
"275 600 LINE"
);
},
{
closed = 1;
nodes = (
"275 500 LINE",
"275 400 LINE",
"375 400 LINE",
"375 500 LINE"
);
},
{
closed = 1;
nodes = (
"375 600 LINE",
"375 500 LINE",
"475 500 LINE",
"475 600 LINE"
);
}
);
};
layerId = "F98BA250-6091-4D70-9AF4-192CADB0E332";
paths = (
{
closed = 1;
nodes = (
"500 700 LINE",
"325 475 LINE",
"150 700 LINE",
"50 700 LINE",
"50 0 LINE",
"150 0 LINE",
"150 550 LINE",
"325 325 LINE",
"500 550 LINE",
"500 0 LINE",
"600 0 LINE",
"600 700 LINE"
);
}
);
width = 650;
}
);
unicode = 004D;
},
{
glyphname = N;
lastChange = "2018-04-09 20:03:12 +0000";
layers = (
{
background = {
paths = (
{
closed = 1;
nodes = (
"450 700 LINE",
"450 0 LINE",
"550 0 LINE",
"550 700 LINE"
);
},
{
closed = 1;
nodes = (
"50 700 LINE",
"50 0 LINE",
"150 0 LINE",
"150 700 LINE"
);
},
{
closed = 1;
nodes = (
"150 500 LINE",
"150 400 LINE",
"250 400 LINE",
"250 500 LINE"
);
},
{
closed = 1;
nodes = (
"250 400 LINE",
"250 300 LINE",
"350 300 LINE",
"350 400 LINE"
);
},
{
closed = 1;
nodes = (
"350 300 LINE",
"350 200 LINE",
"450 200 LINE",
"450 300 LINE"
);
}
);
};
layerId = "F98BA250-6091-4D70-9AF4-192CADB0E332";
paths = (
{
closed = 1;
nodes = (
"450 700 LINE",
"450 150 LINE",
"475 150 LINE",
"150 700 LINE",
"50 700 LINE",
"50 0 LINE",
"150 0 LINE",
"150 550 LINE",
"125 550 LINE",
"450 0 LINE",
"550 0 LINE",
"550 700 LINE"
);
}
);
width = 600;
}
);
unicode = 004E;
},
{
glyphname = Ntilde;
lastChange = "2018-04-09 20:03:12 +0000";
layers = (
{
background = {
components = (
{
name = tilde;
transform = "{1, 0, 0, 1, -50, 0}";
}
);
paths = (
{
closed = 1;
nodes = (
"450 400 LINE",
"450 0 LINE",
"550 0 LINE",
"550 400 LINE"
);
},
{
closed = 1;
nodes = (
"50 400 LINE",
"50 0 LINE",
"150 0 LINE",
"150 400 LINE"
);
},
{
closed = 1;
nodes = (
"150 400 LINE",
"150 300 LINE",
"250 300 LINE",
"250 400 LINE"
);
},
{
closed = 1;
nodes = (
"250 300 LINE",
"250 100 LINE",
"350 100 LINE",
"350 300 LINE"
);
},
{
closed = 1;
nodes = (
"350 100 LINE",
"350 0 LINE",
"450 0 LINE",
"450 100 LINE"
);
}
);
};
components = (
{
name = tilde;
}
);
layerId = "F98BA250-6091-4D70-9AF4-192CADB0E332";
paths = (
{
closed = 1;
nodes = (
"450 400 LINE",
"450 100 LINE",
"550 50 LINE",
"150 400 LINE",
"50 400 LINE",
"50 0 LINE",
"150 0 LINE",
"150 300 LINE",
"50 350 LINE",
"450 0 LINE",
"550 0 LINE",
"550 400 LINE"
);
}
);
width = 600;
}
);
unicode = 00D1;
},
{
glyphname = O;
lastChange = "2018-05-05 22:41:40 +0000";
layers = (
{
background = {
paths = (
{
closed = 1;
nodes = (
"475 600 LINE",
"475 100 LINE",
"575 100 LINE",
"575 600 LINE"
);
},
{
closed = 1;
nodes = (
"175 100 LINE",
"175 0 LINE",
"475 0 LINE",
"475 100 LINE"
);
},
{
closed = 1;
nodes = (
"75 600 LINE",
"75 100 LINE",
"175 100 LINE",
"175 600 LINE"
);
},
{
closed = 1;
nodes = (
"175 700 LINE",
"175 600 LINE",
"475 600 LINE",
"475 700 LINE"
);
}
);
};
layerId = "F98BA250-6091-4D70-9AF4-192CADB0E332";
paths = (
{
closed = 1;
nodes = (
"150 700 OFFCURVE",
"25 550 OFFCURVE",
"25 350 CURVE",
"25 150 OFFCURVE",
"150 0 OFFCURVE",
"350 0 CURVE",
"550 0 OFFCURVE",
"675 150 OFFCURVE",
"675 350 CURVE",
"675 550 OFFCURVE",
"550 700 OFFCURVE",
"350 700 CURVE"
);
},
{
closed = 1;
nodes = (
"475 600 OFFCURVE",
"575 500 OFFCURVE",
"575 350 CURVE",
"575 200 OFFCURVE",
"475 100 OFFCURVE",
"350 100 CURVE",
"225 100 OFFCURVE",
"125 200 OFFCURVE",
"125 350 CURVE",
"125 500 OFFCURVE",
"225 600 OFFCURVE",
"350 600 CURVE"
);
}
);
width = 700;
}
);
leftKerningGroup = O;
rightKerningGroup = O;
unicode = 004F;
},
{
glyphname = Oacute;
lastChange = "2018-04-09 20:03:12 +0000";
layers = (
{
background = {
components = (
{
name = acute;
}
);
paths = (
{
closed = 1;
nodes = (
"500 300 LINE",
"500 100 LINE",
"600 100 LINE",
"600 300 LINE"
);
},
{
closed = 1;
nodes = (
"200 100 LINE",
"200 0 LINE",
"500 0 LINE",
"500 100 LINE"
);
},
{
closed = 1;
nodes = (
"100 300 LINE",
"100 100 LINE",
"200 100 LINE",
"200 300 LINE"
);
},
{
closed = 1;
nodes = (
"200 400 LINE",
"200 300 LINE",
"500 300 LINE",
"500 400 LINE"
);
}
);
};
layerId = "F98BA250-6091-4D70-9AF4-192CADB0E332";
paths = (
{
closed = 1;
nodes = (
"350 700 LINE",
"350 600 LINE",
"450 600 LINE",
"450 700 LINE"
);
},
{
closed = 1;
nodes = (
"150 600 LINE",
"150 500 LINE",
"350 500 LINE",
"350 600 LINE"
);
},
{
closed = 1;
nodes = (
"125 400 OFFCURVE",
"25 325 OFFCURVE",
"25 200 CURVE",
"25 75 OFFCURVE",
"125 0 OFFCURVE",
"300 0 CURVE",
"475 0 OFFCURVE",
"575 75 OFFCURVE",
"575 200 CURVE",
"575 325 OFFCURVE",
"475 400 OFFCURVE",
"300 400 CURVE"
);
},
{
closed = 1;
nodes = (
"400 300 OFFCURVE",
"475 275 OFFCURVE",
"475 200 CURVE",
"475 125 OFFCURVE",
"400 100 OFFCURVE",
"300 100 CURVE",
"200 100 OFFCURVE",
"125 125 OFFCURVE",
"125 200 CURVE",
"125 275 OFFCURVE",
"200 300 OFFCURVE",
"300 300 CURVE"
);
}
);
width = 600;
}
);
leftKerningGroup = O;
unicode = 00D3;
},
{
glyphname = Ocircumflex;
lastChange = "2018-04-09 20:03:12 +0000";
layers = (
{
background = {
components = (
{
name = circumflex;
}
);
paths = (
{
closed = 1;
nodes = (
"500 300 LINE",
"500 100 LINE",
"600 100 LINE",
"600 300 LINE"
);
},
{
closed = 1;
nodes = (
"200 100 LINE",
"200 0 LINE",
"500 0 LINE",
"500 100 LINE"
);
},
{
closed = 1;
nodes = (
"100 300 LINE",
"100 100 LINE",
"200 100 LINE",
"200 300 LINE"
);
},
{
closed = 1;
nodes = (
"200 400 LINE",
"200 300 LINE",
"500 300 LINE",
"500 400 LINE"
);
}
);
};
components = (
{
name = circumflex;
transform = "{1, 0, 0, 1, 100, 0}";
}
);
layerId = "F98BA250-6091-4D70-9AF4-192CADB0E332";
paths = (
{
closed = 1;
nodes = (
"125 400 OFFCURVE",
"25 325 OFFCURVE",
"25 200 CURVE",
"25 75 OFFCURVE",
"125 0 OFFCURVE",
"300 0 CURVE",
"475 0 OFFCURVE",
"575 75 OFFCURVE",
"575 200 CURVE",
"575 325 OFFCURVE",
"475 400 OFFCURVE",
"300 400 CURVE"
);
},
{
closed = 1;
nodes = (
"400 300 OFFCURVE",
"475 275 OFFCURVE",
"475 200 CURVE",
"475 125 OFFCURVE",
"400 100 OFFCURVE",
"300 100 CURVE",
"200 100 OFFCURVE",
"125 125 OFFCURVE",
"125 200 CURVE",
"125 275 OFFCURVE",
"200 300 OFFCURVE",
"300 300 CURVE"
);
}
);
width = 600;
}
);
leftKerningGroup = O;
unicode = 00D4;
},
{
glyphname = Odieresis;
lastChange = "2018-04-09 20:03:12 +0000";
layers = (
{
background = {
components = (
{
name = dieresis;
transform = "{1, 0, 0, 1, -100, 0}";
}
);
paths = (
{
closed = 1;
nodes = (
"400 400 LINE",
"400 100 LINE",
"500 100 LINE",
"500 400 LINE"
);
},
{
closed = 1;
nodes = (
"100 100 LINE",
"100 0 LINE",
"400 0 LINE",
"400 100 LINE"
);
},
{
closed = 1;
nodes = (
"0 400 LINE",
"0 100 LINE",
"100 100 LINE",
"100 400 LINE"
);
},
{
closed = 1;
nodes = (
"100 500 LINE",
"100 400 LINE",
"400 400 LINE",
"400 500 LINE"
);
}
);
};
components = (
{
name = dieresis;
transform = "{1, 0, 0, 1, 50, 0}";
}
);
layerId = "F98BA250-6091-4D70-9AF4-192CADB0E332";
paths = (
{
closed = 1;
nodes = (
"100 500 OFFCURVE",
"25 400 OFFCURVE",
"25 250 CURVE",
"25 100 OFFCURVE",
"100 0 OFFCURVE",
"250 0 CURVE",
"400 0 OFFCURVE",
"475 100 OFFCURVE",
"475 250 CURVE",
"475 400 OFFCURVE",
"400 500 OFFCURVE",
"250 500 CURVE"
);
},
{
closed = 1;
nodes = (
"325 400 OFFCURVE",
"375 350 OFFCURVE",
"375 250 CURVE",
"375 150 OFFCURVE",
"325 100 OFFCURVE",
"250 100 CURVE",
"175 100 OFFCURVE",
"125 150 OFFCURVE",
"125 250 CURVE",
"125 350 OFFCURVE",
"175 400 OFFCURVE",
"250 400 CURVE"
);
}
);
width = 500;
}
);
leftKerningGroup = O;
unicode = 00D6;
},
{
glyphname = Ograve;
lastChange = "2018-04-09 20:03:12 +0000";
layers = (
{
background = {
components = (
{
name = grave;
}
);
paths = (
{
closed = 1;
nodes = (
"500 300 LINE",
"500 100 LINE",
"600 100 LINE",
"600 300 LINE"
);
},
{
closed = 1;
nodes = (
"200 100 LINE",
"200 0 LINE",
"500 0 LINE",
"500 100 LINE"
);
},
{
closed = 1;
nodes = (
"100 300 LINE",
"100 100 LINE",
"200 100 LINE",
"200 300 LINE"
);
},
{
closed = 1;
nodes = (
"200 400 LINE",
"200 300 LINE",
"500 300 LINE",
"500 400 LINE"
);
}
);
};
layerId = "F98BA250-6091-4D70-9AF4-192CADB0E332";
paths = (
{
closed = 1;
nodes = (
"250 600 LINE",
"250 500 LINE",
"450 500 LINE",
"450 600 LINE"
);
},
{
closed = 1;
nodes = (
"150 700 LINE",
"150 600 LINE",
"250 600 LINE",
"250 700 LINE"
);
},
{
closed = 1;
nodes = (
"125 400 OFFCURVE",
"25 325 OFFCURVE",
"25 200 CURVE",
"25 75 OFFCURVE",
"125 0 OFFCURVE",
"300 0 CURVE",
"475 0 OFFCURVE",
"575 75 OFFCURVE",
"575 200 CURVE",
"575 325 OFFCURVE",
"475 400 OFFCURVE",
"300 400 CURVE"
);
},
{
closed = 1;
nodes = (
"400 300 OFFCURVE",
"475 275 OFFCURVE",
"475 200 CURVE",
"475 125 OFFCURVE",
"400 100 OFFCURVE",
"300 100 CURVE",
"200 100 OFFCURVE",
"125 125 OFFCURVE",
"125 200 CURVE",
"125 275 OFFCURVE",
"200 300 OFFCURVE",
"300 300 CURVE"
);
}
);
width = 600;
}
);
leftKerningGroup = O;
unicode = 00D2;
},
{
glyphname = Oslash;
lastChange = "2018-05-05 22:48:31 +0000";
layers = (
{
layerId = "F98BA250-6091-4D70-9AF4-192CADB0E332";
paths = (
{
closed = 1;
nodes = (
"150 700 OFFCURVE",
"25 550 OFFCURVE",
"25 350 CURVE",
"25 150 OFFCURVE",
"150 0 OFFCURVE",
"350 0 CURVE",
"550 0 OFFCURVE",
"675 150 OFFCURVE",
"675 350 CURVE",
"675 550 OFFCURVE",
"550 700 OFFCURVE",
"350 700 CURVE"
);
},
{
closed = 1;
nodes = (
"475 600 OFFCURVE",
"575 500 OFFCURVE",
"575 350 CURVE",
"575 200 OFFCURVE",
"475 100 OFFCURVE",
"350 100 CURVE",
"225 100 OFFCURVE",
"125 200 OFFCURVE",
"125 350 CURVE",
"125 500 OFFCURVE",
"225 600 OFFCURVE",
"350 600 CURVE"
);
},
{
closed = 1;
nodes = (
"300 300 LINE",
"400 300 LINE",
"400 400 LINE",
"300 400 LINE"
);
},
{
closed = 1;
nodes = (
"400 400 LINE",
"500 400 LINE",
"500 500 LINE",
"400 500 LINE"
);
},
{
closed = 1;
nodes = (
"200 200 LINE",
"300 200 LINE",
"300 300 LINE",
"200 300 LINE"
);
},
{
closed = 1;
nodes = (
"500 500 LINE",
"550 500 LINE",
"550 550 LINE",
"500 550 LINE"
);
},
{
closed = 1;
nodes = (
"150 150 LINE",
"200 150 LINE",
"200 200 LINE",
"150 200 LINE"
);
}
);
width = 700;
}
);
leftKerningGroup = O;
unicode = 00D8;
},
{
glyphname = Otilde;
lastChange = "2018-04-09 20:03:12 +0000";
layers = (
{
background = {
components = (
{
name = tilde;
transform = "{1, 0, 0, 1, -50, 0}";
}
);
paths = (
{
closed = 1;
nodes = (
"450 300 LINE",
"450 100 LINE",
"550 100 LINE",
"550 300 LINE"
);
},
{
closed = 1;
nodes = (
"150 100 LINE",
"150 0 LINE",
"450 0 LINE",
"450 100 LINE"
);
},
{
closed = 1;
nodes = (
"50 300 LINE",
"50 100 LINE",
"150 100 LINE",
"150 300 LINE"
);
},
{
closed = 1;
nodes = (
"150 400 LINE",
"150 300 LINE",
"450 300 LINE",
"450 400 LINE"
);
}
);
};
components = (
{
name = tilde;
}
);
layerId = "F98BA250-6091-4D70-9AF4-192CADB0E332";
paths = (
{
closed = 1;
nodes = (
"125 400 OFFCURVE",
"25 325 OFFCURVE",
"25 200 CURVE",
"25 75 OFFCURVE",
"125 0 OFFCURVE",
"300 0 CURVE",
"475 0 OFFCURVE",
"575 75 OFFCURVE",
"575 200 CURVE",
"575 325 OFFCURVE",
"475 400 OFFCURVE",
"300 400 CURVE"
);
},
{
closed = 1;
nodes = (
"400 300 OFFCURVE",
"475 275 OFFCURVE",
"475 200 CURVE",
"475 125 OFFCURVE",
"400 100 OFFCURVE",
"300 100 CURVE",
"200 100 OFFCURVE",
"125 125 OFFCURVE",
"125 200 CURVE",
"125 275 OFFCURVE",
"200 300 OFFCURVE",
"300 300 CURVE"
);
}
);
width = 600;
}
);
leftKerningGroup = O;
unicode = 00D5;
},
{
glyphname = OE;
lastChange = "2018-04-09 20:03:12 +0000";
layers = (
{
background = {
paths = (
{
closed = 1;
nodes = (
"300 600 LINE",
"300 100 LINE",
"400 100 LINE",
"400 600 LINE"
);
},
{
closed = 1;
nodes = (
"200 100 LINE",
"200 0 LINE",
"600 0 LINE",
"600 100 LINE"
);
},
{
closed = 1;
nodes = (
"100 600 LINE",
"100 100 LINE",
"200 100 LINE",
"200 600 LINE"
);
},
{
closed = 1;
nodes = (
"400 400 LINE",
"400 300 LINE",
"500 300 LINE",
"500 400 LINE"
);
},
{
closed = 1;
nodes = (
"200 700 LINE",
"200 600 LINE",
"600 600 LINE",
"600 700 LINE"
);
}
);
};
layerId = "F98BA250-6091-4D70-9AF4-192CADB0E332";
paths = (
{
closed = 1;
nodes = (
"250 600 LINE",
"250 100 LINE",
"350 100 LINE",
"350 600 LINE"
);
},
{
closed = 1;
nodes = (
"150 100 LINE",
"150 0 LINE",
"550 0 LINE",
"550 100 LINE"
);
},
{
closed = 1;
nodes = (
"50 600 LINE",
"50 100 LINE",
"150 100 LINE",
"150 600 LINE"
);
},
{
closed = 1;
nodes = (
"350 400 LINE",
"350 300 LINE",
"450 300 LINE",
"450 400 LINE"
);
},
{
closed = 1;
nodes = (
"150 700 LINE",
"150 600 LINE",
"550 600 LINE",
"550 700 LINE"
);
}
);
width = 600;
}
);
unicode = 0152;
},
{
glyphname = P;
lastChange = "2018-05-09 00:05:13 +0000";
layers = (
{
background = {
paths = (
{
closed = 1;
nodes = (
"100 700 LINE",
"100 0 LINE",
"200 0 LINE",
"200 700 LINE"
);
},
{
closed = 1;
nodes = (
"200 400 LINE",
"200 300 LINE",
"500 300 LINE",
"500 400 LINE"
);
},
{
closed = 1;
nodes = (
"200 700 LINE",
"200 600 LINE",
"500 600 LINE",
"500 700 LINE"
);
},
{
closed = 1;
nodes = (
"500 600 LINE",
"500 400 LINE",
"600 400 LINE",
"600 600 LINE"
);
}
);
};
layerId = "F98BA250-6091-4D70-9AF4-192CADB0E332";
paths = (
{
closed = 1;
nodes = (
"300 300 LINE",
"450 300 OFFCURVE",
"525 375 OFFCURVE",
"525 500 CURVE",
"525 625 OFFCURVE",
"450 700 OFFCURVE",
"300 700 CURVE",
"150 700 LINE",
"150 600 LINE",
"300 600 LINE",
"375 600 OFFCURVE",
"425 575 OFFCURVE",
"425 500 CURVE",
"425 425 OFFCURVE",
"375 400 OFFCURVE",
"300 400 CURVE",
"150 400 LINE",
"150 300 LINE"
);
},
{
closed = 1;
nodes = (
"150 0 LINE",
"150 700 LINE",
"50 700 LINE",
"50 0 LINE"
);
}
);
width = 550;
}
);
rightKerningGroup = P;
unicode = 0050;
},
{
glyphname = Thorn;
lastChange = "2018-04-09 20:03:12 +0000";
layers = (
{
background = {
paths = (
{
closed = 1;
nodes = (
"100 700 LINE",
"100 0 LINE",
"200 0 LINE",
"200 700 LINE"
);
},
{
closed = 1;
nodes = (
"200 300 LINE",
"200 200 LINE",
"500 200 LINE",
"500 300 LINE"
);
},
{
closed = 1;
nodes = (
"200 600 LINE",
"200 500 LINE",
"500 500 LINE",
"500 600 LINE"
);
},
{
closed = 1;
nodes = (
"500 500 LINE",
"500 300 LINE",
"600 300 LINE",
"600 500 LINE"
);
}
);
};
layerId = "F98BA250-6091-4D70-9AF4-192CADB0E332";
paths = (
{
closed = 1;
nodes = (
"50 700 LINE",
"50 0 LINE",
"150 0 LINE",
"150 700 LINE"
);
},
{
closed = 1;
nodes = (
"150 300 LINE",
"150 200 LINE",
"450 200 LINE",
"450 300 LINE"
);
},
{
closed = 1;
nodes = (
"150 600 LINE",
"150 500 LINE",
"450 500 LINE",
"450 600 LINE"
);
},
{
closed = 1;
nodes = (
"450 500 LINE",
"450 300 LINE",
"550 300 LINE",
"550 500 LINE"
);
}
);
width = 600;
}
);
unicode = 00DE;
},
{
glyphname = Q;
lastChange = "2018-05-05 22:47:17 +0000";
layers = (
{
background = {
paths = (
{
closed = 1;
nodes = (
"100 600 LINE",
"100 100 LINE",
"200 100 LINE",
"200 600 LINE"
);
},
{
closed = 1;
nodes = (
"200 100 LINE",
"200 0 LINE",
"400 0 LINE",
"400 100 LINE"
);
},
{
closed = 1;
nodes = (
"400 200 LINE",
"400 100 LINE",
"500 100 LINE",
"500 200 LINE"
);
},
{
closed = 1;
nodes = (
"500 100 LINE",
"500 0 LINE",
"600 0 LINE",
"600 100 LINE"
);
},
{
closed = 1;
nodes = (
"300 300 LINE",
"300 200 LINE",
"400 200 LINE",
"400 300 LINE"
);
},
{
closed = 1;
nodes = (
"500 600 LINE",
"500 200 LINE",
"600 200 LINE",
"600 600 LINE"
);
},
{
closed = 1;
nodes = (
"200 700 LINE",
"200 600 LINE",
"500 600 LINE",
"500 700 LINE"
);
}
);
};
layerId = "F98BA250-6091-4D70-9AF4-192CADB0E332";
paths = (
{
closed = 1;
nodes = (
"650 200 OFFCURVE",
"675 275 OFFCURVE",
"675 350 CURVE",
"675 550 OFFCURVE",
"550 700 OFFCURVE",
"350 700 CURVE",
"150 700 OFFCURVE",
"25 550 OFFCURVE",
"25 350 CURVE",
"25 150 OFFCURVE",
"150 0 OFFCURVE",
"350 0 CURVE",
"450 0 LINE",
"450 100 LINE",
"350 100 LINE",
"225 100 OFFCURVE",
"125 200 OFFCURVE",
"125 350 CURVE",
"125 500 OFFCURVE",
"225 600 OFFCURVE",
"350 600 CURVE",
"475 600 OFFCURVE",
"575 500 OFFCURVE",
"575 350 CURVE",
"575 275 OFFCURVE",
"550 200 OFFCURVE",
"550 200 CURVE",
"650 200 LINE"
);
},
{
closed = 1;
nodes = (
"550 0 LINE",
"650 0 LINE",
"650 100 LINE",
"550 100 LINE"
);
},
{
closed = 1;
nodes = (
"450 100 LINE",
"550 100 LINE",
"550 200 LINE",
"450 200 LINE"
);
},
{
closed = 1;
nodes = (
"350 200 LINE",
"450 200 LINE",
"450 300 LINE",
"350 300 LINE"
);
}
);
width = 700;
}
);
leftKerningGroup = O;
rightKerningGroup = Q;
unicode = 0051;
},
{
glyphname = R;
lastChange = "2018-05-11 00:37:42 +0000";
layers = (
{
background = {
paths = (
{
closed = 1;
nodes = (
"50 700 LINE",
"50 0 LINE",
"150 0 LINE",
"150 700 LINE"
);
},
{
closed = 1;
nodes = (
"250 300 LINE",
"250 200 LINE",
"350 200 LINE",
"350 300 LINE"
);
},
{
closed = 1;
nodes = (
"350 200 LINE",
"350 100 LINE",
"450 100 LINE",
"450 200 LINE"
);
},
{
closed = 1;
nodes = (
"450 100 LINE",
"450 0 LINE",
"550 0 LINE",
"550 100 LINE"
);
},
{
closed = 1;
nodes = (
"150 400 LINE",
"150 300 LINE",
"450 300 LINE",
"450 400 LINE"
);
},
{
closed = 1;
nodes = (
"150 700 LINE",
"150 600 LINE",
"450 600 LINE",
"450 700 LINE"
);
},
{
closed = 1;
nodes = (
"450 600 LINE",
"450 400 LINE",
"550 400 LINE",
"550 600 LINE"
);
}
);
};
layerId = "F98BA250-6091-4D70-9AF4-192CADB0E332";
paths = (
{
closed = 1;
nodes = (
"300 300 LINE",
"450 300 OFFCURVE",
"525 375 OFFCURVE",
"525 500 CURVE",
"525 625 OFFCURVE",
"450 700 OFFCURVE",
"300 700 CURVE",
"150 700 LINE",
"150 600 LINE",
"300 600 LINE",
"375 600 OFFCURVE",
"425 575 OFFCURVE",
"425 500 CURVE",
"425 425 OFFCURVE",
"375 400 OFFCURVE",
"300 400 CURVE",
"150 400 LINE",
"150 300 LINE"
);
},
{
closed = 1;
nodes = (
"150 0 LINE",
"150 700 LINE",
"50 700 LINE",
"50 0 LINE"
);
},
{
closed = 1;
nodes = (
"525 0 LINE",
"275 375 LINE",
"250 375 LINE",
"250 225 LINE",
"400 0 LINE"
);
}
);
width = 550;
}
);
rightKerningGroup = R;
unicode = 0052;
},
{
glyphname = S;
lastChange = "2018-05-09 10:33:27 +0000";
layers = (
{
layerId = "F98BA250-6091-4D70-9AF4-192CADB0E332";
paths = (
{
closed = 1;
nodes = (
"475 425 OFFCURVE",
"125 375 OFFCURVE",
"125 500 CURVE SMOOTH",
"125 550 OFFCURVE",
"150 600 OFFCURVE",
"250 600 CURVE",
"350 600 OFFCURVE",
"450 550 OFFCURVE",
"450 550 CURVE",
"450 650 LINE",
"450 650 OFFCURVE",
"375 700 OFFCURVE",
"250 700 CURVE",
"125 700 OFFCURVE",
"25 625 OFFCURVE",
"25 500 CURVE SMOOTH",
"25 275 OFFCURVE",
"375 325 OFFCURVE",
"375 200 CURVE SMOOTH",
"375 150 OFFCURVE",
"350 100 OFFCURVE",
"250 100 CURVE",
"150 100 OFFCURVE",
"50 150 OFFCURVE",
"50 150 CURVE",
"50 50 LINE",
"50 50 OFFCURVE",
"125 0 OFFCURVE",
"250 0 CURVE",
"375 0 OFFCURVE",
"475 75 OFFCURVE",
"475 200 CURVE SMOOTH"
);
}
);
width = 500;
}
);
leftKerningGroup = S;
rightKerningGroup = S;
unicode = 0053;
},
{
glyphname = T;
lastChange = "2018-05-15 23:21:55 +0000";
layers = (
{
background = {
paths = (
{
closed = 1;
nodes = (
"250 600 LINE",
"250 0 LINE",
"350 0 LINE",
"350 600 LINE"
);
},
{
closed = 1;
nodes = (
"50 700 LINE",
"50 600 LINE",
"550 600 LINE",
"550 700 LINE"
);
}
);
};
layerId = "F98BA250-6091-4D70-9AF4-192CADB0E332";
paths = (
{
closed = 1;
nodes = (
"250 600 LINE",
"250 0 LINE",
"350 0 LINE",
"350 600 LINE"
);
},
{
closed = 1;
nodes = (
"50 700 LINE",
"50 600 LINE",
"550 600 LINE",
"550 700 LINE"
);
}
);
width = 600;
}
);
leftKerningGroup = T;
rightKerningGroup = T;
unicode = 0054;
},
{
glyphname = U;
lastChange = "2018-04-09 20:03:12 +0000";
layers = (
{
background = {
paths = (
{
closed = 1;
nodes = (
"500 700 LINE",
"500 100 LINE",
"600 100 LINE",
"600 700 LINE"
);
},
{
closed = 1;
nodes = (
"200 100 LINE",
"200 0 LINE",
"500 0 LINE",
"500 100 LINE"
);
},
{
closed = 1;
nodes = (
"100 700 LINE",
"100 100 LINE",
"200 100 LINE",
"200 700 LINE"
);
}
);
};
layerId = "F98BA250-6091-4D70-9AF4-192CADB0E332";
paths = (
{
closed = 1;
nodes = (
"450 700 LINE",
"450 275 LINE",
"450 175 OFFCURVE",
"400 100 OFFCURVE",
"300 100 CURVE",
"200 100 OFFCURVE",
"150 175 OFFCURVE",
"150 275 CURVE",
"150 700 LINE",
"50 700 LINE",
"50 275 LINE",
"50 125 OFFCURVE",
"125 0 OFFCURVE",
"300 0 CURVE",
"475 0 OFFCURVE",
"550 125 OFFCURVE",
"550 275 CURVE",
"550 700 LINE"
);
}
);
width = 600;
}
);
unicode = 0055;
},
{
glyphname = Uacute;
lastChange = "2018-04-09 20:03:12 +0000";
layers = (
{
background = {
components = (
{
name = acute;
}
);
paths = (
{
closed = 1;
nodes = (
"500 400 LINE",
"500 100 LINE",
"600 100 LINE",
"600 400 LINE"
);
},
{
closed = 1;
nodes = (
"200 100 LINE",
"200 0 LINE",
"500 0 LINE",
"500 100 LINE"
);
},
{
closed = 1;
nodes = (
"100 400 LINE",
"100 100 LINE",
"200 100 LINE",
"200 400 LINE"
);
}
);
};
layerId = "F98BA250-6091-4D70-9AF4-192CADB0E332";
paths = (
{
closed = 1;
nodes = (
"450 400 LINE",
"450 275 LINE",
"450 175 OFFCURVE",
"400 100 OFFCURVE",
"300 100 CURVE",
"200 100 OFFCURVE",
"150 175 OFFCURVE",
"150 275 CURVE",
"150 400 LINE",
"50 400 LINE",
"50 275 LINE",
"50 125 OFFCURVE",
"125 0 OFFCURVE",
"300 0 CURVE",
"475 0 OFFCURVE",
"550 125 OFFCURVE",
"550 275 CURVE",
"550 400 LINE"
);
},
{
closed = 1;
nodes = (
"350 700 LINE",
"350 600 LINE",
"450 600 LINE",
"450 700 LINE"
);
},
{
closed = 1;
nodes = (
"150 600 LINE",
"150 500 LINE",
"350 500 LINE",
"350 600 LINE"
);
}
);
width = 600;
}
);
unicode = 00DA;
},
{
glyphname = Ucircumflex;
lastChange = "2018-04-09 20:03:12 +0000";
layers = (
{
background = {
components = (
{
name = circumflex;
}
);
paths = (
{
closed = 1;
nodes = (
"500 400 LINE",
"500 100 LINE",
"600 100 LINE",
"600 400 LINE"
);
},
{
closed = 1;
nodes = (
"200 100 LINE",
"200 0 LINE",
"500 0 LINE",
"500 100 LINE"
);
},
{
closed = 1;
nodes = (
"100 400 LINE",
"100 100 LINE",
"200 100 LINE",
"200 400 LINE"
);
}
);
};
components = (
{
name = circumflex;
transform = "{1, 0, 0, 1, 100, 0}";
}
);
layerId = "F98BA250-6091-4D70-9AF4-192CADB0E332";
paths = (
{
closed = 1;
nodes = (
"450 400 LINE",
"450 275 LINE",
"450 175 OFFCURVE",
"400 100 OFFCURVE",
"300 100 CURVE",
"200 100 OFFCURVE",
"150 175 OFFCURVE",
"150 275 CURVE",
"150 400 LINE",
"50 400 LINE",
"50 275 LINE",
"50 125 OFFCURVE",
"125 0 OFFCURVE",
"300 0 CURVE",
"475 0 OFFCURVE",
"550 125 OFFCURVE",
"550 275 CURVE",
"550 400 LINE"
);
}
);
width = 600;
}
);
unicode = 00DB;
},
{
glyphname = Udieresis;
lastChange = "2018-04-09 20:03:12 +0000";
layers = (
{
background = {
components = (
{
name = dieresis;
}
);
paths = (
{
closed = 1;
nodes = (
"500 500 LINE",
"500 100 LINE",
"600 100 LINE",
"600 500 LINE"
);
},
{
closed = 1;
nodes = (
"200 100 LINE",
"200 0 LINE",
"500 0 LINE",
"500 100 LINE"
);
},
{
closed = 1;
nodes = (
"100 500 LINE",
"100 100 LINE",
"200 100 LINE",
"200 500 LINE"
);
}
);
};
components = (
{
name = dieresis;
transform = "{1, 0, 0, 1, 100, 0}";
}
);
layerId = "F98BA250-6091-4D70-9AF4-192CADB0E332";
paths = (
{
closed = 1;
nodes = (
"450 500 LINE",
"450 275 LINE",
"450 175 OFFCURVE",
"400 100 OFFCURVE",
"300 100 CURVE",
"200 100 OFFCURVE",
"150 175 OFFCURVE",
"150 275 CURVE",
"150 500 LINE",
"50 500 LINE",
"50 275 LINE",
"50 125 OFFCURVE",
"125 0 OFFCURVE",
"300 0 CURVE",
"475 0 OFFCURVE",
"550 125 OFFCURVE",
"550 275 CURVE",
"550 500 LINE"
);
}
);
width = 600;
}
);
unicode = 00DC;
},
{
glyphname = Ugrave;
lastChange = "2018-04-09 20:03:12 +0000";
layers = (
{
background = {
components = (
{
name = grave;
}
);
paths = (
{
closed = 1;
nodes = (
"500 400 LINE",
"500 100 LINE",
"600 100 LINE",
"600 400 LINE"
);
},
{
closed = 1;
nodes = (
"200 100 LINE",
"200 0 LINE",
"500 0 LINE",
"500 100 LINE"
);
},
{
closed = 1;
nodes = (
"100 400 LINE",
"100 100 LINE",
"200 100 LINE",
"200 400 LINE"
);
}
);
};
layerId = "F98BA250-6091-4D70-9AF4-192CADB0E332";
paths = (
{
closed = 1;
nodes = (
"450 400 LINE",
"450 275 LINE",
"450 175 OFFCURVE",
"400 100 OFFCURVE",
"300 100 CURVE",
"200 100 OFFCURVE",
"150 175 OFFCURVE",
"150 275 CURVE",
"150 400 LINE",
"50 400 LINE",
"50 275 LINE",
"50 125 OFFCURVE",
"125 0 OFFCURVE",
"300 0 CURVE",
"475 0 OFFCURVE",
"550 125 OFFCURVE",
"550 275 CURVE",
"550 400 LINE"
);
},
{
closed = 1;
nodes = (
"250 600 LINE",
"250 500 LINE",
"450 500 LINE",
"450 600 LINE"
);
},
{
closed = 1;
nodes = (
"150 700 LINE",
"150 600 LINE",
"250 600 LINE",
"250 700 LINE"
);
}
);
width = 600;
}
);
unicode = 00D9;
},
{
glyphname = V;
lastChange = "2018-05-05 21:53:53 +0000";
layers = (
{
background = {
paths = (
{
closed = 1;
nodes = (
"475 700 LINE",
"475 400 LINE",
"575 400 LINE",
"575 700 LINE"
);
},
{
closed = 1;
nodes = (
"275 200 LINE",
"275 0 LINE",
"375 0 LINE",
"375 200 LINE"
);
},
{
closed = 1;
nodes = (
"175 400 LINE",
"175 200 LINE",
"275 200 LINE",
"275 400 LINE"
);
},
{
closed = 1;
nodes = (
"75 700 LINE",
"75 400 LINE",
"175 400 LINE",
"175 700 LINE"
);
},
{
closed = 1;
nodes = (
"375 400 LINE",
"375 200 LINE",
"475 200 LINE",
"475 400 LINE"
);
}
);
};
layerId = "F98BA250-6091-4D70-9AF4-192CADB0E332";
paths = (
{
closed = 1;
nodes = (
"625 700 LINE",
"525 700 LINE",
"300 0 LINE",
"400 0 LINE"
);
},
{
closed = 1;
nodes = (
"125 700 LINE",
"25 700 LINE",
"250 0 LINE",
"350 0 LINE"
);
}
);
width = 650;
}
);
leftKerningGroup = V;
rightKerningGroup = V;
unicode = 0056;
},
{
glyphname = W;
lastChange = "2018-05-14 12:30:42 +0000";
layers = (
{
background = {
paths = (
{
closed = 1;
nodes = (
"475 700 LINE",
"475 100 LINE",
"575 100 LINE",
"575 700 LINE"
);
},
{
closed = 1;
nodes = (
"175 100 LINE",
"175 0 LINE",
"275 0 LINE",
"275 100 LINE"
);
},
{
closed = 1;
nodes = (
"375 100 LINE",
"375 0 LINE",
"475 0 LINE",
"475 100 LINE"
);
},
{
closed = 1;
nodes = (
"75 700 LINE",
"75 100 LINE",
"175 100 LINE",
"175 700 LINE"
);
},
{
closed = 1;
nodes = (
"275 400 LINE",
"275 100 LINE",
"375 100 LINE",
"375 400 LINE"
);
}
);
};
layerId = "F98BA250-6091-4D70-9AF4-192CADB0E332";
paths = (
{
closed = 1;
nodes = (
"525 700 LINE",
"475 0 LINE",
"575 0 LINE",
"625 700 LINE"
);
},
{
closed = 1;
nodes = (
"25 700 LINE",
"75 0 LINE",
"175 0 LINE",
"125 700 LINE"
);
},
{
closed = 1;
nodes = (
"375 400 LINE",
"275 400 LINE",
"100 0 LINE",
"175 0 LINE",
"325 275 LINE",
"475 0 LINE",
"550 0 LINE"
);
}
);
width = 650;
}
);
leftKerningGroup = W;
unicode = 0057;
},
{
glyphname = X;
lastChange = "2018-05-15 23:16:37 +0000";
layers = (
{
background = {
paths = (
{
closed = 1;
nodes = (
"275 300 LINE",
"375 300 LINE",
"375 400 LINE",
"275 400 LINE"
);
},
{
closed = 1;
nodes = (
"175 400 LINE",
"275 400 LINE",
"275 500 LINE",
"175 500 LINE"
);
},
{
closed = 1;
nodes = (
"375 400 LINE",
"475 400 LINE",
"475 500 LINE",
"375 500 LINE"
);
},
{
closed = 1;
nodes = (
"475 500 LINE",
"575 500 LINE",
"575 700 LINE",
"475 700 LINE"
);
},
{
closed = 1;
nodes = (
"75 500 LINE",
"175 500 LINE",
"175 700 LINE",
"75 700 LINE"
);
},
{
closed = 1;
nodes = (
"175 200 LINE",
"275 200 LINE",
"275 300 LINE",
"175 300 LINE"
);
},
{
closed = 1;
nodes = (
"375 200 LINE",
"475 200 LINE",
"475 300 LINE",
"375 300 LINE"
);
},
{
closed = 1;
nodes = (
"475 0 LINE",
"575 0 LINE",
"575 200 LINE",
"475 200 LINE"
);
},
{
closed = 1;
nodes = (
"75 0 LINE",
"175 0 LINE",
"175 200 LINE",
"75 200 LINE"
);
}
);
};
layerId = "F98BA250-6091-4D70-9AF4-192CADB0E332";
paths = (
{
closed = 1;
nodes = (
"175 475 LINE",
"275 350 LINE",
"500 0 LINE",
"625 0 LINE",
"475 225 LINE",
"375 350 LINE",
"150 700 LINE",
"25 700 LINE"
);
},
{
closed = 1;
nodes = (
"500 700 LINE",
"275 350 LINE",
"175 225 LINE",
"25 0 LINE",
"150 0 LINE",
"375 350 LINE",
"475 475 LINE",
"625 700 LINE"
);
}
);
width = 650;
}
);
rightKerningGroup = X;
unicode = 0058;
},
{
glyphname = Y;
lastChange = "2018-05-05 22:12:26 +0000";
layers = (
{
background = {
paths = (
{
closed = 1;
nodes = (
"500 700 LINE",
"500 500 LINE",
"600 500 LINE",
"600 700 LINE"
);
},
{
closed = 1;
nodes = (
"300 400 LINE",
"300 0 LINE",
"400 0 LINE",
"400 400 LINE"
);
},
{
closed = 1;
nodes = (
"200 500 LINE",
"200 400 LINE",
"300 400 LINE",
"300 500 LINE"
);
},
{
closed = 1;
nodes = (
"100 700 LINE",
"100 500 LINE",
"200 500 LINE",
"200 700 LINE"
);
},
{
closed = 1;
nodes = (
"400 500 LINE",
"400 400 LINE",
"500 400 LINE",
"500 500 LINE"
);
}
);
};
layerId = "F98BA250-6091-4D70-9AF4-192CADB0E332";
paths = (
{
closed = 1;
nodes = (
"350 450 LINE",
"150 700 LINE",
"25 700 LINE",
"325 325 LINE",
"300 375 LINE",
"300 0 LINE",
"400 0 LINE",
"400 375 LINE",
"375 325 LINE",
"675 700 LINE",
"550 700 LINE"
);
}
);
width = 700;
}
);
leftKerningGroup = Y;
rightKerningGroup = Y;
unicode = 0059;
},
{
glyphname = Yacute;
lastChange = "2018-04-09 20:03:12 +0000";
layers = (
{
background = {
components = (
{
name = acute;
transform = "{1, 0, 0, 1, -100, 0}";
}
);
paths = (
{
closed = 1;
nodes = (
"400 500 LINE",
"400 300 LINE",
"500 300 LINE",
"500 500 LINE"
);
},
{
closed = 1;
nodes = (
"200 200 LINE",
"200 0 LINE",
"300 0 LINE",
"300 200 LINE"
);
},
{
closed = 1;
nodes = (
"100 300 LINE",
"100 200 LINE",
"200 200 LINE",
"200 300 LINE"
);
},
{
closed = 1;
nodes = (
"0 500 LINE",
"0 300 LINE",
"100 300 LINE",
"100 500 LINE"
);
},
{
closed = 1;
nodes = (
"300 300 LINE",
"300 200 LINE",
"400 200 LINE",
"400 300 LINE"
);
}
);
};
layerId = "F98BA250-6091-4D70-9AF4-192CADB0E332";
paths = (
{
closed = 1;
nodes = (
"300 700 LINE",
"300 600 LINE",
"400 600 LINE",
"400 700 LINE"
);
},
{
closed = 1;
nodes = (
"100 600 LINE",
"100 500 LINE",
"300 500 LINE",
"300 600 LINE"
);
},
{
closed = 1;
nodes = (
"375 400 LINE",
"225 200 LINE",
"275 200 LINE",
"125 400 LINE",
"0 400 LINE",
"200 150 LINE",
"200 0 LINE",
"300 0 LINE",
"300 150 LINE",
"500 400 LINE"
);
}
);
width = 500;
}
);
unicode = 00DD;
},
{
glyphname = Ycircumflex;
lastChange = "2018-04-09 20:03:12 +0000";
layers = (
{
background = {
components = (
{
name = circumflex;
transform = "{1, 0, 0, 1, -100, 0}";
}
);
paths = (
{
closed = 1;
nodes = (
"400 400 LINE",
"400 300 LINE",
"500 300 LINE",
"500 400 LINE"
);
},
{
closed = 1;
nodes = (
"200 200 LINE",
"200 0 LINE",
"300 0 LINE",
"300 200 LINE"
);
},
{
closed = 1;
nodes = (
"100 300 LINE",
"100 200 LINE",
"200 200 LINE",
"200 300 LINE"
);
},
{
closed = 1;
nodes = (
"0 400 LINE",
"0 300 LINE",
"100 300 LINE",
"100 400 LINE"
);
},
{
closed = 1;
nodes = (
"300 300 LINE",
"300 200 LINE",
"400 200 LINE",
"400 300 LINE"
);
}
);
};
components = (
{
name = circumflex;
transform = "{1, 0, 0, 1, 50, 0}";
}
);
layerId = "F98BA250-6091-4D70-9AF4-192CADB0E332";
paths = (
{
closed = 1;
nodes = (
"375 400 LINE",
"225 200 LINE",
"275 200 LINE",
"125 400 LINE",
"0 400 LINE",
"200 150 LINE",
"200 0 LINE",
"300 0 LINE",
"300 150 LINE",
"500 400 LINE"
);
}
);
width = 500;
}
);
unicode = 0176;
},
{
glyphname = Ydieresis;
lastChange = "2018-05-09 00:26:58 +0000";
layers = (
{
background = {
components = (
{
name = dieresis;
transform = "{1, 0, 0, 1, -50, 0}";
}
);
paths = (
{
closed = 1;
nodes = (
"450 500 LINE",
"450 300 LINE",
"550 300 LINE",
"550 500 LINE"
);
},
{
closed = 1;
nodes = (
"250 200 LINE",
"250 0 LINE",
"350 0 LINE",
"350 200 LINE"
);
},
{
closed = 1;
nodes = (
"150 300 LINE",
"150 200 LINE",
"250 200 LINE",
"250 300 LINE"
);
},
{
closed = 1;
nodes = (
"50 500 LINE",
"50 300 LINE",
"150 300 LINE",
"150 500 LINE"
);
},
{
closed = 1;
nodes = (
"350 300 LINE",
"350 200 LINE",
"450 200 LINE",
"450 300 LINE"
);
}
);
};
components = (
{
name = dieresis;
transform = "{1, 0, 0, 1, 100, 0}";
}
);
layerId = "F98BA250-6091-4D70-9AF4-192CADB0E332";
paths = (
{
closed = 1;
nodes = (
"450 500 LINE",
"275 275 LINE",
"325 275 LINE",
"150 500 LINE",
"25 500 LINE",
"250 225 LINE",
"250 0 LINE",
"350 0 LINE",
"350 225 LINE",
"575 500 LINE"
);
}
);
width = 600;
}
);
unicode = 0178;
},
{
glyphname = Ygrave;
lastChange = "2018-04-09 20:03:12 +0000";
layers = (
{
background = {
components = (
{
name = grave;
transform = "{1, 0, 0, 1, -100, 0}";
}
);
paths = (
{
closed = 1;
nodes = (
"400 500 LINE",
"400 300 LINE",
"500 300 LINE",
"500 500 LINE"
);
},
{
closed = 1;
nodes = (
"200 200 LINE",
"200 0 LINE",
"300 0 LINE",
"300 200 LINE"
);
},
{
closed = 1;
nodes = (
"100 300 LINE",
"100 200 LINE",
"200 200 LINE",
"200 300 LINE"
);
},
{
closed = 1;
nodes = (
"0 500 LINE",
"0 300 LINE",
"100 300 LINE",
"100 500 LINE"
);
},
{
closed = 1;
nodes = (
"300 300 LINE",
"300 200 LINE",
"400 200 LINE",
"400 300 LINE"
);
}
);
};
layerId = "F98BA250-6091-4D70-9AF4-192CADB0E332";
paths = (
{
closed = 1;
nodes = (
"200 600 LINE",
"200 500 LINE",
"400 500 LINE",
"400 600 LINE"
);
},
{
closed = 1;
nodes = (
"100 700 LINE",
"100 600 LINE",
"200 600 LINE",
"200 700 LINE"
);
},
{
closed = 1;
nodes = (
"375 400 LINE",
"225 200 LINE",
"275 200 LINE",
"125 400 LINE",
"0 400 LINE",
"200 150 LINE",
"200 0 LINE",
"300 0 LINE",
"300 150 LINE",
"500 400 LINE"
);
}
);
width = 500;
}
);
unicode = 1EF2;
},
{
glyphname = Z;
lastChange = "2018-04-09 20:03:12 +0000";
layers = (
{
background = {
paths = (
{
closed = 1;
nodes = (
"50 700 LINE",
"50 600 LINE",
"550 600 LINE",
"550 700 LINE"
);
},
{
closed = 1;
nodes = (
"50 200 LINE",
"50 100 LINE",
"150 100 LINE",
"150 200 LINE"
);
},
{
closed = 1;
nodes = (
"50 100 LINE",
"50 0 LINE",
"550 0 LINE",
"550 100 LINE"
);
},
{
closed = 1;
nodes = (
"150 300 LINE",
"150 200 LINE",
"250 200 LINE",
"250 300 LINE"
);
},
{
closed = 1;
nodes = (
"250 400 LINE",
"250 300 LINE",
"350 300 LINE",
"350 400 LINE"
);
},
{
closed = 1;
nodes = (
"350 500 LINE",
"350 400 LINE",
"450 400 LINE",
"450 500 LINE"
);
},
{
closed = 1;
nodes = (
"450 600 LINE",
"450 500 LINE",
"550 500 LINE",
"550 600 LINE"
);
}
);
};
layerId = "F98BA250-6091-4D70-9AF4-192CADB0E332";
paths = (
{
closed = 1;
nodes = (
"50 700 LINE",
"50 600 LINE",
"425 600 LINE",
"50 100 LINE",
"50 0 LINE",
"550 0 LINE",
"550 100 LINE",
"175 100 LINE",
"550 600 LINE",
"550 700 LINE"
);
}
);
width = 600;
}
);
leftKerningGroup = Z;
rightKerningGroup = Z;
unicode = 005A;
},
{
glyphname = Hsmall;
lastChange = "2018-05-12 14:07:48 +0000";
layers = (
{
layerId = "F98BA250-6091-4D70-9AF4-192CADB0E332";
paths = (
{
closed = 1;
nodes = (
"50 200 LINE",
"150 200 LINE",
"150 700 LINE",
"50 700 LINE"
);
},
{
closed = 1;
nodes = (
"50 400 LINE",
"450 400 LINE",
"450 500 LINE",
"50 500 LINE"
);
},
{
closed = 1;
nodes = (
"350 200 LINE",
"450 200 LINE",
"450 700 LINE",
"350 700 LINE"
);
}
);
width = 500;
}
);
unicode = 029C;
},
{
glyphname = a;
lastChange = "2018-05-05 22:15:19 +0000";
layers = (
{
layerId = "F98BA250-6091-4D70-9AF4-192CADB0E332";
paths = (
{
closed = 1;
nodes = (
"125 500 OFFCURVE",
"25 400 OFFCURVE",
"25 250 CURVE",
"25 100 OFFCURVE",
"125 0 OFFCURVE",
"250 0 CURVE SMOOTH",
"350 0 OFFCURVE",
"400 75 OFFCURVE",
"400 200 CURVE",
"400 300 LINE",
"400 425 OFFCURVE",
"350 500 OFFCURVE",
"250 500 CURVE SMOOTH"
);
},
{
closed = 1;
nodes = (
"350 400 OFFCURVE",
"400 350 OFFCURVE",
"400 250 CURVE",
"400 150 OFFCURVE",
"350 100 OFFCURVE",
"275 100 CURVE SMOOTH",
"200 100 OFFCURVE",
"125 150 OFFCURVE",
"125 250 CURVE",
"125 350 OFFCURVE",
"200 400 OFFCURVE",
"275 400 CURVE SMOOTH"
);
},
{
closed = 1;
nodes = (
"400 500 LINE",
"400 0 LINE",
"500 0 LINE",
"500 500 LINE"
);
}
);
width = 550;
}
);
leftKerningGroup = o;
unicode = 0061;
},
{
glyphname = ae;
lastChange = "2018-04-09 20:03:12 +0000";
layers = (
{
background = {
paths = (
{
closed = 1;
nodes = (
"300 0 LINE",
"400 0 LINE",
"400 500 LINE",
"300 500 LINE"
);
},
{
closed = 1;
nodes = (
"400 0 LINE",
"700 0 LINE",
"700 100 LINE",
"400 100 LINE"
);
},
{
closed = 1;
nodes = (
"400 200 LINE",
"600 200 LINE",
"600 300 LINE",
"400 300 LINE"
);
},
{
closed = 1;
nodes = (
"600 300 LINE",
"700 300 LINE",
"700 400 LINE",
"600 400 LINE"
);
},
{
closed = 1;
nodes = (
"400 400 LINE",
"600 400 LINE",
"600 500 LINE",
"400 500 LINE"
);
},
{
closed = 1;
nodes = (
"200 400 LINE",
"300 400 LINE",
"300 500 LINE",
"200 500 LINE"
);
},
{
closed = 1;
nodes = (
"200 200 LINE",
"300 200 LINE",
"300 300 LINE",
"200 300 LINE"
);
},
{
closed = 1;
nodes = (
"100 100 LINE",
"200 100 LINE",
"200 200 LINE",
"100 200 LINE"
);
},
{
closed = 1;
nodes = (
"200 0 LINE",
"300 0 LINE",
"300 100 LINE",
"200 100 LINE"
);
}
);
};
layerId = "F98BA250-6091-4D70-9AF4-192CADB0E332";
paths = (
{
closed = 1;
nodes = (
"250 500 LINE",
"250 0 LINE",
"350 0 LINE",
"350 500 LINE"
);
},
{
closed = 1;
nodes = (
"50 200 LINE",
"50 100 LINE",
"150 100 LINE",
"150 200 LINE"
);
},
{
closed = 1;
nodes = (
"150 100 LINE",
"150 0 LINE",
"250 0 LINE",
"250 100 LINE"
);
},
{
closed = 1;
nodes = (
"150 300 LINE",
"150 200 LINE",
"250 200 LINE",
"250 300 LINE"
);
},
{
closed = 1;
nodes = (
"350 100 LINE",
"350 0 LINE",
"650 0 LINE",
"650 100 LINE"
);
},
{
closed = 1;
nodes = (
"150 500 LINE",
"150 400 LINE",
"250 400 LINE",
"250 500 LINE"
);
},
{
closed = 1;
nodes = (
"350 300 LINE",
"350 200 LINE",
"550 200 LINE",
"550 300 LINE"
);
},
{
closed = 1;
nodes = (
"350 500 LINE",
"350 400 LINE",
"550 400 LINE",
"550 500 LINE"
);
},
{
closed = 1;
nodes = (
"550 400 LINE",
"550 300 LINE",
"650 300 LINE",
"650 400 LINE"
);
}
);
width = 700;
}
);
unicode = 00E6;
},
{
glyphname = b;
lastChange = "2018-04-09 20:03:12 +0000";
layers = (
{
background = {
paths = (
{
closed = 1;
nodes = (
"50 700 LINE",
"50 0 LINE",
"150 0 LINE",
"150 700 LINE"
);
},
{
closed = 1;
nodes = (
"150 100 LINE",
"150 0 LINE",
"450 0 LINE",
"450 100 LINE"
);
},
{
closed = 1;
nodes = (
"450 400 LINE",
"450 100 LINE",
"550 100 LINE",
"550 400 LINE"
);
},
{
closed = 1;
nodes = (
"150 500 LINE",
"150 400 LINE",
"450 400 LINE",
"450 500 LINE"
);
}
);
};
layerId = "F98BA250-6091-4D70-9AF4-192CADB0E332";
paths = (
{
closed = 1;
nodes = (
"150 0 LINE",
"150 700 LINE",
"50 700 LINE",
"50 0 LINE"
);
},
{
closed = 1;
nodes = (
"375 0 OFFCURVE",
"475 100 OFFCURVE",
"475 250 CURVE",
"475 400 OFFCURVE",
"375 500 OFFCURVE",
"225 500 CURVE",
"150 500 OFFCURVE",
"100 475 OFFCURVE",
"100 475 CURVE",
"100 375 LINE",
"100 375 OFFCURVE",
"175 400 OFFCURVE",
"225 400 CURVE",
"300 400 OFFCURVE",
"375 350 OFFCURVE",
"375 250 CURVE",
"375 150 OFFCURVE",
"300 100 OFFCURVE",
"225 100 CURVE",
"150 100 LINE",
"150 0 LINE",
"225 0 LINE"
);
}
);
width = 500;
}
);
unicode = 0062;
},
{
glyphname = c;
lastChange = "2018-04-09 20:03:12 +0000";
layers = (
{
background = {
paths = (
{
closed = 1;
nodes = (
"150 500 LINE",
"150 400 LINE",
"450 400 LINE",
"450 500 LINE"
);
},
{
closed = 1;
nodes = (
"50 400 LINE",
"50 100 LINE",
"150 100 LINE",
"150 400 LINE"
);
},
{
closed = 1;
nodes = (
"150 100 LINE",
"150 0 LINE",
"450 0 LINE",
"450 100 LINE"
);
}
);
};
layerId = "F98BA250-6091-4D70-9AF4-192CADB0E332";
paths = (
{
closed = 1;
nodes = (
"125 500 OFFCURVE",
"25 400 OFFCURVE",
"25 250 CURVE",
"25 100 OFFCURVE",
"125 0 OFFCURVE",
"275 0 CURVE",
"350 0 OFFCURVE",
"400 25 OFFCURVE",
"400 25 CURVE",
"400 125 LINE",
"400 125 OFFCURVE",
"325 100 OFFCURVE",
"275 100 CURVE",
"200 100 OFFCURVE",
"125 150 OFFCURVE",
"125 250 CURVE",
"125 350 OFFCURVE",
"200 400 OFFCURVE",
"275 400 CURVE",
"325 400 OFFCURVE",
"400 375 OFFCURVE",
"400 375 CURVE",
"400 475 LINE",
"400 475 OFFCURVE",
"350 500 OFFCURVE",
"275 500 CURVE"
);
}
);
width = 450;
}
);
leftKerningGroup = o;
unicode = 0063;
},
{
glyphname = d;
lastChange = "2018-04-09 20:03:12 +0000";
layers = (
{
background = {
paths = (
{
closed = 1;
nodes = (
"350 700 LINE",
"350 0 LINE",
"450 0 LINE",
"450 700 LINE"
);
},
{
closed = 1;
nodes = (
"-50 400 LINE",
"-50 100 LINE",
"50 100 LINE",
"50 400 LINE"
);
},
{
closed = 1;
nodes = (
"50 100 LINE",
"50 0 LINE",
"350 0 LINE",
"350 100 LINE"
);
},
{
closed = 1;
nodes = (
"50 500 LINE",
"50 400 LINE",
"350 400 LINE",
"350 500 LINE"
);
}
);
};
layerId = "F98BA250-6091-4D70-9AF4-192CADB0E332";
paths = (
{
closed = 1;
nodes = (
"450 700 LINE",
"350 700 LINE",
"350 0 LINE",
"450 0 LINE"
);
},
{
closed = 1;
nodes = (
"350 0 LINE",
"350 100 LINE",
"275 100 LINE",
"200 100 OFFCURVE",
"125 150 OFFCURVE",
"125 250 CURVE",
"125 350 OFFCURVE",
"200 400 OFFCURVE",
"275 400 CURVE",
"325 400 OFFCURVE",
"400 375 OFFCURVE",
"400 375 CURVE",
"400 475 LINE",
"400 475 OFFCURVE",
"350 500 OFFCURVE",
"275 500 CURVE",
"125 500 OFFCURVE",
"25 400 OFFCURVE",
"25 250 CURVE",
"25 100 OFFCURVE",
"125 0 OFFCURVE",
"275 0 CURVE"
);
}
);
width = 500;
}
);
leftKerningGroup = o;
unicode = 0064;
},
{
glyphname = eth;
lastChange = "2018-04-09 20:03:12 +0000";
layers = (
{
background = {
paths = (
{
closed = 1;
nodes = (
"500 500 LINE",
"500 100 LINE",
"600 100 LINE",
"600 500 LINE"
);
},
{
closed = 1;
nodes = (
"100 300 LINE",
"100 100 LINE",
"200 100 LINE",
"200 300 LINE"
);
},
{
closed = 1;
nodes = (
"200 100 LINE",
"200 0 LINE",
"500 0 LINE",
"500 100 LINE"
);
},
{
closed = 1;
nodes = (
"200 400 LINE",
"200 300 LINE",
"400 300 LINE",
"400 400 LINE"
);
},
{
closed = 1;
nodes = (
"400 300 LINE",
"400 200 LINE",
"500 200 LINE",
"500 300 LINE"
);
},
{
closed = 1;
nodes = (
"200 600 LINE",
"200 500 LINE",
"300 500 LINE",
"300 600 LINE"
);
},
{
closed = 1;
nodes = (
"200 800 LINE",
"200 700 LINE",
"300 700 LINE",
"300 800 LINE"
);
},
{
closed = 1;
nodes = (
"300 700 LINE",
"300 600 LINE",
"400 600 LINE",
"400 700 LINE"
);
},
{
closed = 1;
nodes = (
"400 600 LINE",
"400 500 LINE",
"500 500 LINE",
"500 600 LINE"
);
},
{
closed = 1;
nodes = (
"400 800 LINE",
"400 700 LINE",
"500 700 LINE",
"500 800 LINE"
);
}
);
};
layerId = "F98BA250-6091-4D70-9AF4-192CADB0E332";
paths = (
{
closed = 1;
nodes = (
"450 500 LINE",
"450 100 LINE",
"550 100 LINE",
"550 500 LINE"
);
},
{
closed = 1;
nodes = (
"50 300 LINE",
"50 100 LINE",
"150 100 LINE",
"150 300 LINE"
);
},
{
closed = 1;
nodes = (
"150 100 LINE",
"150 0 LINE",
"450 0 LINE",
"450 100 LINE"
);
},
{
closed = 1;
nodes = (
"150 400 LINE",
"150 300 LINE",
"350 300 LINE",
"350 400 LINE"
);
},
{
closed = 1;
nodes = (
"350 300 LINE",
"350 200 LINE",
"450 200 LINE",
"450 300 LINE"
);
},
{
closed = 1;
nodes = (
"150 600 LINE",
"150 500 LINE",
"250 500 LINE",
"250 600 LINE"
);
},
{
closed = 1;
nodes = (
"150 800 LINE",
"150 700 LINE",
"250 700 LINE",
"250 800 LINE"
);
},
{
closed = 1;
nodes = (
"250 700 LINE",
"250 600 LINE",
"350 600 LINE",
"350 700 LINE"
);
},
{
closed = 1;
nodes = (
"350 600 LINE",
"350 500 LINE",
"450 500 LINE",
"450 600 LINE"
);
},
{
closed = 1;
nodes = (
"350 800 LINE",
"350 700 LINE",
"450 700 LINE",
"450 800 LINE"
);
}
);
width = 600;
}
);
unicode = 00F0;
},
{
glyphname = e;
lastChange = "2018-05-09 13:01:33 +0000";
layers = (
{
background = {
paths = (
{
closed = 1;
nodes = (
"50 100 OFFCURVE",
"125 0 OFFCURVE",
"250 0 CURVE",
"425 0 LINE",
"425 100 LINE",
"150 100 LINE",
"150 400 LINE",
"50 250 LINE"
);
},
{
closed = 1;
nodes = (
"450 300 LINE",
"450 450 OFFCURVE",
"375 500 OFFCURVE",
"250 500 CURVE",
"125 500 OFFCURVE",
"50 400 OFFCURVE",
"50 250 CURVE",
"150 400 LINE",
"350 400 LINE",
"350 300 LINE",
"125 300 LINE",
"125 200 LINE",
"450 200 LINE"
);
}
);
};
layerId = "F98BA250-6091-4D70-9AF4-192CADB0E332";
paths = (
{
closed = 1;
nodes = (
"475 225 LINE",
"475 250 LINE",
"475 400 OFFCURVE",
"375 500 OFFCURVE",
"250 500 CURVE SMOOTH",
"125 500 OFFCURVE",
"25 400 OFFCURVE",
"25 250 CURVE SMOOTH",
"25 100 OFFCURVE",
"125 0 OFFCURVE",
"275 0 CURVE SMOOTH",
"375 0 OFFCURVE",
"425 50 OFFCURVE",
"425 50 CURVE",
"425 150 LINE",
"425 150 OFFCURVE",
"375 100 OFFCURVE",
"275 100 CURVE SMOOTH",
"200 100 OFFCURVE",
"125 150 OFFCURVE",
"125 250 CURVE SMOOTH",
"125 350 OFFCURVE",
"175 400 OFFCURVE",
"250 400 CURVE SMOOTH",
"325 400 OFFCURVE",
"375 350 OFFCURVE",
"375 250 CURVE",
"400 300 LINE",
"75 300 LINE",
"75 225 LINE"
);
}
);
width = 500;
}
);
leftKerningGroup = o;
rightKerningGroup = e;
unicode = 0065;
},
{
glyphname = f;
lastChange = "2018-05-15 09:11:06 +0000";
layers = (
{
background = {
paths = (
{
closed = 1;
nodes = (
"250 500 LINE",
"250 575 OFFCURVE",
"300 600 OFFCURVE",
"350 600 CURVE",
"400 600 OFFCURVE",
"450 575 OFFCURVE",
"450 575 CURVE",
"450 675 LINE",
"450 675 OFFCURVE",
"400 700 OFFCURVE",
"350 700 CURVE SMOOTH",
"225 700 OFFCURVE",
"150 625 OFFCURVE",
"150 500 CURVE",
"150 0 LINE",
"250 0 LINE"
);
},
{
closed = 1;
nodes = (
"50 300 LINE",
"400 300 LINE",
"400 400 LINE",
"50 400 LINE"
);
}
);
};
layerId = "F98BA250-6091-4D70-9AF4-192CADB0E332";
paths = (
{
closed = 1;
nodes = (
"250 600 LINE",
"400 600 LINE",
"400 700 LINE",
"350 700 LINE",
"225 700 OFFCURVE",
"150 625 OFFCURVE",
"150 500 CURVE",
"150 0 LINE",
"250 0 LINE"
);
},
{
closed = 1;
nodes = (
"400 300 LINE",
"400 400 LINE",
"50 400 LINE",
"50 300 LINE"
);
}
);
width = 450;
}
);
leftKerningGroup = f;
unicode = 0066;
},
{
glyphname = g;
lastChange = "2018-05-09 00:11:49 +0000";
layers = (
{
background = {
paths = (
{
closed = 1;
nodes = (
"350 400 LINE",
"350 -100 LINE",
"450 -100 LINE",
"450 400 LINE"
);
},
{
closed = 1;
nodes = (
"50 0 LINE",
"50 -100 LINE",
"150 -100 LINE",
"150 0 LINE"
);
},
{
closed = 1;
nodes = (
"150 -100 LINE",
"150 -200 LINE",
"350 -200 LINE",
"350 -100 LINE"
);
},
{
closed = 1;
nodes = (
"-50 400 LINE",
"-50 200 LINE",
"50 200 LINE",
"50 400 LINE"
);
},
{
closed = 1;
nodes = (
"50 200 LINE",
"50 100 LINE",
"350 100 LINE",
"350 200 LINE"
);
},
{
closed = 1;
nodes = (
"50 500 LINE",
"50 400 LINE",
"450 400 LINE",
"450 500 LINE"
);
}
);
};
layerId = "F98BA250-6091-4D70-9AF4-192CADB0E332";
paths = (
{
closed = 1;
nodes = (
"175 150 OFFCURVE",
"125 200 OFFCURVE",
"125 275 CURVE",
"125 350 OFFCURVE",
"175 400 OFFCURVE",
"250 400 CURVE",
"400 400 LINE",
"400 500 LINE",
"250 500 LINE",
"125 500 OFFCURVE",
"25 400 OFFCURVE",
"25 275 CURVE",
"25 150 OFFCURVE",
"125 50 OFFCURVE",
"250 50 CURVE",
"325 50 OFFCURVE",
"400 75 OFFCURVE",
"400 75 CURVE",
"400 175 LINE",
"400 175 OFFCURVE",
"300 150 OFFCURVE",
"250 150 CURVE"
);
},
{
closed = 1;
nodes = (
"375 -200 OFFCURVE",
"450 -125 OFFCURVE",
"450 0 CURVE",
"450 500 LINE",
"350 500 LINE",
"350 0 LINE",
"350 -50 OFFCURVE",
"325 -100 OFFCURVE",
"250 -100 CURVE",
"175 -100 OFFCURVE",
"100 0 OFFCURVE",
"100 0 CURVE",
"100 -125 LINE",
"100 -125 OFFCURVE",
"150 -200 OFFCURVE",
"250 -200 CURVE"
);
}
);
width = 500;
}
);
leftKerningGroup = o;
unicode = 0067;
},
{
glyphname = h;
lastChange = "2018-04-09 20:03:12 +0000";
layers = (
{
background = {
paths = (
{
closed = 1;
nodes = (
"100 700 LINE",
"100 0 LINE",
"200 0 LINE",
"200 700 LINE"
);
},
{
closed = 1;
nodes = (
"200 400 LINE",
"200 300 LINE",
"300 300 LINE",
"300 400 LINE"
);
},
{
closed = 1;
nodes = (
"500 400 LINE",
"500 0 LINE",
"600 0 LINE",
"600 400 LINE"
);
},
{
closed = 1;
nodes = (
"300 500 LINE",
"300 400 LINE",
"500 400 LINE",
"500 500 LINE"
);
}
);
};
layerId = "F98BA250-6091-4D70-9AF4-192CADB0E332";
paths = (
{
closed = 1;
nodes = (
"225 500 OFFCURVE",
"150 425 OFFCURVE",
"150 300 CURVE",
"150 250 LINE",
"150 350 OFFCURVE",
"200 400 OFFCURVE",
"275 400 CURVE SMOOTH",
"350 400 OFFCURVE",
"400 350 OFFCURVE",
"400 250 CURVE SMOOTH",
"400 0 LINE",
"500 0 LINE",
"500 300 LINE SMOOTH",
"500 425 OFFCURVE",
"425 500 OFFCURVE",
"325 500 CURVE SMOOTH"
);
},
{
closed = 1;
nodes = (
"50 700 LINE",
"50 0 LINE",
"150 0 LINE",
"150 700 LINE"
);
}
);
width = 550;
}
);
rightKerningGroup = n;
unicode = 0068;
},
{
glyphname = i;
lastChange = "2018-04-23 09:00:08 +0000";
layers = (
{
background = {
paths = (
{
closed = 1;
nodes = (
"400 500 LINE",
"400 0 LINE",
"500 0 LINE",
"500 500 LINE"
);
},
{
closed = 1;
nodes = (
"300 100 LINE",
"300 0 LINE",
"600 0 LINE",
"600 100 LINE"
);
},
{
closed = 1;
nodes = (
"300 500 LINE",
"300 400 LINE",
"400 400 LINE",
"400 500 LINE"
);
},
{
closed = 1;
nodes = (
"400 700 LINE",
"400 600 LINE",
"500 600 LINE",
"500 700 LINE"
);
}
);
};
layerId = "F98BA250-6091-4D70-9AF4-192CADB0E332";
paths = (
{
closed = 1;
nodes = (
"150 600 LINE",
"250 600 LINE",
"250 700 LINE",
"150 700 LINE"
);
},
{
closed = 1;
nodes = (
"150 0 LINE",
"250 0 LINE",
"250 500 LINE",
"150 500 LINE"
);
},
{
closed = 1;
nodes = (
"50 400 LINE",
"150 400 LINE",
"150 500 LINE",
"50 500 LINE"
);
},
{
closed = 1;
nodes = (
"50 0 LINE",
"350 0 LINE",
"350 100 LINE",
"50 100 LINE"
);
}
);
width = 400;
}
);
leftKerningGroup = r;
rightKerningGroup = i;
unicode = 0069;
},
{
glyphname = dotlessi;
lastChange = "2018-04-09 20:03:12 +0000";
layers = (
{
background = {
paths = (
{
closed = 1;
nodes = (
"300 400 LINE",
"300 100 LINE",
"400 100 LINE",
"400 400 LINE"
);
},
{
closed = 1;
nodes = (
"200 300 LINE",
"300 300 LINE",
"300 400 LINE",
"200 400 LINE"
);
},
{
closed = 1;
nodes = (
"200 0 LINE",
"500 0 LINE",
"500 100 LINE",
"200 100 LINE"
);
}
);
};
layerId = "F98BA250-6091-4D70-9AF4-192CADB0E332";
paths = (
{
closed = 1;
nodes = (
"150 400 LINE",
"150 100 LINE",
"250 100 LINE",
"250 400 LINE"
);
},
{
closed = 1;
nodes = (
"50 100 LINE",
"50 0 LINE",
"350 0 LINE",
"350 100 LINE"
);
},
{
closed = 1;
nodes = (
"50 400 LINE",
"50 300 LINE",
"150 300 LINE",
"150 400 LINE"
);
}
);
width = 400;
}
);
leftKerningGroup = r;
rightKerningGroup = i;
unicode = 0131;
},
{
glyphname = iacute;
lastChange = "2018-04-09 20:03:12 +0000";
layers = (
{
background = {
components = (
{
name = dotlessi;
},
{
name = acute;
}
);
};
components = (
{
name = dotlessi;
}
);
layerId = "F98BA250-6091-4D70-9AF4-192CADB0E332";
paths = (
{
closed = 1;
nodes = (
"250 700 LINE",
"250 600 LINE",
"350 600 LINE",
"350 700 LINE"
);
},
{
closed = 1;
nodes = (
"50 600 LINE",
"50 500 LINE",
"250 500 LINE",
"250 600 LINE"
);
}
);
width = 400;
}
);
leftKerningGroup = r;
rightKerningGroup = i;
unicode = 00ED;
},
{
glyphname = idieresis;
lastChange = "2018-04-09 20:03:12 +0000";
layers = (
{
background = {
components = (
{
name = dieresis;
transform = "{1, 0, 0, 1, -50, 0}";
}
);
paths = (
{
closed = 1;
nodes = (
"250 500 LINE",
"250 100 LINE",
"350 100 LINE",
"350 500 LINE"
);
},
{
closed = 1;
nodes = (
"150 400 LINE",
"250 400 LINE",
"250 500 LINE",
"150 500 LINE"
);
},
{
closed = 1;
nodes = (
"150 0 LINE",
"450 0 LINE",
"450 100 LINE",
"150 100 LINE"
);
}
);
};
components = (
{
name = dieresis;
}
);
layerId = "F98BA250-6091-4D70-9AF4-192CADB0E332";
paths = (
{
closed = 1;
nodes = (
"150 500 LINE",
"150 100 LINE",
"250 100 LINE",
"250 500 LINE"
);
},
{
closed = 1;
nodes = (
"50 100 LINE",
"50 0 LINE",
"350 0 LINE",
"350 100 LINE"
);
},
{
closed = 1;
nodes = (
"50 500 LINE",
"50 400 LINE",
"150 400 LINE",
"150 500 LINE"
);
}
);
width = 400;
}
);
leftKerningGroup = r;
rightKerningGroup = i;
unicode = 00EF;
},
{
glyphname = igrave;
lastChange = "2018-04-09 20:03:12 +0000";
layers = (
{
background = {
components = (
{
name = dotlessi;
},
{
name = grave;
}
);
};
components = (
{
name = dotlessi;
}
);
layerId = "F98BA250-6091-4D70-9AF4-192CADB0E332";
paths = (
{
closed = 1;
nodes = (
"150 600 LINE",
"150 500 LINE",
"350 500 LINE",
"350 600 LINE"
);
},
{
closed = 1;
nodes = (
"50 700 LINE",
"50 600 LINE",
"150 600 LINE",
"150 700 LINE"
);
}
);
width = 400;
}
);
leftKerningGroup = r;
rightKerningGroup = i;
unicode = 00EC;
},
{
glyphname = ij;
lastChange = "2018-04-09 20:03:12 +0000";
layers = (
{
background = {
paths = (
{
closed = 1;
nodes = (
"200 500 LINE",
"200 -100 LINE",
"300 -100 LINE",
"300 500 LINE"
);
},
{
closed = 1;
nodes = (
"300 -100 LINE",
"300 -200 LINE",
"500 -200 LINE",
"500 -100 LINE"
);
},
{
closed = 1;
nodes = (
"100 500 LINE",
"100 400 LINE",
"200 400 LINE",
"200 500 LINE"
);
},
{
closed = 1;
nodes = (
"500 400 LINE",
"500 -100 LINE",
"600 -100 LINE",
"600 400 LINE"
);
},
{
closed = 1;
nodes = (
"200 700 LINE",
"200 600 LINE",
"300 600 LINE",
"300 700 LINE"
);
},
{
closed = 1;
nodes = (
"400 500 LINE",
"400 400 LINE",
"600 400 LINE",
"600 500 LINE"
);
},
{
closed = 1;
nodes = (
"500 700 LINE",
"500 600 LINE",
"600 600 LINE",
"600 700 LINE"
);
}
);
};
layerId = "F98BA250-6091-4D70-9AF4-192CADB0E332";
paths = (
{
closed = 1;
nodes = (
"50 100 LINE",
"150 100 LINE",
"150 500 LINE",
"50 500 LINE"
);
},
{
closed = 1;
nodes = (
"350 600 LINE",
"450 600 LINE",
"450 700 LINE",
"350 700 LINE"
);
},
{
closed = 1;
nodes = (
"50 600 LINE",
"150 600 LINE",
"150 700 LINE",
"50 700 LINE"
);
},
{
closed = 1;
nodes = (
"350 500 LINE",
"350 50 LINE",
"350 -50 OFFCURVE",
"300 -100 OFFCURVE",
"225 -100 CURVE",
"125 -100 OFFCURVE",
"50 0 OFFCURVE",
"50 0 CURVE",
"50 -125 LINE",
"50 -125 OFFCURVE",
"100 -200 OFFCURVE",
"225 -200 CURVE",
"350 -200 OFFCURVE",
"450 -125 OFFCURVE",
"450 50 CURVE",
"450 500 LINE"
);
}
);
width = 500;
}
);
unicode = 0133;
},
{
glyphname = j;
lastChange = "2018-04-09 20:03:12 +0000";
layers = (
{
background = {
paths = (
{
closed = 1;
nodes = (
"150 400 LINE",
"150 -100 LINE",
"250 -100 LINE",
"250 400 LINE"
);
},
{
closed = 1;
nodes = (
"-150 0 LINE",
"-150 -100 LINE",
"-50 -100 LINE",
"-50 0 LINE"
);
},
{
closed = 1;
nodes = (
"-50 -100 LINE",
"-50 -200 LINE",
"150 -200 LINE",
"150 -100 LINE"
);
},
{
closed = 1;
nodes = (
"50 500 LINE",
"50 400 LINE",
"250 400 LINE",
"250 500 LINE"
);
},
{
closed = 1;
nodes = (
"150 700 LINE",
"150 600 LINE",
"250 600 LINE",
"250 700 LINE"
);
}
);
};
layerId = "F98BA250-6091-4D70-9AF4-192CADB0E332";
paths = (
{
closed = 1;
nodes = (
"150 700 LINE",
"150 600 LINE",
"250 600 LINE",
"250 700 LINE"
);
},
{
closed = 1;
nodes = (
"50 400 LINE",
"250 400 LINE",
"250 500 LINE",
"50 500 LINE"
);
},
{
closed = 1;
nodes = (
"150 -100 LINE",
"0 -100 LINE",
"0 -200 LINE",
"100 -200 LINE",
"200 -200 OFFCURVE",
"250 -150 OFFCURVE",
"250 -50 CURVE",
"250 500 LINE",
"150 500 LINE"
);
}
);
width = 300;
}
);
leftKerningGroup = r;
unicode = 006A;
},
{
glyphname = k;
lastChange = "2018-04-09 20:03:12 +0000";
layers = (
{
background = {
paths = (
{
closed = 1;
nodes = (
"50 700 LINE",
"50 0 LINE",
"150 0 LINE",
"150 700 LINE"
);
},
{
closed = 1;
nodes = (
"150 300 LINE",
"150 200 LINE",
"250 200 LINE",
"250 300 LINE"
);
},
{
closed = 1;
nodes = (
"250 200 LINE",
"250 100 LINE",
"350 100 LINE",
"350 200 LINE"
);
},
{
closed = 1;
nodes = (
"350 100 LINE",
"350 0 LINE",
"450 0 LINE",
"450 100 LINE"
);
},
{
closed = 1;
nodes = (
"250 400 LINE",
"250 300 LINE",
"350 300 LINE",
"350 400 LINE"
);
},
{
closed = 1;
nodes = (
"350 500 LINE",
"350 400 LINE",
"450 400 LINE",
"450 500 LINE"
);
}
);
};
layerId = "F98BA250-6091-4D70-9AF4-192CADB0E332";
paths = (
{
closed = 1;
nodes = (
"150 0 LINE",
"150 700 LINE",
"50 700 LINE",
"50 0 LINE"
);
},
{
closed = 1;
nodes = (
"250 125 LINE",
"350 0 LINE",
"475 0 LINE",
"275 250 LINE",
"175 250 LINE"
);
},
{
closed = 1;
nodes = (
"250 375 LINE",
"150 225 LINE",
"75 0 LINE",
"475 500 LINE",
"350 500 LINE"
);
}
);
width = 500;
}
);
rightKerningGroup = x;
unicode = 006B;
},
{
glyphname = l;
lastChange = "2018-05-14 21:58:13 +0000";
layers = (
{
background = {
paths = (
{
closed = 1;
nodes = (
"400 700 LINE",
"400 0 LINE",
"500 0 LINE",
"500 700 LINE"
);
},
{
closed = 1;
nodes = (
"300 100 LINE",
"300 0 LINE",
"600 0 LINE",
"600 100 LINE"
);
},
{
closed = 1;
nodes = (
"300 700 LINE",
"300 600 LINE",
"400 600 LINE",
"400 700 LINE"
);
}
);
};
layerId = "F98BA250-6091-4D70-9AF4-192CADB0E332";
paths = (
{
closed = 1;
nodes = (
"150 0 LINE",
"250 0 LINE",
"250 700 LINE",
"150 700 LINE"
);
},
{
closed = 1;
nodes = (
"50 600 LINE",
"150 600 LINE",
"150 700 LINE",
"50 700 LINE"
);
},
{
closed = 1;
nodes = (
"50 0 LINE",
"350 0 LINE",
"350 100 LINE",
"50 100 LINE"
);
}
);
width = 400;
}
);
rightKerningGroup = l;
unicode = 006C;
},
{
glyphname = lslash;
lastChange = "2018-04-09 20:03:12 +0000";
layers = (
{
background = {
paths = (
{
closed = 1;
nodes = (
"300 700 LINE",
"300 0 LINE",
"400 0 LINE",
"400 700 LINE"
);
},
{
closed = 1;
nodes = (
"100 200 LINE",
"100 100 LINE",
"200 100 LINE",
"200 200 LINE"
);
},
{
closed = 1;
nodes = (
"200 300 LINE",
"200 200 LINE",
"300 200 LINE",
"300 300 LINE"
);
},
{
closed = 1;
nodes = (
"400 500 LINE",
"400 400 LINE",
"500 400 LINE",
"500 500 LINE"
);
},
{
closed = 1;
nodes = (
"500 600 LINE",
"500 500 LINE",
"600 500 LINE",
"600 600 LINE"
);
},
{
closed = 1;
nodes = (
"200 600 LINE",
"300 600 LINE",
"300 700 LINE",
"200 700 LINE"
);
},
{
closed = 1;
nodes = (
"400 0 LINE",
"500 0 LINE",
"500 100 LINE",
"400 100 LINE"
);
}
);
};
layerId = "F98BA250-6091-4D70-9AF4-192CADB0E332";
paths = (
{
closed = 1;
nodes = (
"250 700 LINE",
"250 0 LINE",
"350 0 LINE",
"350 700 LINE"
);
},
{
closed = 1;
nodes = (
"50 200 LINE",
"50 100 LINE",
"150 100 LINE",
"150 200 LINE"
);
},
{
closed = 1;
nodes = (
"150 300 LINE",
"150 200 LINE",
"250 200 LINE",
"250 300 LINE"
);
},
{
closed = 1;
nodes = (
"350 100 LINE",
"350 0 LINE",
"450 0 LINE",
"450 100 LINE"
);
},
{
closed = 1;
nodes = (
"350 500 LINE",
"350 400 LINE",
"450 400 LINE",
"450 500 LINE"
);
},
{
closed = 1;
nodes = (
"150 700 LINE",
"150 600 LINE",
"250 600 LINE",
"250 700 LINE"
);
},
{
closed = 1;
nodes = (
"450 600 LINE",
"450 500 LINE",
"550 500 LINE",
"550 600 LINE"
);
}
);
width = 600;
}
);
unicode = 0142;
},
{
glyphname = m;
lastChange = "2018-04-09 20:03:12 +0000";
layers = (
{
background = {
paths = (
{
closed = 1;
nodes = (
"100 0 LINE",
"200 0 LINE",
"200 500 LINE",
"100 500 LINE"
);
},
{
closed = 1;
nodes = (
"200 400 LINE",
"300 400 LINE",
"300 500 LINE",
"200 500 LINE"
);
},
{
closed = 1;
nodes = (
"300 0 LINE",
"400 0 LINE",
"400 500 LINE",
"300 500 LINE"
);
},
{
closed = 1;
nodes = (
"400 400 LINE",
"500 400 LINE",
"500 500 LINE",
"400 500 LINE"
);
},
{
closed = 1;
nodes = (
"500 0 LINE",
"600 0 LINE",
"600 400 LINE",
"500 400 LINE"
);
}
);
};
layerId = "F98BA250-6091-4D70-9AF4-192CADB0E332";
paths = (
{
closed = 1;
nodes = (
"450 500 OFFCURVE",
"400 450 OFFCURVE",
"400 375 CURVE",
"400 325 LINE",
"400 375 OFFCURVE",
"425 400 OFFCURVE",
"475 400 CURVE SMOOTH",
"525 400 OFFCURVE",
"550 375 OFFCURVE",
"550 325 CURVE SMOOTH",
"550 0 LINE",
"650 0 LINE",
"650 375 LINE SMOOTH",
"650 450 OFFCURVE",
"600 500 OFFCURVE",
"525 500 CURVE SMOOTH"
);
},
{
closed = 1;
nodes = (
"50 500 LINE",
"50 0 LINE",
"150 0 LINE",
"150 500 LINE"
);
},
{
closed = 1;
nodes = (
"300 500 LINE",
"300 0 LINE",
"400 0 LINE",
"400 500 LINE"
);
},
{
closed = 1;
nodes = (
"150 500 LINE",
"150 400 LINE",
"300 400 LINE",
"300 500 LINE"
);
}
);
width = 700;
}
);
leftKerningGroup = r;
unicode = 006D;
},
{
glyphname = n;
lastChange = "2018-05-15 23:09:23 +0000";
layers = (
{
background = {
paths = (
{
closed = 1;
nodes = (
"100 500 LINE",
"100 0 LINE",
"200 0 LINE",
"200 500 LINE"
);
},
{
closed = 1;
nodes = (
"200 400 LINE",
"200 300 LINE",
"300 300 LINE",
"300 400 LINE"
);
},
{
closed = 1;
nodes = (
"500 400 LINE",
"500 0 LINE",
"600 0 LINE",
"600 400 LINE"
);
},
{
closed = 1;
nodes = (
"300 500 LINE",
"300 400 LINE",
"500 400 LINE",
"500 500 LINE"
);
}
);
};
layerId = "F98BA250-6091-4D70-9AF4-192CADB0E332";
paths = (
{
closed = 1;
nodes = (
"225 500 OFFCURVE",
"150 425 OFFCURVE",
"150 300 CURVE",
"150 250 LINE",
"150 350 OFFCURVE",
"200 400 OFFCURVE",
"275 400 CURVE SMOOTH",
"350 400 OFFCURVE",
"400 350 OFFCURVE",
"400 250 CURVE SMOOTH",
"400 0 LINE",
"500 0 LINE",
"500 300 LINE SMOOTH",
"500 425 OFFCURVE",
"425 500 OFFCURVE",
"325 500 CURVE SMOOTH"
);
},
{
closed = 1;
nodes = (
"50 500 LINE",
"50 0 LINE",
"150 0 LINE",
"150 500 LINE"
);
}
);
width = 550;
}
);
leftKerningGroup = r;
rightKerningGroup = n;
unicode = 006E;
},
{
glyphname = ntilde;
lastChange = "2018-04-09 20:03:12 +0000";
layers = (
{
background = {
components = (
{
name = tilde;
transform = "{1, 0, 0, 1, -75, 0}";
}
);
paths = (
{
closed = 1;
nodes = (
"25 400 LINE",
"25 0 LINE",
"125 0 LINE",
"125 400 LINE"
);
},
{
closed = 1;
nodes = (
"125 300 LINE",
"125 200 LINE",
"225 200 LINE",
"225 300 LINE"
);
},
{
closed = 1;
nodes = (
"425 300 LINE",
"425 0 LINE",
"525 0 LINE",
"525 300 LINE"
);
},
{
closed = 1;
nodes = (
"225 400 LINE",
"225 300 LINE",
"425 300 LINE",
"425 400 LINE"
);
}
);
};
components = (
{
name = tilde;
transform = "{1, 0, 0, 1, -50, 0}";
}
);
layerId = "F98BA250-6091-4D70-9AF4-192CADB0E332";
paths = (
{
closed = 1;
nodes = (
"225 400 OFFCURVE",
"150 325 OFFCURVE",
"150 200 CURVE",
"150 150 LINE",
"150 250 OFFCURVE",
"200 300 OFFCURVE",
"275 300 CURVE SMOOTH",
"350 300 OFFCURVE",
"400 250 OFFCURVE",
"400 150 CURVE SMOOTH",
"400 0 LINE",
"500 0 LINE",
"500 200 LINE SMOOTH",
"500 325 OFFCURVE",
"425 400 OFFCURVE",
"325 400 CURVE SMOOTH"
);
},
{
closed = 1;
nodes = (
"50 400 LINE",
"50 0 LINE",
"150 0 LINE",
"150 400 LINE"
);
}
);
width = 550;
}
);
leftKerningGroup = r;
rightKerningGroup = n;
unicode = 00F1;
},
{
glyphname = o;
lastChange = "2018-05-05 22:13:54 +0000";
layers = (
{
background = {
paths = (
{
closed = 1;
nodes = (
"475 400 LINE",
"475 100 LINE",
"575 100 LINE",
"575 400 LINE"
);
},
{
closed = 1;
nodes = (
"75 400 LINE",
"75 100 LINE",
"175 100 LINE",
"175 400 LINE"
);
},
{
closed = 1;
nodes = (
"175 100 LINE",
"175 0 LINE",
"475 0 LINE",
"475 100 LINE"
);
},
{
closed = 1;
nodes = (
"175 500 LINE",
"175 400 LINE",
"475 400 LINE",
"475 500 LINE"
);
}
);
};
layerId = "F98BA250-6091-4D70-9AF4-192CADB0E332";
paths = (
{
closed = 1;
nodes = (
"125 500 OFFCURVE",
"25 400 OFFCURVE",
"25 250 CURVE",
"25 100 OFFCURVE",
"125 0 OFFCURVE",
"275 0 CURVE",
"425 0 OFFCURVE",
"525 100 OFFCURVE",
"525 250 CURVE",
"525 400 OFFCURVE",
"425 500 OFFCURVE",
"275 500 CURVE"
);
},
{
closed = 1;
nodes = (
"350 400 OFFCURVE",
"425 350 OFFCURVE",
"425 250 CURVE",
"425 150 OFFCURVE",
"350 100 OFFCURVE",
"275 100 CURVE",
"200 100 OFFCURVE",
"125 150 OFFCURVE",
"125 250 CURVE",
"125 350 OFFCURVE",
"200 400 OFFCURVE",
"275 400 CURVE"
);
}
);
width = 550;
}
);
leftKerningGroup = o;
rightKerningGroup = e;
unicode = 006F;
},
{
glyphname = oacute;
lastChange = "2018-04-09 20:03:12 +0000";
layers = (
{
layerId = "F98BA250-6091-4D70-9AF4-192CADB0E332";
paths = (
{
closed = 1;
nodes = (
"350 700 LINE",
"350 600 LINE",
"450 600 LINE",
"450 700 LINE"
);
},
{
closed = 1;
nodes = (
"150 600 LINE",
"150 500 LINE",
"350 500 LINE",
"350 600 LINE"
);
},
{
closed = 1;
nodes = (
"125 400 OFFCURVE",
"25 325 OFFCURVE",
"25 200 CURVE",
"25 75 OFFCURVE",
"125 0 OFFCURVE",
"300 0 CURVE",
"475 0 OFFCURVE",
"575 75 OFFCURVE",
"575 200 CURVE",
"575 325 OFFCURVE",
"475 400 OFFCURVE",
"300 400 CURVE"
);
},
{
closed = 1;
nodes = (
"400 300 OFFCURVE",
"475 275 OFFCURVE",
"475 200 CURVE",
"475 125 OFFCURVE",
"400 100 OFFCURVE",
"300 100 CURVE",
"200 100 OFFCURVE",
"125 125 OFFCURVE",
"125 200 CURVE",
"125 275 OFFCURVE",
"200 300 OFFCURVE",
"300 300 CURVE"
);
}
);
width = 600;
}
);
leftKerningGroup = o;
rightKerningGroup = e;
unicode = 00F3;
},
{
glyphname = ocircumflex;
lastChange = "2018-04-09 20:03:12 +0000";
layers = (
{
components = (
{
name = circumflex;
transform = "{1, 0, 0, 1, 100, 0}";
}
);
layerId = "F98BA250-6091-4D70-9AF4-192CADB0E332";
paths = (
{
closed = 1;
nodes = (
"125 400 OFFCURVE",
"25 325 OFFCURVE",
"25 200 CURVE",
"25 75 OFFCURVE",
"125 0 OFFCURVE",
"300 0 CURVE",
"475 0 OFFCURVE",
"575 75 OFFCURVE",
"575 200 CURVE",
"575 325 OFFCURVE",
"475 400 OFFCURVE",
"300 400 CURVE"
);
},
{
closed = 1;
nodes = (
"400 300 OFFCURVE",
"475 275 OFFCURVE",
"475 200 CURVE",
"475 125 OFFCURVE",
"400 100 OFFCURVE",
"300 100 CURVE",
"200 100 OFFCURVE",
"125 125 OFFCURVE",
"125 200 CURVE",
"125 275 OFFCURVE",
"200 300 OFFCURVE",
"300 300 CURVE"
);
}
);
width = 600;
}
);
leftKerningGroup = o;
rightKerningGroup = e;
unicode = 00F4;
},
{
glyphname = odieresis;
lastChange = "2018-04-09 20:03:12 +0000";
layers = (
{
background = {
components = (
{
name = o;
transform = "{1, 0, 0, 1, -25, 0}";
},
{
name = dieresis;
transform = "{1, 0, 0, 1, -25, 0}";
}
);
};
components = (
{
name = dieresis;
transform = "{1, 0, 0, 1, 50, 0}";
}
);
layerId = "F98BA250-6091-4D70-9AF4-192CADB0E332";
paths = (
{
closed = 1;
nodes = (
"100 500 OFFCURVE",
"25 400 OFFCURVE",
"25 250 CURVE",
"25 100 OFFCURVE",
"100 0 OFFCURVE",
"250 0 CURVE",
"400 0 OFFCURVE",
"475 100 OFFCURVE",
"475 250 CURVE",
"475 400 OFFCURVE",
"400 500 OFFCURVE",
"250 500 CURVE"
);
},
{
closed = 1;
nodes = (
"325 400 OFFCURVE",
"375 350 OFFCURVE",
"375 250 CURVE",
"375 150 OFFCURVE",
"325 100 OFFCURVE",
"250 100 CURVE",
"175 100 OFFCURVE",
"125 150 OFFCURVE",
"125 250 CURVE",
"125 350 OFFCURVE",
"175 400 OFFCURVE",
"250 400 CURVE"
);
}
);
width = 500;
}
);
leftKerningGroup = o;
rightKerningGroup = e;
unicode = 00F6;
},
{
glyphname = ograve;
lastChange = "2018-04-09 20:03:12 +0000";
layers = (
{
background = {
components = (
{
name = grave;
}
);
paths = (
{
closed = 1;
nodes = (
"500 300 LINE",
"500 100 LINE",
"600 100 LINE",
"600 300 LINE"
);
},
{
closed = 1;
nodes = (
"100 300 LINE",
"100 100 LINE",
"200 100 LINE",
"200 300 LINE"
);
},
{
closed = 1;
nodes = (
"200 100 LINE",
"200 0 LINE",
"500 0 LINE",
"500 100 LINE"
);
},
{
closed = 1;
nodes = (
"200 400 LINE",
"200 300 LINE",
"500 300 LINE",
"500 400 LINE"
);
}
);
};
layerId = "F98BA250-6091-4D70-9AF4-192CADB0E332";
paths = (
{
closed = 1;
nodes = (
"250 600 LINE",
"250 500 LINE",
"450 500 LINE",
"450 600 LINE"
);
},
{
closed = 1;
nodes = (
"150 700 LINE",
"150 600 LINE",
"250 600 LINE",
"250 700 LINE"
);
},
{
closed = 1;
nodes = (
"125 400 OFFCURVE",
"25 325 OFFCURVE",
"25 200 CURVE",
"25 75 OFFCURVE",
"125 0 OFFCURVE",
"300 0 CURVE",
"475 0 OFFCURVE",
"575 75 OFFCURVE",
"575 200 CURVE",
"575 325 OFFCURVE",
"475 400 OFFCURVE",
"300 400 CURVE"
);
},
{
closed = 1;
nodes = (
"400 300 OFFCURVE",
"475 275 OFFCURVE",
"475 200 CURVE",
"475 125 OFFCURVE",
"400 100 OFFCURVE",
"300 100 CURVE",
"200 100 OFFCURVE",
"125 125 OFFCURVE",
"125 200 CURVE",
"125 275 OFFCURVE",
"200 300 OFFCURVE",
"300 300 CURVE"
);
}
);
width = 600;
}
);
leftKerningGroup = o;
rightKerningGroup = e;
unicode = 00F2;
},
{
glyphname = oslash;
lastChange = "2018-05-04 13:04:57 +0000";
layers = (
{
background = {
components = (
{
name = o;
transform = "{1, 0, 0, 1, -25, 0}";
},
{
name = slash;
transform = "{1, 0, 0, 1, -25, 0}";
}
);
};
layerId = "F98BA250-6091-4D70-9AF4-192CADB0E332";
paths = (
{
closed = 1;
nodes = (
"250 200 LINE",
"350 200 LINE",
"350 300 LINE",
"250 300 LINE"
);
},
{
closed = 1;
nodes = (
"150 500 OFFCURVE",
"25 400 OFFCURVE",
"25 250 CURVE",
"25 100 OFFCURVE",
"150 0 OFFCURVE",
"300 0 CURVE",
"450 0 OFFCURVE",
"575 100 OFFCURVE",
"575 250 CURVE",
"575 400 OFFCURVE",
"450 500 OFFCURVE",
"300 500 CURVE"
);
},
{
closed = 1;
nodes = (
"350 400 LINE",
"350 300 LINE",
"475 300 LINE",
"475 250 LINE",
"475 150 OFFCURVE",
"375 100 OFFCURVE",
"300 100 CURVE",
"250 100 LINE",
"250 200 LINE",
"125 200 LINE",
"125 250 LINE",
"125 350 OFFCURVE",
"225 400 OFFCURVE",
"300 400 CURVE"
);
}
);
width = 600;
}
);
leftKerningGroup = o;
rightKerningGroup = e;
unicode = 00F8;
},
{
glyphname = otilde;
lastChange = "2018-04-09 20:03:12 +0000";
layers = (
{
background = {
components = (
{
name = tilde;
transform = "{1, 0, 0, 1, -50, 0}";
}
);
paths = (
{
closed = 1;
nodes = (
"450 300 LINE",
"450 100 LINE",
"550 100 LINE",
"550 300 LINE"
);
},
{
closed = 1;
nodes = (
"50 300 LINE",
"50 100 LINE",
"150 100 LINE",
"150 300 LINE"
);
},
{
closed = 1;
nodes = (
"150 100 LINE",
"150 0 LINE",
"450 0 LINE",
"450 100 LINE"
);
},
{
closed = 1;
nodes = (
"150 400 LINE",
"150 300 LINE",
"450 300 LINE",
"450 400 LINE"
);
}
);
};
components = (
{
name = tilde;
}
);
layerId = "F98BA250-6091-4D70-9AF4-192CADB0E332";
paths = (
{
closed = 1;
nodes = (
"125 400 OFFCURVE",
"25 325 OFFCURVE",
"25 200 CURVE",
"25 75 OFFCURVE",
"125 0 OFFCURVE",
"300 0 CURVE",
"475 0 OFFCURVE",
"575 75 OFFCURVE",
"575 200 CURVE",
"575 325 OFFCURVE",
"475 400 OFFCURVE",
"300 400 CURVE"
);
},
{
closed = 1;
nodes = (
"400 300 OFFCURVE",
"475 275 OFFCURVE",
"475 200 CURVE",
"475 125 OFFCURVE",
"400 100 OFFCURVE",
"300 100 CURVE",
"200 100 OFFCURVE",
"125 125 OFFCURVE",
"125 200 CURVE",
"125 275 OFFCURVE",
"200 300 OFFCURVE",
"300 300 CURVE"
);
}
);
width = 600;
}
);
leftKerningGroup = o;
rightKerningGroup = e;
unicode = 00F5;
},
{
glyphname = oe;
lastChange = "2018-04-09 20:03:12 +0000";
layers = (
{
background = {
paths = (
{
closed = 1;
nodes = (
"100 100 LINE",
"200 100 LINE",
"200 400 LINE",
"100 400 LINE"
);
},
{
closed = 1;
nodes = (
"200 0 LINE",
"700 0 LINE",
"700 100 LINE",
"200 100 LINE"
);
},
{
closed = 1;
nodes = (
"200 400 LINE",
"600 400 LINE",
"600 500 LINE",
"200 500 LINE"
);
},
{
closed = 1;
nodes = (
"600 300 LINE",
"700 300 LINE",
"700 400 LINE",
"600 400 LINE"
);
},
{
closed = 1;
nodes = (
"400 200 LINE",
"600 200 LINE",
"600 300 LINE",
"400 300 LINE"
);
},
{
closed = 1;
nodes = (
"300 100 LINE",
"400 100 LINE",
"400 400 LINE",
"300 400 LINE"
);
}
);
};
layerId = "F98BA250-6091-4D70-9AF4-192CADB0E332";
paths = (
{
closed = 1;
nodes = (
"150 100 LINE",
"150 0 LINE",
"650 0 LINE",
"650 100 LINE"
);
},
{
closed = 1;
nodes = (
"50 400 LINE",
"50 100 LINE",
"150 100 LINE",
"150 400 LINE"
);
},
{
closed = 1;
nodes = (
"250 400 LINE",
"250 100 LINE",
"350 100 LINE",
"350 400 LINE"
);
},
{
closed = 1;
nodes = (
"350 300 LINE",
"350 200 LINE",
"550 200 LINE",
"550 300 LINE"
);
},
{
closed = 1;
nodes = (
"150 500 LINE",
"150 400 LINE",
"550 400 LINE",
"550 500 LINE"
);
},
{
closed = 1;
nodes = (
"550 400 LINE",
"550 300 LINE",
"650 300 LINE",
"650 400 LINE"
);
}
);
width = 700;
}
);
unicode = 0153;
},
{
glyphname = p;
lastChange = "2018-04-09 20:03:12 +0000";
layers = (
{
background = {
paths = (
{
closed = 1;
nodes = (
"50 500 LINE",
"50 -200 LINE",
"150 -200 LINE",
"150 500 LINE"
);
},
{
closed = 1;
nodes = (
"150 100 LINE",
"150 0 LINE",
"450 0 LINE",
"450 100 LINE"
);
},
{
closed = 1;
nodes = (
"150 500 LINE",
"150 400 LINE",
"450 400 LINE",
"450 500 LINE"
);
},
{
closed = 1;
nodes = (
"450 400 LINE",
"450 100 LINE",
"550 100 LINE",
"550 400 LINE"
);
}
);
};
layerId = "F98BA250-6091-4D70-9AF4-192CADB0E332";
paths = (
{
closed = 1;
nodes = (
"150 -200 LINE",
"150 500 LINE",
"50 500 LINE",
"50 -200 LINE"
);
},
{
closed = 1;
nodes = (
"150 500 LINE",
"150 400 LINE",
"225 400 LINE",
"300 400 OFFCURVE",
"375 350 OFFCURVE",
"375 250 CURVE",
"375 150 OFFCURVE",
"300 100 OFFCURVE",
"225 100 CURVE",
"175 100 OFFCURVE",
"100 125 OFFCURVE",
"100 125 CURVE",
"100 25 LINE",
"100 25 OFFCURVE",
"150 0 OFFCURVE",
"225 0 CURVE",
"375 0 OFFCURVE",
"475 100 OFFCURVE",
"475 250 CURVE",
"475 400 OFFCURVE",
"375 500 OFFCURVE",
"225 500 CURVE"
);
}
);
width = 500;
}
);
leftKerningGroup = r;
rightKerningGroup = e;
unicode = 0070;
},
{
glyphname = thorn;
lastChange = "2018-04-09 20:03:12 +0000";
layers = (
{
background = {
paths = (
{
closed = 1;
nodes = (
"100 700 LINE",
"100 -200 LINE",
"200 -200 LINE",
"200 700 LINE"
);
},
{
closed = 1;
nodes = (
"200 100 LINE",
"200 0 LINE",
"500 0 LINE",
"500 100 LINE"
);
},
{
closed = 1;
nodes = (
"500 400 LINE",
"500 100 LINE",
"600 100 LINE",
"600 400 LINE"
);
},
{
closed = 1;
nodes = (
"200 500 LINE",
"200 400 LINE",
"500 400 LINE",
"500 500 LINE"
);
}
);
};
layerId = "F98BA250-6091-4D70-9AF4-192CADB0E332";
paths = (
{
closed = 1;
nodes = (
"50 700 LINE",
"50 -200 LINE",
"150 -200 LINE",
"150 700 LINE"
);
},
{
closed = 1;
nodes = (
"150 100 LINE",
"150 0 LINE",
"450 0 LINE",
"450 100 LINE"
);
},
{
closed = 1;
nodes = (
"450 400 LINE",
"450 100 LINE",
"550 100 LINE",
"550 400 LINE"
);
},
{
closed = 1;
nodes = (
"150 500 LINE",
"150 400 LINE",
"450 400 LINE",
"450 500 LINE"
);
}
);
width = 600;
}
);
unicode = 00FE;
},
{
glyphname = q;
lastChange = "2018-04-09 20:03:12 +0000";
layers = (
{
background = {
paths = (
{
closed = 1;
nodes = (
"350 500 LINE",
"350 -200 LINE",
"450 -200 LINE",
"450 500 LINE"
);
},
{
closed = 1;
nodes = (
"-50 400 LINE",
"-50 100 LINE",
"50 100 LINE",
"50 400 LINE"
);
},
{
closed = 1;
nodes = (
"50 100 LINE",
"50 0 LINE",
"350 0 LINE",
"350 100 LINE"
);
},
{
closed = 1;
nodes = (
"50 500 LINE",
"50 400 LINE",
"350 400 LINE",
"350 500 LINE"
);
}
);
};
layerId = "F98BA250-6091-4D70-9AF4-192CADB0E332";
paths = (
{
closed = 1;
nodes = (
"450 500 LINE",
"350 500 LINE",
"350 -200 LINE",
"450 -200 LINE"
);
},
{
closed = 1;
nodes = (
"125 500 OFFCURVE",
"25 400 OFFCURVE",
"25 250 CURVE",
"25 100 OFFCURVE",
"125 0 OFFCURVE",
"275 0 CURVE",
"350 0 OFFCURVE",
"400 25 OFFCURVE",
"400 25 CURVE",
"400 125 LINE",
"400 125 OFFCURVE",
"325 100 OFFCURVE",
"275 100 CURVE",
"200 100 OFFCURVE",
"125 150 OFFCURVE",
"125 250 CURVE",
"125 350 OFFCURVE",
"200 400 OFFCURVE",
"275 400 CURVE",
"350 400 LINE",
"350 500 LINE",
"275 500 LINE"
);
}
);
width = 500;
}
);
leftKerningGroup = o;
unicode = 0071;
},
{
glyphname = r;
lastChange = "2018-05-15 22:49:06 +0000";
layers = (
{
background = {
paths = (
{
closed = 1;
nodes = (
"225 500 OFFCURVE",
"150 425 OFFCURVE",
"150 300 CURVE",
"150 250 LINE",
"150 350 OFFCURVE",
"225 400 OFFCURVE",
"300 400 CURVE",
"350 400 OFFCURVE",
"400 375 OFFCURVE",
"450 325 CURVE",
"450 450 LINE",
"450 450 OFFCURVE",
"400 500 OFFCURVE",
"325 500 CURVE"
);
},
{
closed = 1;
nodes = (
"50 500 LINE",
"50 0 LINE",
"150 0 LINE",
"150 500 LINE"
);
}
);
};
layerId = "F98BA250-6091-4D70-9AF4-192CADB0E332";
paths = (
{
closed = 1;
nodes = (
"225 500 OFFCURVE",
"150 425 OFFCURVE",
"150 300 CURVE",
"150 250 LINE",
"150 375 OFFCURVE",
"250 400 OFFCURVE",
"350 400 CURVE",
"350 500 LINE"
);
},
{
closed = 1;
nodes = (
"50 500 LINE",
"50 0 LINE",
"150 0 LINE",
"150 500 LINE"
);
}
);
width = 400;
}
);
leftKerningGroup = r;
rightKerningGroup = r;
unicode = 0072;
},
{
glyphname = s;
lastChange = "2018-05-04 12:23:14 +0000";
layers = (
{
layerId = "F98BA250-6091-4D70-9AF4-192CADB0E332";
paths = (
{
closed = 1;
nodes = (
"375 325 OFFCURVE",
"125 275 OFFCURVE",
"125 350 CURVE",
"125 375 OFFCURVE",
"150 400 OFFCURVE",
"200 400 CURVE",
"275 400 OFFCURVE",
"350 375 OFFCURVE",
"350 375 CURVE",
"350 475 LINE",
"350 475 OFFCURVE",
"275 500 OFFCURVE",
"200 500 CURVE",
"100 500 OFFCURVE",
"25 450 OFFCURVE",
"25 350 CURVE SMOOTH",
"25 175 OFFCURVE",
"275 225 OFFCURVE",
"275 150 CURVE",
"275 125 OFFCURVE",
"250 100 OFFCURVE",
"200 100 CURVE",
"125 100 OFFCURVE",
"50 125 OFFCURVE",
"50 125 CURVE",
"50 25 LINE",
"50 25 OFFCURVE",
"125 0 OFFCURVE",
"200 0 CURVE",
"300 0 OFFCURVE",
"375 50 OFFCURVE",
"375 150 CURVE SMOOTH"
);
}
);
width = 400;
}
);
leftKerningGroup = o;
rightKerningGroup = e;
unicode = 0073;
},
{
glyphname = germandbls;
lastChange = "2018-04-09 20:03:12 +0000";
layers = (
{
background = {
paths = (
{
closed = 1;
nodes = (
"100 600 LINE",
"100 0 LINE",
"200 0 LINE",
"200 600 LINE"
);
},
{
closed = 1;
nodes = (
"300 100 LINE",
"300 0 LINE",
"500 0 LINE",
"500 100 LINE"
);
},
{
closed = 1;
nodes = (
"500 300 LINE",
"500 100 LINE",
"600 100 LINE",
"600 300 LINE"
);
},
{
closed = 1;
nodes = (
"300 400 LINE",
"300 300 LINE",
"500 300 LINE",
"500 400 LINE"
);
},
{
closed = 1;
nodes = (
"200 700 LINE",
"200 600 LINE",
"500 600 LINE",
"500 700 LINE"
);
},
{
closed = 1;
nodes = (
"500 600 LINE",
"500 400 LINE",
"600 400 LINE",
"600 600 LINE"
);
}
);
};
layerId = "F98BA250-6091-4D70-9AF4-192CADB0E332";
paths = (
{
closed = 1;
nodes = (
"50 600 LINE",
"50 0 LINE",
"150 0 LINE",
"150 600 LINE"
);
},
{
closed = 1;
nodes = (
"250 100 LINE",
"250 0 LINE",
"450 0 LINE",
"450 100 LINE"
);
},
{
closed = 1;
nodes = (
"450 300 LINE",
"450 100 LINE",
"550 100 LINE",
"550 300 LINE"
);
},
{
closed = 1;
nodes = (
"250 400 LINE",
"250 300 LINE",
"450 300 LINE",
"450 400 LINE"
);
},
{
closed = 1;
nodes = (
"150 700 LINE",
"150 600 LINE",
"450 600 LINE",
"450 700 LINE"
);
},
{
closed = 1;
nodes = (
"450 600 LINE",
"450 400 LINE",
"550 400 LINE",
"550 600 LINE"
);
}
);
width = 600;
}
);
unicode = 00DF;
},
{
glyphname = t;
lastChange = "2018-05-15 23:08:30 +0000";
layers = (
{
background = {
paths = (
{
closed = 1;
nodes = (
"200 100 LINE",
"300 100 LINE",
"300 700 LINE",
"200 700 LINE"
);
},
{
closed = 1;
nodes = (
"300 0 LINE",
"500 0 LINE",
"500 100 LINE",
"300 100 LINE"
);
},
{
closed = 1;
nodes = (
"300 400 LINE",
"500 400 LINE",
"500 500 LINE",
"300 500 LINE"
);
}
);
};
layerId = "F98BA250-6091-4D70-9AF4-192CADB0E332";
paths = (
{
closed = 1;
nodes = (
"150 700 LINE",
"150 150 LINE",
"150 50 OFFCURVE",
"200 0 OFFCURVE",
"300 0 CURVE",
"400 0 LINE",
"400 100 LINE",
"250 100 LINE",
"250 700 LINE"
);
},
{
closed = 1;
nodes = (
"50 400 LINE",
"400 400 LINE",
"400 500 LINE",
"50 500 LINE"
);
}
);
width = 450;
}
);
leftKerningGroup = t;
rightKerningGroup = e;
unicode = 0074;
},
{
glyphname = u;
lastChange = "2018-05-05 22:13:43 +0000";
layers = (
{
background = {
paths = (
{
closed = 1;
nodes = (
"450 500 LINE",
"450 0 LINE",
"550 0 LINE",
"550 500 LINE"
);
},
{
closed = 1;
nodes = (
"150 100 LINE",
"150 0 LINE",
"350 0 LINE",
"350 100 LINE"
);
},
{
closed = 1;
nodes = (
"50 500 LINE",
"50 100 LINE",
"150 100 LINE",
"150 500 LINE"
);
},
{
closed = 1;
nodes = (
"350 200 LINE",
"350 100 LINE",
"450 100 LINE",
"450 200 LINE"
);
}
);
};
layerId = "F98BA250-6091-4D70-9AF4-192CADB0E332";
paths = (
{
closed = 1;
nodes = (
"350 500 LINE",
"350 0 LINE",
"450 0 LINE",
"450 500 LINE"
);
},
{
closed = 1;
nodes = (
"275 0 OFFCURVE",
"350 50 OFFCURVE",
"350 150 CURVE",
"350 200 LINE",
"350 125 OFFCURVE",
"300 100 OFFCURVE",
"250 100 CURVE SMOOTH",
"200 100 OFFCURVE",
"150 125 OFFCURVE",
"150 200 CURVE SMOOTH",
"150 500 LINE",
"50 500 LINE",
"50 150 LINE SMOOTH",
"50 50 OFFCURVE",
"125 0 OFFCURVE",
"200 0 CURVE SMOOTH"
);
}
);
width = 500;
}
);
leftKerningGroup = r;
unicode = 0075;
},
{
glyphname = uacute;
lastChange = "2018-04-09 20:03:12 +0000";
layers = (
{
background = {
components = (
{
name = acute;
transform = "{1, 0, 0, 1, -25, 0}";
}
);
paths = (
{
closed = 1;
nodes = (
"475 400 LINE",
"475 0 LINE",
"575 0 LINE",
"575 400 LINE"
);
},
{
closed = 1;
nodes = (
"175 100 LINE",
"175 0 LINE",
"375 0 LINE",
"375 100 LINE"
);
},
{
closed = 1;
nodes = (
"75 400 LINE",
"75 100 LINE",
"175 100 LINE",
"175 400 LINE"
);
},
{
closed = 1;
nodes = (
"375 200 LINE",
"375 100 LINE",
"475 100 LINE",
"475 200 LINE"
);
}
);
};
layerId = "F98BA250-6091-4D70-9AF4-192CADB0E332";
paths = (
{
closed = 1;
nodes = (
"300 700 LINE",
"300 600 LINE",
"400 600 LINE",
"400 700 LINE"
);
},
{
closed = 1;
nodes = (
"100 600 LINE",
"100 500 LINE",
"300 500 LINE",
"300 600 LINE"
);
},
{
closed = 1;
nodes = (
"350 400 LINE",
"350 0 LINE",
"450 0 LINE",
"450 400 LINE"
);
},
{
closed = 1;
nodes = (
"275 0 OFFCURVE",
"350 50 OFFCURVE",
"350 150 CURVE",
"350 200 LINE",
"350 125 OFFCURVE",
"300 100 OFFCURVE",
"250 100 CURVE SMOOTH",
"200 100 OFFCURVE",
"150 125 OFFCURVE",
"150 200 CURVE SMOOTH",
"150 400 LINE",
"50 400 LINE",
"50 150 LINE SMOOTH",
"50 50 OFFCURVE",
"125 0 OFFCURVE",
"200 0 CURVE SMOOTH"
);
}
);
width = 500;
}
);
leftKerningGroup = r;
unicode = 00FA;
},
{
glyphname = ucircumflex;
lastChange = "2018-04-09 20:03:12 +0000";
layers = (
{
background = {
components = (
{
name = circumflex;
transform = "{1, 0, 0, 1, -25, 0}";
}
);
paths = (
{
closed = 1;
nodes = (
"475 400 LINE",
"475 0 LINE",
"575 0 LINE",
"575 400 LINE"
);
},
{
closed = 1;
nodes = (
"175 100 LINE",
"175 0 LINE",
"375 0 LINE",
"375 100 LINE"
);
},
{
closed = 1;
nodes = (
"75 400 LINE",
"75 100 LINE",
"175 100 LINE",
"175 400 LINE"
);
},
{
closed = 1;
nodes = (
"375 200 LINE",
"375 100 LINE",
"475 100 LINE",
"475 200 LINE"
);
}
);
};
components = (
{
name = circumflex;
transform = "{1, 0, 0, 1, 50, 0}";
}
);
layerId = "F98BA250-6091-4D70-9AF4-192CADB0E332";
paths = (
{
closed = 1;
nodes = (
"350 400 LINE",
"350 0 LINE",
"450 0 LINE",
"450 400 LINE"
);
},
{
closed = 1;
nodes = (
"275 0 OFFCURVE",
"350 50 OFFCURVE",
"350 150 CURVE",
"350 200 LINE",
"350 125 OFFCURVE",
"300 100 OFFCURVE",
"250 100 CURVE SMOOTH",
"200 100 OFFCURVE",
"150 125 OFFCURVE",
"150 200 CURVE SMOOTH",
"150 400 LINE",
"50 400 LINE",
"50 150 LINE SMOOTH",
"50 50 OFFCURVE",
"125 0 OFFCURVE",
"200 0 CURVE SMOOTH"
);
}
);
width = 500;
}
);
leftKerningGroup = r;
unicode = 00FB;
},
{
glyphname = udieresis;
lastChange = "2018-04-09 20:03:12 +0000";
layers = (
{
background = {
components = (
{
name = dieresis;
transform = "{1, 0, 0, 1, -25, 0}";
}
);
paths = (
{
closed = 1;
nodes = (
"475 500 LINE",
"475 0 LINE",
"575 0 LINE",
"575 500 LINE"
);
},
{
closed = 1;
nodes = (
"175 100 LINE",
"175 0 LINE",
"375 0 LINE",
"375 100 LINE"
);
},
{
closed = 1;
nodes = (
"75 500 LINE",
"75 100 LINE",
"175 100 LINE",
"175 500 LINE"
);
},
{
closed = 1;
nodes = (
"375 200 LINE",
"375 100 LINE",
"475 100 LINE",
"475 200 LINE"
);
}
);
};
components = (
{
name = dieresis;
transform = "{1, 0, 0, 1, 50, 0}";
}
);
layerId = "F98BA250-6091-4D70-9AF4-192CADB0E332";
paths = (
{
closed = 1;
nodes = (
"350 500 LINE",
"350 0 LINE",
"450 0 LINE",
"450 500 LINE"
);
},
{
closed = 1;
nodes = (
"275 0 OFFCURVE",
"350 50 OFFCURVE",
"350 150 CURVE",
"350 200 LINE",
"350 125 OFFCURVE",
"300 100 OFFCURVE",
"250 100 CURVE SMOOTH",
"200 100 OFFCURVE",
"150 125 OFFCURVE",
"150 200 CURVE SMOOTH",
"150 500 LINE",
"50 500 LINE",
"50 150 LINE SMOOTH",
"50 50 OFFCURVE",
"125 0 OFFCURVE",
"200 0 CURVE SMOOTH"
);
}
);
width = 500;
}
);
leftKerningGroup = r;
unicode = 00FC;
},
{
glyphname = ue;
lastChange = "2018-05-14 21:39:37 +0000";
layers = (
{
layerId = "F98BA250-6091-4D70-9AF4-192CADB0E332";
paths = (
{
closed = 1;
nodes = (
"250 0 LINE",
"300 0 LINE",
"300 250 LINE",
"250 250 LINE"
);
},
{
closed = 1;
nodes = (
"250 200 LINE",
"450 200 LINE",
"450 250 LINE",
"250 250 LINE"
);
},
{
closed = 1;
nodes = (
"250 100 LINE",
"450 100 LINE",
"450 150 LINE",
"250 150 LINE"
);
},
{
closed = 1;
nodes = (
"250 0 LINE",
"450 0 LINE",
"450 50 LINE",
"250 50 LINE"
);
},
{
closed = 1;
nodes = (
"250 0 LINE",
"250 100 LINE",
"150 100 LINE",
"150 500 LINE",
"50 500 LINE",
"50 150 LINE SMOOTH",
"50 50 OFFCURVE",
"125 0 OFFCURVE",
"200 0 CURVE"
);
},
{
closed = 1;
nodes = (
"350 250 LINE",
"450 250 LINE",
"450 500 LINE",
"350 500 LINE"
);
}
);
width = 500;
}
);
unicode = 1D6B;
},
{
glyphname = ugrave;
lastChange = "2018-04-09 20:03:12 +0000";
layers = (
{
background = {
components = (
{
name = grave;
transform = "{1, 0, 0, 1, -25, 0}";
}
);
paths = (
{
closed = 1;
nodes = (
"475 400 LINE",
"475 0 LINE",
"575 0 LINE",
"575 400 LINE"
);
},
{
closed = 1;
nodes = (
"175 100 LINE",
"175 0 LINE",
"375 0 LINE",
"375 100 LINE"
);
},
{
closed = 1;
nodes = (
"75 400 LINE",
"75 100 LINE",
"175 100 LINE",
"175 400 LINE"
);
},
{
closed = 1;
nodes = (
"375 200 LINE",
"375 100 LINE",
"475 100 LINE",
"475 200 LINE"
);
}
);
};
layerId = "F98BA250-6091-4D70-9AF4-192CADB0E332";
paths = (
{
closed = 1;
nodes = (
"200 600 LINE",
"200 500 LINE",
"400 500 LINE",
"400 600 LINE"
);
},
{
closed = 1;
nodes = (
"100 700 LINE",
"100 600 LINE",
"200 600 LINE",
"200 700 LINE"
);
},
{
closed = 1;
nodes = (
"350 400 LINE",
"350 0 LINE",
"450 0 LINE",
"450 400 LINE"
);
},
{
closed = 1;
nodes = (
"275 0 OFFCURVE",
"350 50 OFFCURVE",
"350 150 CURVE",
"350 200 LINE",
"350 125 OFFCURVE",
"300 100 OFFCURVE",
"250 100 CURVE SMOOTH",
"200 100 OFFCURVE",
"150 125 OFFCURVE",
"150 200 CURVE SMOOTH",
"150 400 LINE",
"50 400 LINE",
"50 150 LINE SMOOTH",
"50 50 OFFCURVE",
"125 0 OFFCURVE",
"200 0 CURVE SMOOTH"
);
}
);
width = 500;
}
);
leftKerningGroup = r;
unicode = 00F9;
},
{
glyphname = v;
lastChange = "2018-05-05 22:20:54 +0000";
layers = (
{
background = {
paths = (
{
closed = 1;
nodes = (
"375 500 LINE",
"375 300 LINE",
"475 300 LINE",
"475 500 LINE"
);
},
{
closed = 1;
nodes = (
"175 100 LINE",
"175 0 LINE",
"275 0 LINE",
"275 100 LINE"
);
},
{
closed = 1;
nodes = (
"75 300 LINE",
"75 100 LINE",
"175 100 LINE",
"175 300 LINE"
);
},
{
closed = 1;
nodes = (
"-25 500 LINE",
"-25 300 LINE",
"75 300 LINE",
"75 500 LINE"
);
},
{
closed = 1;
nodes = (
"275 300 LINE",
"275 100 LINE",
"375 100 LINE",
"375 300 LINE"
);
}
);
};
layerId = "F98BA250-6091-4D70-9AF4-192CADB0E332";
paths = (
{
closed = 1;
nodes = (
"475 500 LINE",
"375 500 LINE",
"225 0 LINE",
"325 0 LINE"
);
},
{
closed = 1;
nodes = (
"125 500 LINE",
"25 500 LINE",
"175 0 LINE",
"275 0 LINE"
);
}
);
width = 500;
}
);
leftKerningGroup = v;
unicode = 0076;
},
{
glyphname = w;
lastChange = "2018-05-14 12:31:30 +0000";
layers = (
{
background = {
paths = (
{
closed = 1;
nodes = (
"475 500 LINE",
"475 100 LINE",
"575 100 LINE",
"575 500 LINE"
);
},
{
closed = 1;
nodes = (
"175 100 LINE",
"175 0 LINE",
"275 0 LINE",
"275 100 LINE"
);
},
{
closed = 1;
nodes = (
"75 500 LINE",
"75 100 LINE",
"175 100 LINE",
"175 500 LINE"
);
},
{
closed = 1;
nodes = (
"375 100 LINE",
"375 0 LINE",
"475 0 LINE",
"475 100 LINE"
);
},
{
closed = 1;
nodes = (
"275 300 LINE",
"275 100 LINE",
"375 100 LINE",
"375 300 LINE"
);
}
);
};
layerId = "F98BA250-6091-4D70-9AF4-192CADB0E332";
paths = (
{
closed = 1;
nodes = (
"425 500 LINE",
"375 0 LINE",
"475 0 LINE",
"525 500 LINE"
);
},
{
closed = 1;
nodes = (
"25 500 LINE",
"75 0 LINE",
"175 0 LINE",
"125 500 LINE"
);
},
{
closed = 1;
nodes = (
"450 0 LINE",
"325 300 LINE",
"225 300 LINE",
"100 0 LINE",
"175 0 LINE",
"275 200 LINE",
"375 0 LINE"
);
}
);
width = 550;
}
);
leftKerningGroup = o;
unicode = 0077;
},
{
glyphname = x;
lastChange = "2018-05-15 23:09:32 +0000";
layers = (
{
background = {
paths = (
{
closed = 1;
nodes = (
"425 500 LINE",
"425 400 LINE",
"525 400 LINE",
"525 500 LINE"
);
},
{
closed = 1;
nodes = (
"25 100 LINE",
"25 0 LINE",
"125 0 LINE",
"125 100 LINE"
);
},
{
closed = 1;
nodes = (
"125 200 LINE",
"125 100 LINE",
"225 100 LINE",
"225 200 LINE"
);
},
{
closed = 1;
nodes = (
"25 500 LINE",
"25 400 LINE",
"125 400 LINE",
"125 500 LINE"
);
},
{
closed = 1;
nodes = (
"125 400 LINE",
"125 300 LINE",
"225 300 LINE",
"225 400 LINE"
);
},
{
closed = 1;
nodes = (
"225 300 LINE",
"225 200 LINE",
"325 200 LINE",
"325 300 LINE"
);
},
{
closed = 1;
nodes = (
"325 200 LINE",
"325 100 LINE",
"425 100 LINE",
"425 200 LINE"
);
},
{
closed = 1;
nodes = (
"425 100 LINE",
"425 0 LINE",
"525 0 LINE",
"525 100 LINE"
);
},
{
closed = 1;
nodes = (
"325 400 LINE",
"325 300 LINE",
"425 300 LINE",
"425 400 LINE"
);
}
);
};
layerId = "F98BA250-6091-4D70-9AF4-192CADB0E332";
paths = (
{
closed = 1;
nodes = (
"400 0 LINE",
"525 0 LINE",
"150 500 LINE",
"25 500 LINE"
);
},
{
closed = 1;
nodes = (
"25 0 LINE",
"150 0 LINE",
"525 500 LINE",
"400 500 LINE"
);
}
);
width = 550;
}
);
leftKerningGroup = x;
rightKerningGroup = x;
unicode = 0078;
},
{
glyphname = y;
lastChange = "2018-05-09 00:11:36 +0000";
layers = (
{
background = {
paths = (
{
closed = 1;
nodes = (
"400 500 LINE",
"400 -100 LINE",
"500 -100 LINE",
"500 500 LINE"
);
},
{
closed = 1;
nodes = (
"0 0 LINE",
"0 -100 LINE",
"100 -100 LINE",
"100 0 LINE"
);
},
{
closed = 1;
nodes = (
"100 -100 LINE",
"100 -200 LINE",
"400 -200 LINE",
"400 -100 LINE"
);
},
{
closed = 1;
nodes = (
"100 200 LINE",
"100 100 LINE",
"300 100 LINE",
"300 200 LINE"
);
},
{
closed = 1;
nodes = (
"0 500 LINE",
"0 200 LINE",
"100 200 LINE",
"100 500 LINE"
);
},
{
closed = 1;
nodes = (
"300 300 LINE",
"300 200 LINE",
"400 200 LINE",
"400 300 LINE"
);
}
);
};
layerId = "F98BA250-6091-4D70-9AF4-192CADB0E332";
paths = (
{
closed = 1;
nodes = (
"325 50 OFFCURVE",
"400 125 OFFCURVE",
"400 250 CURVE",
"400 300 LINE",
"400 200 OFFCURVE",
"350 150 OFFCURVE",
"275 150 CURVE SMOOTH",
"200 150 OFFCURVE",
"150 200 OFFCURVE",
"150 300 CURVE SMOOTH",
"150 500 LINE",
"50 500 LINE",
"50 250 LINE SMOOTH",
"50 125 OFFCURVE",
"125 50 OFFCURVE",
"225 50 CURVE SMOOTH"
);
},
{
closed = 1;
nodes = (
"400 500 LINE",
"400 50 LINE",
"400 -50 OFFCURVE",
"350 -100 OFFCURVE",
"250 -100 CURVE",
"125 -100 OFFCURVE",
"50 0 OFFCURVE",
"50 0 CURVE",
"50 -125 LINE",
"50 -125 OFFCURVE",
"100 -200 OFFCURVE",
"250 -200 CURVE",
"400 -200 OFFCURVE",
"500 -125 OFFCURVE",
"500 50 CURVE",
"500 500 LINE"
);
}
);
width = 550;
}
);
leftKerningGroup = r;
unicode = 0079;
},
{
glyphname = yacute;
lastChange = "2018-04-09 20:03:12 +0000";
layers = (
{
background = {
components = (
{
name = acute;
}
);
paths = (
{
closed = 1;
nodes = (
"500 400 LINE",
"500 -100 LINE",
"600 -100 LINE",
"600 400 LINE"
);
},
{
closed = 1;
nodes = (
"100 0 LINE",
"100 -100 LINE",
"200 -100 LINE",
"200 0 LINE"
);
},
{
closed = 1;
nodes = (
"200 -100 LINE",
"200 -200 LINE",
"500 -200 LINE",
"500 -100 LINE"
);
},
{
closed = 1;
nodes = (
"200 200 LINE",
"200 100 LINE",
"400 100 LINE",
"400 200 LINE"
);
},
{
closed = 1;
nodes = (
"100 400 LINE",
"100 200 LINE",
"200 200 LINE",
"200 400 LINE"
);
},
{
closed = 1;
nodes = (
"400 300 LINE",
"400 200 LINE",
"500 200 LINE",
"500 300 LINE"
);
}
);
};
layerId = "F98BA250-6091-4D70-9AF4-192CADB0E332";
paths = (
{
closed = 1;
nodes = (
"400 -200 OFFCURVE",
"500 -100 OFFCURVE",
"500 50 CURVE",
"500 400 LINE",
"400 400 LINE",
"400 50 LINE",
"400 -50 OFFCURVE",
"325 -100 OFFCURVE",
"250 -100 CURVE",
"125 -100 OFFCURVE",
"50 0 OFFCURVE",
"50 0 CURVE",
"50 -125 LINE",
"50 -125 OFFCURVE",
"125 -200 OFFCURVE",
"250 -200 CURVE"
);
},
{
closed = 1;
nodes = (
"50 400 LINE",
"50 275 LINE SMOOTH",
"50 150 OFFCURVE",
"125 75 OFFCURVE",
"225 75 CURVE SMOOTH",
"325 75 OFFCURVE",
"400 150 OFFCURVE",
"400 275 CURVE",
"400 325 LINE",
"400 225 OFFCURVE",
"350 175 OFFCURVE",
"275 175 CURVE SMOOTH",
"200 175 OFFCURVE",
"150 225 OFFCURVE",
"150 325 CURVE SMOOTH",
"150 400 LINE"
);
},
{
closed = 1;
nodes = (
"350 700 LINE",
"350 600 LINE",
"450 600 LINE",
"450 700 LINE"
);
},
{
closed = 1;
nodes = (
"150 600 LINE",
"150 500 LINE",
"350 500 LINE",
"350 600 LINE"
);
}
);
width = 550;
}
);
leftKerningGroup = r;
unicode = 00FD;
},
{
glyphname = ycircumflex;
lastChange = "2018-04-09 20:03:12 +0000";
layers = (
{
background = {
components = (
{
name = circumflex;
}
);
paths = (
{
closed = 1;
nodes = (
"500 400 LINE",
"500 -100 LINE",
"600 -100 LINE",
"600 400 LINE"
);
},
{
closed = 1;
nodes = (
"100 0 LINE",
"100 -100 LINE",
"200 -100 LINE",
"200 0 LINE"
);
},
{
closed = 1;
nodes = (
"200 -100 LINE",
"200 -200 LINE",
"500 -200 LINE",
"500 -100 LINE"
);
},
{
closed = 1;
nodes = (
"200 200 LINE",
"200 100 LINE",
"400 100 LINE",
"400 200 LINE"
);
},
{
closed = 1;
nodes = (
"100 400 LINE",
"100 200 LINE",
"200 200 LINE",
"200 400 LINE"
);
},
{
closed = 1;
nodes = (
"400 300 LINE",
"400 200 LINE",
"500 200 LINE",
"500 300 LINE"
);
}
);
};
components = (
{
name = circumflex;
transform = "{1, 0, 0, 1, 50, 0}";
}
);
layerId = "F98BA250-6091-4D70-9AF4-192CADB0E332";
paths = (
{
closed = 1;
nodes = (
"400 -200 OFFCURVE",
"500 -100 OFFCURVE",
"500 50 CURVE",
"500 400 LINE",
"400 400 LINE",
"400 50 LINE",
"400 -50 OFFCURVE",
"325 -100 OFFCURVE",
"250 -100 CURVE",
"125 -100 OFFCURVE",
"50 0 OFFCURVE",
"50 0 CURVE",
"50 -125 LINE",
"50 -125 OFFCURVE",
"125 -200 OFFCURVE",
"250 -200 CURVE"
);
},
{
closed = 1;
nodes = (
"50 400 LINE",
"50 275 LINE SMOOTH",
"50 150 OFFCURVE",
"125 75 OFFCURVE",
"225 75 CURVE SMOOTH",
"325 75 OFFCURVE",
"400 150 OFFCURVE",
"400 275 CURVE",
"400 325 LINE",
"400 225 OFFCURVE",
"350 175 OFFCURVE",
"275 175 CURVE SMOOTH",
"200 175 OFFCURVE",
"150 225 OFFCURVE",
"150 325 CURVE SMOOTH",
"150 400 LINE"
);
}
);
width = 550;
}
);
leftKerningGroup = r;
unicode = 0177;
},
{
glyphname = ydieresis;
lastChange = "2018-04-09 20:03:12 +0000";
layers = (
{
background = {
components = (
{
name = dieresis;
}
);
paths = (
{
closed = 1;
nodes = (
"500 500 LINE",
"500 -100 LINE",
"600 -100 LINE",
"600 500 LINE"
);
},
{
closed = 1;
nodes = (
"100 0 LINE",
"100 -100 LINE",
"200 -100 LINE",
"200 0 LINE"
);
},
{
closed = 1;
nodes = (
"200 -100 LINE",
"200 -200 LINE",
"500 -200 LINE",
"500 -100 LINE"
);
},
{
closed = 1;
nodes = (
"200 200 LINE",
"200 100 LINE",
"400 100 LINE",
"400 200 LINE"
);
},
{
closed = 1;
nodes = (
"100 500 LINE",
"100 200 LINE",
"200 200 LINE",
"200 500 LINE"
);
},
{
closed = 1;
nodes = (
"400 300 LINE",
"400 200 LINE",
"500 200 LINE",
"500 300 LINE"
);
}
);
};
components = (
{
name = dieresis;
transform = "{1, 0, 0, 1, 50, 0}";
}
);
layerId = "F98BA250-6091-4D70-9AF4-192CADB0E332";
paths = (
{
closed = 1;
nodes = (
"400 -200 OFFCURVE",
"500 -100 OFFCURVE",
"500 50 CURVE",
"500 500 LINE",
"400 500 LINE",
"400 50 LINE",
"400 -50 OFFCURVE",
"325 -100 OFFCURVE",
"250 -100 CURVE",
"125 -100 OFFCURVE",
"50 0 OFFCURVE",
"50 0 CURVE",
"50 -125 LINE",
"50 -125 OFFCURVE",
"125 -200 OFFCURVE",
"250 -200 CURVE"
);
},
{
closed = 1;
nodes = (
"50 500 LINE",
"50 275 LINE SMOOTH",
"50 150 OFFCURVE",
"125 75 OFFCURVE",
"225 75 CURVE SMOOTH",
"325 75 OFFCURVE",
"400 150 OFFCURVE",
"400 275 CURVE",
"400 325 LINE",
"400 225 OFFCURVE",
"350 175 OFFCURVE",
"275 175 CURVE SMOOTH",
"200 175 OFFCURVE",
"150 225 OFFCURVE",
"150 325 CURVE SMOOTH",
"150 500 LINE"
);
}
);
width = 550;
}
);
leftKerningGroup = r;
unicode = 00FF;
},
{
glyphname = ygrave;
lastChange = "2018-04-09 20:03:12 +0000";
layers = (
{
background = {
components = (
{
name = grave;
}
);
paths = (
{
closed = 1;
nodes = (
"500 400 LINE",
"500 -100 LINE",
"600 -100 LINE",
"600 400 LINE"
);
},
{
closed = 1;
nodes = (
"100 0 LINE",
"100 -100 LINE",
"200 -100 LINE",
"200 0 LINE"
);
},
{
closed = 1;
nodes = (
"200 -100 LINE",
"200 -200 LINE",
"500 -200 LINE",
"500 -100 LINE"
);
},
{
closed = 1;
nodes = (
"200 200 LINE",
"200 100 LINE",
"400 100 LINE",
"400 200 LINE"
);
},
{
closed = 1;
nodes = (
"100 400 LINE",
"100 200 LINE",
"200 200 LINE",
"200 400 LINE"
);
},
{
closed = 1;
nodes = (
"400 300 LINE",
"400 200 LINE",
"500 200 LINE",
"500 300 LINE"
);
}
);
};
layerId = "F98BA250-6091-4D70-9AF4-192CADB0E332";
paths = (
{
closed = 1;
nodes = (
"400 -200 OFFCURVE",
"500 -100 OFFCURVE",
"500 50 CURVE",
"500 400 LINE",
"400 400 LINE",
"400 50 LINE",
"400 -50 OFFCURVE",
"325 -100 OFFCURVE",
"250 -100 CURVE",
"125 -100 OFFCURVE",
"50 0 OFFCURVE",
"50 0 CURVE",
"50 -125 LINE",
"50 -125 OFFCURVE",
"125 -200 OFFCURVE",
"250 -200 CURVE"
);
},
{
closed = 1;
nodes = (
"50 400 LINE",
"50 275 LINE SMOOTH",
"50 150 OFFCURVE",
"125 75 OFFCURVE",
"225 75 CURVE SMOOTH",
"325 75 OFFCURVE",
"400 150 OFFCURVE",
"400 275 CURVE",
"400 325 LINE",
"400 225 OFFCURVE",
"350 175 OFFCURVE",
"275 175 CURVE SMOOTH",
"200 175 OFFCURVE",
"150 225 OFFCURVE",
"150 325 CURVE SMOOTH",
"150 400 LINE"
);
},
{
closed = 1;
nodes = (
"200 600 LINE",
"200 500 LINE",
"400 500 LINE",
"400 600 LINE"
);
},
{
closed = 1;
nodes = (
"100 700 LINE",
"100 600 LINE",
"200 600 LINE",
"200 700 LINE"
);
}
);
width = 550;
}
);
leftKerningGroup = r;
unicode = 1EF3;
},
{
glyphname = z;
lastChange = "2018-04-09 20:03:12 +0000";
layers = (
{
background = {
paths = (
{
closed = 1;
nodes = (
"0 500 LINE",
"0 400 LINE",
"500 400 LINE",
"500 500 LINE"
);
},
{
closed = 1;
nodes = (
"100 200 LINE",
"100 100 LINE",
"200 100 LINE",
"200 200 LINE"
);
},
{
closed = 1;
nodes = (
"0 100 LINE",
"0 0 LINE",
"500 0 LINE",
"500 100 LINE"
);
},
{
closed = 1;
nodes = (
"200 300 LINE",
"200 200 LINE",
"300 200 LINE",
"300 300 LINE"
);
},
{
closed = 1;
nodes = (
"300 400 LINE",
"300 300 LINE",
"400 300 LINE",
"400 400 LINE"
);
}
);
};
layerId = "F98BA250-6091-4D70-9AF4-192CADB0E332";
paths = (
{
closed = 1;
nodes = (
"50 500 LINE",
"50 400 LINE",
"325 400 LINE",
"50 100 LINE",
"50 0 LINE",
"450 0 LINE",
"450 100 LINE",
"175 100 LINE",
"450 400 LINE",
"450 500 LINE"
);
}
);
width = 500;
}
);
leftKerningGroup = r;
unicode = 007A;
},
{
glyphname = creversed.circled;
lastChange = "2018-05-03 15:59:37 +0000";
layers = (
{
layerId = "F98BA250-6091-4D70-9AF4-192CADB0E332";
paths = (
{
closed = 1;
nodes = (
"650 100 LINE",
"650 0 LINE",
"750 0 LINE",
"750 100 LINE"
);
},
{
closed = 1;
nodes = (
"250 0 LINE",
"250 -100 LINE",
"650 -100 LINE",
"650 0 LINE"
);
},
{
closed = 1;
nodes = (
"150 100 LINE",
"150 0 LINE",
"250 0 LINE",
"250 100 LINE"
);
},
{
closed = 1;
nodes = (
"50 500 LINE",
"50 100 LINE",
"150 100 LINE",
"150 500 LINE"
);
},
{
closed = 1;
nodes = (
"750 500 LINE",
"750 100 LINE",
"850 100 LINE",
"850 500 LINE"
);
},
{
closed = 1;
nodes = (
"650 600 LINE",
"650 500 LINE",
"750 500 LINE",
"750 600 LINE"
);
},
{
closed = 1;
nodes = (
"250 700 LINE",
"250 600 LINE",
"650 600 LINE",
"650 700 LINE"
);
},
{
closed = 1;
nodes = (
"150 600 LINE",
"150 500 LINE",
"250 500 LINE",
"250 600 LINE"
);
},
{
closed = 1;
nodes = (
"250 500 LINE",
"250 400 LINE",
"650 400 LINE",
"650 500 LINE"
);
},
{
closed = 1;
nodes = (
"250 200 LINE",
"250 100 LINE",
"650 100 LINE",
"650 200 LINE"
);
},
{
closed = 1;
nodes = (
"550 500 LINE",
"550 100 LINE",
"650 100 LINE",
"650 500 LINE"
);
}
);
width = 900;
}
);
},
{
glyphname = a.ss01;
lastChange = "2018-04-09 20:03:12 +0000";
layers = (
{
background = {
paths = (
{
closed = 0;
nodes = (
"0 325 LINE"
);
},
{
closed = 1;
nodes = (
"50 400 LINE",
"350 400 LINE",
"350 500 LINE",
"50 500 LINE"
);
},
{
closed = 1;
nodes = (
"350 0 LINE",
"450 0 LINE",
"450 400 LINE",
"350 400 LINE"
);
},
{
closed = 1;
nodes = (
"-50 100 LINE",
"50 100 LINE",
"50 200 LINE",
"-50 200 LINE"
);
},
{
closed = 1;
nodes = (
"50 200 LINE",
"350 200 LINE",
"350 300 LINE",
"50 300 LINE"
);
},
{
closed = 1;
nodes = (
"50 0 LINE",
"350 0 LINE",
"350 100 LINE",
"50 100 LINE"
);
}
);
};
layerId = "F98BA250-6091-4D70-9AF4-192CADB0E332";
paths = (
{
closed = 1;
nodes = (
"450 300 LINE",
"450 425 OFFCURVE",
"375 500 OFFCURVE",
"250 500 CURVE",
"100 500 LINE",
"100 400 LINE",
"350 400 LINE",
"350 0 LINE",
"450 0 LINE"
);
},
{
closed = 1;
nodes = (
"75 300 OFFCURVE",
"25 250 OFFCURVE",
"25 150 CURVE",
"25 50 OFFCURVE",
"75 0 OFFCURVE",
"175 0 CURVE",
"350 0 LINE",
"350 100 LINE",
"125 100 LINE",
"125 200 LINE",
"350 200 LINE",
"350 300 LINE",
"175 300 LINE"
);
}
);
width = 500;
}
);
leftKerningGroup = o;
rightKerningGroup = n;
},
{
glyphname = i.ss01;
lastChange = "2018-05-09 00:14:59 +0000";
layers = (
{
layerId = "F98BA250-6091-4D70-9AF4-192CADB0E332";
paths = (
{
closed = 1;
nodes = (
"50 0 LINE",
"150 0 LINE",
"150 500 LINE",
"50 500 LINE"
);
},
{
closed = 1;
nodes = (
"50 600 LINE",
"150 600 LINE",
"150 700 LINE",
"50 700 LINE"
);
}
);
width = 200;
}
);
},
{
glyphname = l.ss01;
lastChange = "2018-04-09 20:03:12 +0000";
layers = (
{
layerId = "F98BA250-6091-4D70-9AF4-192CADB0E332";
paths = (
{
closed = 1;
nodes = (
"50 0 LINE",
"150 0 LINE",
"150 700 LINE",
"50 700 LINE"
);
}
);
width = 200;
}
);
},
{
glyphname = V_T_F;
lastChange = "2018-05-15 23:25:51 +0000";
layers = (
{
layerId = "F98BA250-6091-4D70-9AF4-192CADB0E332";
paths = (
{
closed = 1;
nodes = (
"50 400 LINE",
"150 400 LINE",
"150 700 LINE",
"50 700 LINE"
);
},
{
closed = 1;
nodes = (
"150 200 LINE",
"250 200 LINE",
"250 400 LINE",
"150 400 LINE"
);
},
{
closed = 1;
nodes = (
"250 0 LINE",
"350 0 LINE",
"350 200 LINE",
"250 200 LINE"
);
},
{
closed = 1;
nodes = (
"350 200 LINE",
"450 200 LINE",
"450 400 LINE",
"350 400 LINE"
);
},
{
closed = 1;
nodes = (
"450 400 LINE",
"550 400 LINE",
"550 700 LINE",
"450 700 LINE"
);
},
{
closed = 1;
nodes = (
"450 600 LINE",
"1650 600 LINE",
"1650 700 LINE",
"450 700 LINE"
);
},
{
closed = 1;
nodes = (
"750 0 LINE",
"850 0 LINE",
"850 600 LINE",
"750 600 LINE"
);
},
{
closed = 1;
nodes = (
"1150 0 LINE",
"1250 0 LINE",
"1250 700 LINE",
"1150 700 LINE"
);
},
{
closed = 1;
nodes = (
"1200 300 LINE",
"1450 300 LINE",
"1450 400 LINE",
"1200 400 LINE"
);
}
);
width = 1700;
}
);
},
{
glyphname = c_t;
lastChange = "2018-04-09 20:03:12 +0000";
layers = (
{
layerId = "F98BA250-6091-4D70-9AF4-192CADB0E332";
paths = (
{
closed = 1;
nodes = (
"500 700 LINE",
"500 150 LINE",
"500 50 OFFCURVE",
"550 0 OFFCURVE",
"650 0 CURVE",
"750 0 LINE",
"750 100 LINE",
"600 100 LINE",
"600 700 LINE"
);
},
{
closed = 1;
nodes = (
"550 400 LINE",
"750 400 LINE",
"750 500 LINE",
"550 500 LINE"
);
},
{
closed = 1;
nodes = (
"125 500 OFFCURVE",
"25 400 OFFCURVE",
"25 250 CURVE",
"25 100 OFFCURVE",
"125 0 OFFCURVE",
"275 0 CURVE",
"350 0 OFFCURVE",
"400 25 OFFCURVE",
"400 25 CURVE",
"400 125 LINE",
"400 125 OFFCURVE",
"325 100 OFFCURVE",
"275 100 CURVE",
"200 100 OFFCURVE",
"125 150 OFFCURVE",
"125 250 CURVE",
"125 350 OFFCURVE",
"200 400 OFFCURVE",
"275 400 CURVE",
"325 400 OFFCURVE",
"400 375 OFFCURVE",
"400 375 CURVE",
"400 475 LINE",
"400 475 OFFCURVE",
"350 500 OFFCURVE",
"275 500 CURVE"
);
}
);
width = 800;
}
);
leftMetricsKey = c;
rightMetricsKey = t;
},
{
glyphname = f_f;
lastChange = "2018-04-09 20:03:12 +0000";
layers = (
{
layerId = "F98BA250-6091-4D70-9AF4-192CADB0E332";
paths = (
{
closed = 1;
nodes = (
"750 300 LINE",
"750 400 LINE",
"50 400 LINE",
"50 300 LINE"
);
},
{
closed = 1;
nodes = (
"600 600 LINE",
"750 600 LINE",
"750 700 LINE",
"700 700 LINE",
"575 700 OFFCURVE",
"500 625 OFFCURVE",
"500 500 CURVE",
"500 0 LINE",
"600 0 LINE"
);
},
{
closed = 1;
nodes = (
"350 700 LINE SMOOTH",
"225 700 OFFCURVE",
"150 625 OFFCURVE",
"150 500 CURVE SMOOTH",
"150 0 LINE",
"250 0 LINE",
"250 600 LINE",
"500 600 LINE",
"500 500 LINE",
"600 500 LINE",
"600 625 OFFCURVE",
"525 700 OFFCURVE",
"400 700 CURVE SMOOTH"
);
}
);
width = 800;
}
);
leftKerningGroup = f;
leftMetricsKey = f;
rightMetricsKey = f;
},
{
glyphname = f_f_i;
lastChange = "2018-04-09 20:03:12 +0000";
layers = (
{
layerId = "F98BA250-6091-4D70-9AF4-192CADB0E332";
paths = (
{
closed = 1;
nodes = (
"750 300 LINE",
"750 400 LINE",
"50 400 LINE",
"50 300 LINE"
);
},
{
closed = 1;
nodes = (
"600 600 LINE",
"950 600 LINE",
"950 700 LINE",
"700 700 LINE",
"575 700 OFFCURVE",
"500 625 OFFCURVE",
"500 500 CURVE",
"500 0 LINE",
"600 0 LINE"
);
},
{
closed = 1;
nodes = (
"350 700 LINE SMOOTH",
"225 700 OFFCURVE",
"150 625 OFFCURVE",
"150 500 CURVE SMOOTH",
"150 0 LINE",
"250 0 LINE",
"250 600 LINE",
"500 600 LINE",
"500 500 LINE",
"600 500 LINE",
"600 625 OFFCURVE",
"525 700 OFFCURVE",
"400 700 CURVE SMOOTH"
);
},
{
closed = 1;
nodes = (
"850 0 LINE",
"950 0 LINE",
"950 500 LINE",
"850 500 LINE"
);
}
);
width = 1000;
}
);
leftKerningGroup = f;
leftMetricsKey = f;
rightMetricsKey = i;
},
{
glyphname = f_f_l;
lastChange = "2018-04-09 20:03:12 +0000";
layers = (
{
layerId = "F98BA250-6091-4D70-9AF4-192CADB0E332";
paths = (
{
closed = 1;
nodes = (
"750 300 LINE",
"750 400 LINE",
"50 400 LINE",
"50 300 LINE"
);
},
{
closed = 1;
nodes = (
"600 600 LINE",
"950 600 LINE",
"950 700 LINE",
"700 700 LINE",
"575 700 OFFCURVE",
"500 625 OFFCURVE",
"500 500 CURVE",
"500 0 LINE",
"600 0 LINE"
);
},
{
closed = 1;
nodes = (
"350 700 LINE SMOOTH",
"225 700 OFFCURVE",
"150 625 OFFCURVE",
"150 500 CURVE SMOOTH",
"150 0 LINE",
"250 0 LINE",
"250 600 LINE",
"500 600 LINE",
"500 500 LINE",
"600 500 LINE",
"600 625 OFFCURVE",
"525 700 OFFCURVE",
"400 700 CURVE SMOOTH"
);
},
{
closed = 1;
nodes = (
"850 0 LINE",
"950 0 LINE",
"950 700 LINE",
"850 700 LINE"
);
}
);
width = 1000;
}
);
leftKerningGroup = f;
leftMetricsKey = f;
rightMetricsKey = l;
},
{
glyphname = fi;
lastChange = "2018-05-28 22:20:45 +0000";
layers = (
{
layerId = "F98BA250-6091-4D70-9AF4-192CADB0E332";
paths = (
{
closed = 1;
nodes = (
"500 0 LINE",
"600 0 LINE",
"600 500 LINE",
"500 500 LINE"
);
},
{
closed = 1;
nodes = (
"250 600 LINE",
"600 600 LINE",
"600 700 LINE",
"350 700 LINE",
"225 700 OFFCURVE",
"150 625 OFFCURVE",
"150 500 CURVE",
"150 0 LINE",
"250 0 LINE"
);
},
{
closed = 1;
nodes = (
"400 300 LINE",
"400 400 LINE",
"50 400 LINE",
"50 300 LINE"
);
}
);
width = 650;
}
);
leftKerningGroup = f;
leftMetricsKey = f;
rightMetricsKey = i;
unicode = FB01;
},
{
glyphname = fl;
lastChange = "2018-04-09 20:03:12 +0000";
layers = (
{
layerId = "F98BA250-6091-4D70-9AF4-192CADB0E332";
paths = (
{
closed = 1;
nodes = (
"500 0 LINE",
"600 0 LINE",
"600 700 LINE",
"500 700 LINE"
);
},
{
closed = 1;
nodes = (
"250 600 LINE",
"600 600 LINE",
"600 700 LINE",
"350 700 LINE",
"225 700 OFFCURVE",
"150 625 OFFCURVE",
"150 500 CURVE",
"150 0 LINE",
"250 0 LINE"
);
},
{
closed = 1;
nodes = (
"400 300 LINE",
"400 400 LINE",
"50 400 LINE",
"50 300 LINE"
);
}
);
width = 650;
}
);
leftKerningGroup = f;
leftMetricsKey = f;
rightMetricsKey = l;
unicode = FB02;
},
{
glyphname = s_u_r_slash;
lastChange = "2018-05-11 00:36:27 +0000";
layers = (
{
layerId = "F98BA250-6091-4D70-9AF4-192CADB0E332";
paths = (
{
closed = 1;
nodes = (
"150 700 LINE",
"150 600 LINE",
"350 600 LINE",
"350 700 LINE"
);
},
{
closed = 1;
nodes = (
"50 500 LINE",
"50 400 LINE",
"250 400 LINE",
"250 500 LINE"
);
},
{
closed = 1;
nodes = (
"150 500 LINE",
"250 500 LINE",
"250 600 LINE",
"150 600 LINE"
);
},
{
closed = 1;
nodes = (
"150 100 LINE",
"250 100 LINE",
"250 200 LINE",
"150 200 LINE"
);
},
{
closed = 1;
nodes = (
"250 200 LINE",
"350 200 LINE",
"350 300 LINE",
"250 300 LINE"
);
},
{
closed = 1;
nodes = (
"350 300 LINE",
"450 300 LINE",
"450 400 LINE",
"350 400 LINE"
);
},
{
closed = 1;
nodes = (
"450 400 LINE",
"550 400 LINE",
"550 500 LINE",
"450 500 LINE"
);
}
);
width = 600;
}
);
},
{
glyphname = t_t;
lastChange = "2018-04-09 20:03:12 +0000";
layers = (
{
layerId = "F98BA250-6091-4D70-9AF4-192CADB0E332";
paths = (
{
closed = 1;
nodes = (
"150 700 LINE",
"150 150 LINE",
"150 50 OFFCURVE",
"200 0 OFFCURVE",
"300 0 CURVE",
"400 0 LINE",
"400 100 LINE",
"250 100 LINE",
"250 700 LINE"
);
},
{
closed = 1;
nodes = (
"50 400 LINE",
"400 400 LINE",
"400 500 LINE",
"50 500 LINE"
);
},
{
closed = 1;
nodes = (
"500 700 LINE",
"500 150 LINE",
"500 50 OFFCURVE",
"550 0 OFFCURVE",
"650 0 CURVE",
"750 0 LINE",
"750 100 LINE",
"600 100 LINE",
"600 700 LINE"
);
},
{
closed = 1;
nodes = (
"550 400 LINE",
"750 400 LINE",
"750 500 LINE",
"550 500 LINE"
);
}
);
width = 800;
}
);
leftKerningGroup = t;
leftMetricsKey = t;
rightMetricsKey = t;
},
{
glyphname = A.sc;
lastChange = "2018-05-09 00:18:11 +0000";
layers = (
{
background = {
paths = (
{
closed = 1;
nodes = (
"400 600 LINE",
"400 0 LINE",
"500 0 LINE",
"500 600 LINE"
);
},
{
closed = 1;
nodes = (
"0 600 LINE",
"0 0 LINE",
"100 0 LINE",
"100 600 LINE"
);
},
{
closed = 1;
nodes = (
"100 300 LINE",
"100 200 LINE",
"400 200 LINE",
"400 300 LINE"
);
},
{
closed = 1;
nodes = (
"100 700 LINE",
"100 600 LINE",
"400 600 LINE",
"400 700 LINE"
);
}
);
};
layerId = "F98BA250-6091-4D70-9AF4-192CADB0E332";
paths = (
{
closed = 1;
nodes = (
"150 100 LINE",
"400 100 LINE",
"400 175 LINE",
"150 175 LINE"
);
},
{
closed = 1;
nodes = (
"250 500 LINE",
"425 0 LINE",
"525 0 LINE",
"350 500 LINE"
);
},
{
closed = 1;
nodes = (
"200 500 LINE",
"25 0 LINE",
"125 0 LINE",
"300 500 LINE"
);
}
);
width = 550;
}
);
leftKerningGroup = A;
rightKerningGroup = A;
},
{
glyphname = Aacute.sc;
lastChange = "2018-04-09 20:03:12 +0000";
layers = (
{
background = {
components = (
{
name = acute;
transform = "{1, 0, 0, 1, -50, 0}";
}
);
paths = (
{
closed = 1;
nodes = (
"450 300 LINE",
"450 0 LINE",
"550 0 LINE",
"550 300 LINE"
);
},
{
closed = 1;
nodes = (
"50 300 LINE",
"50 0 LINE",
"150 0 LINE",
"150 300 LINE"
);
},
{
closed = 1;
nodes = (
"150 200 LINE",
"150 100 LINE",
"450 100 LINE",
"450 200 LINE"
);
},
{
closed = 1;
nodes = (
"150 400 LINE",
"150 300 LINE",
"450 300 LINE",
"450 400 LINE"
);
}
);
};
layerId = "F98BA250-6091-4D70-9AF4-192CADB0E332";
paths = (
{
closed = 1;
nodes = (
"300 700 LINE",
"300 600 LINE",
"400 600 LINE",
"400 700 LINE"
);
},
{
closed = 1;
nodes = (
"100 600 LINE",
"100 500 LINE",
"300 500 LINE",
"300 600 LINE"
);
},
{
closed = 1;
nodes = (
"300 400 LINE",
"200 400 LINE",
"25 0 LINE",
"125 0 LINE",
"200 175 LINE",
"200 300 LINE",
"300 300 LINE",
"300 175 LINE",
"375 0 LINE",
"475 0 LINE"
);
},
{
closed = 1;
nodes = (
"125 100 LINE",
"375 100 LINE",
"375 175 LINE",
"125 175 LINE"
);
}
);
width = 500;
}
);
leftKerningGroup = A;
rightKerningGroup = A;
},
{
glyphname = Acircumflex.sc;
lastChange = "2018-04-09 20:03:12 +0000";
layers = (
{
background = {
components = (
{
name = circumflex;
transform = "{1, 0, 0, 1, -50, 0}";
}
);
paths = (
{
closed = 1;
nodes = (
"450 300 LINE",
"450 0 LINE",
"550 0 LINE",
"550 300 LINE"
);
},
{
closed = 1;
nodes = (
"50 300 LINE",
"50 0 LINE",
"150 0 LINE",
"150 300 LINE"
);
},
{
closed = 1;
nodes = (
"150 200 LINE",
"150 100 LINE",
"450 100 LINE",
"450 200 LINE"
);
},
{
closed = 1;
nodes = (
"150 400 LINE",
"150 300 LINE",
"450 300 LINE",
"450 400 LINE"
);
}
);
};
components = (
{
name = circumflex;
transform = "{1, 0, 0, 1, 50, 0}";
}
);
layerId = "F98BA250-6091-4D70-9AF4-192CADB0E332";
paths = (
{
closed = 1;
nodes = (
"300 400 LINE",
"200 400 LINE",
"25 0 LINE",
"125 0 LINE",
"200 175 LINE",
"200 300 LINE",
"300 300 LINE",
"300 175 LINE",
"375 0 LINE",
"475 0 LINE"
);
},
{
closed = 1;
nodes = (
"125 100 LINE",
"375 100 LINE",
"375 175 LINE",
"125 175 LINE"
);
}
);
width = 500;
}
);
leftKerningGroup = A;
rightKerningGroup = A;
},
{
glyphname = Adieresis.sc;
lastChange = "2018-05-09 00:18:21 +0000";
layers = (
{
background = {
components = (
{
name = dieresis;
transform = "{1, 0, 0, 1, -50, 0}";
}
);
paths = (
{
closed = 1;
nodes = (
"450 400 LINE",
"450 0 LINE",
"550 0 LINE",
"550 400 LINE"
);
},
{
closed = 1;
nodes = (
"50 400 LINE",
"50 0 LINE",
"150 0 LINE",
"150 400 LINE"
);
},
{
closed = 1;
nodes = (
"150 300 LINE",
"150 200 LINE",
"450 200 LINE",
"450 300 LINE"
);
},
{
closed = 1;
nodes = (
"150 500 LINE",
"150 400 LINE",
"450 400 LINE",
"450 500 LINE"
);
}
);
};
components = (
{
name = dieresis;
transform = "{1, 0, 0, 1, 50, 0}";
}
);
layerId = "F98BA250-6091-4D70-9AF4-192CADB0E332";
paths = (
{
closed = 1;
nodes = (
"150 100 LINE",
"400 100 LINE",
"400 175 LINE",
"150 175 LINE"
);
},
{
closed = 1;
nodes = (
"250 500 LINE",
"425 0 LINE",
"525 0 LINE",
"350 500 LINE"
);
},
{
closed = 1;
nodes = (
"200 500 LINE",
"25 0 LINE",
"125 0 LINE",
"300 500 LINE"
);
}
);
width = 550;
}
);
leftKerningGroup = A;
rightKerningGroup = A;
},
{
glyphname = Agrave.sc;
lastChange = "2018-04-09 20:03:12 +0000";
layers = (
{
background = {
components = (
{
name = grave;
transform = "{1, 0, 0, 1, -50, 0}";
}
);
paths = (
{
closed = 1;
nodes = (
"450 300 LINE",
"450 0 LINE",
"550 0 LINE",
"550 300 LINE"
);
},
{
closed = 1;
nodes = (
"50 300 LINE",
"50 0 LINE",
"150 0 LINE",
"150 300 LINE"
);
},
{
closed = 1;
nodes = (
"150 200 LINE",
"150 100 LINE",
"450 100 LINE",
"450 200 LINE"
);
},
{
closed = 1;
nodes = (
"150 400 LINE",
"150 300 LINE",
"450 300 LINE",
"450 400 LINE"
);
}
);
};
layerId = "F98BA250-6091-4D70-9AF4-192CADB0E332";
paths = (
{
closed = 1;
nodes = (
"200 600 LINE",
"200 500 LINE",
"400 500 LINE",
"400 600 LINE"
);
},
{
closed = 1;
nodes = (
"100 700 LINE",
"100 600 LINE",
"200 600 LINE",
"200 700 LINE"
);
},
{
closed = 1;
nodes = (
"300 400 LINE",
"200 400 LINE",
"25 0 LINE",
"125 0 LINE",
"200 175 LINE",
"200 300 LINE",
"300 300 LINE",
"300 175 LINE",
"375 0 LINE",
"475 0 LINE"
);
},
{
closed = 1;
nodes = (
"125 100 LINE",
"375 100 LINE",
"375 175 LINE",
"125 175 LINE"
);
}
);
width = 500;
}
);
leftKerningGroup = A;
rightKerningGroup = A;
},
{
glyphname = Aring.sc;
lastChange = "2018-04-09 20:03:12 +0000";
layers = (
{
background = {
components = (
{
name = ring;
transform = "{1, 0, 0, 1, -50, 0}";
}
);
paths = (
{
closed = 1;
nodes = (
"450 300 LINE",
"450 0 LINE",
"550 0 LINE",
"550 300 LINE"
);
},
{
closed = 1;
nodes = (
"50 300 LINE",
"50 0 LINE",
"150 0 LINE",
"150 300 LINE"
);
},
{
closed = 1;
nodes = (
"150 200 LINE",
"150 100 LINE",
"450 100 LINE",
"450 200 LINE"
);
},
{
closed = 1;
nodes = (
"150 400 LINE",
"150 300 LINE",
"450 300 LINE",
"450 400 LINE"
);
}
);
};
components = (
{
name = ring;
transform = "{1, 0, 0, 1, 50, 0}";
}
);
layerId = "F98BA250-6091-4D70-9AF4-192CADB0E332";
paths = (
{
closed = 1;
nodes = (
"300 400 LINE",
"200 400 LINE",
"25 0 LINE",
"125 0 LINE",
"200 175 LINE",
"200 300 LINE",
"300 300 LINE",
"300 175 LINE",
"375 0 LINE",
"475 0 LINE"
);
},
{
closed = 1;
nodes = (
"125 100 LINE",
"375 100 LINE",
"375 175 LINE",
"125 175 LINE"
);
}
);
width = 500;
}
);
leftKerningGroup = A;
rightKerningGroup = A;
},
{
glyphname = Atilde.sc;
lastChange = "2018-04-09 20:03:12 +0000";
layers = (
{
background = {
components = (
{
name = tilde;
transform = "{1, 0, 0, 1, -100, 0}";
}
);
paths = (
{
closed = 1;
nodes = (
"400 300 LINE",
"400 0 LINE",
"500 0 LINE",
"500 300 LINE"
);
},
{
closed = 1;
nodes = (
"0 300 LINE",
"0 0 LINE",
"100 0 LINE",
"100 300 LINE"
);
},
{
closed = 1;
nodes = (
"100 200 LINE",
"100 100 LINE",
"400 100 LINE",
"400 200 LINE"
);
},
{
closed = 1;
nodes = (
"100 400 LINE",
"100 300 LINE",
"400 300 LINE",
"400 400 LINE"
);
}
);
};
components = (
{
name = tilde;
transform = "{1, 0, 0, 1, -50, 0}";
}
);
layerId = "F98BA250-6091-4D70-9AF4-192CADB0E332";
paths = (
{
closed = 1;
nodes = (
"300 400 LINE",
"200 400 LINE",
"25 0 LINE",
"125 0 LINE",
"200 175 LINE",
"200 300 LINE",
"300 300 LINE",
"300 175 LINE",
"375 0 LINE",
"475 0 LINE"
);
},
{
closed = 1;
nodes = (
"125 100 LINE",
"375 100 LINE",
"375 175 LINE",
"125 175 LINE"
);
}
);
width = 500;
}
);
leftKerningGroup = A;
rightKerningGroup = A;
},
{
glyphname = AE.sc;
lastChange = "2018-04-09 20:03:12 +0000";
layers = (
{
background = {
paths = (
{
closed = 1;
nodes = (
"300 700 LINE",
"300 0 LINE",
"400 0 LINE",
"400 700 LINE"
);
},
{
closed = 1;
nodes = (
"100 600 LINE",
"100 0 LINE",
"200 0 LINE",
"200 600 LINE"
);
},
{
closed = 1;
nodes = (
"200 300 LINE",
"200 200 LINE",
"300 200 LINE",
"300 300 LINE"
);
},
{
closed = 1;
nodes = (
"400 100 LINE",
"400 0 LINE",
"600 0 LINE",
"600 100 LINE"
);
},
{
closed = 1;
nodes = (
"400 400 LINE",
"400 300 LINE",
"500 300 LINE",
"500 400 LINE"
);
},
{
closed = 1;
nodes = (
"200 700 LINE",
"200 600 LINE",
"300 600 LINE",
"300 700 LINE"
);
},
{
closed = 1;
nodes = (
"400 700 LINE",
"400 600 LINE",
"600 600 LINE",
"600 700 LINE"
);
}
);
};
layerId = "F98BA250-6091-4D70-9AF4-192CADB0E332";
paths = (
{
closed = 1;
nodes = (
"250 500 LINE",
"250 0 LINE",
"350 0 LINE",
"350 500 LINE"
);
},
{
closed = 1;
nodes = (
"50 400 LINE",
"50 0 LINE",
"150 0 LINE",
"150 400 LINE"
);
},
{
closed = 1;
nodes = (
"350 100 LINE",
"350 0 LINE",
"550 0 LINE",
"550 100 LINE"
);
},
{
closed = 1;
nodes = (
"100 300 LINE",
"100 200 LINE",
"450 200 LINE",
"450 300 LINE"
);
},
{
closed = 1;
nodes = (
"150 500 LINE",
"150 400 LINE",
"250 400 LINE",
"250 500 LINE"
);
},
{
closed = 1;
nodes = (
"350 500 LINE",
"350 400 LINE",
"550 400 LINE",
"550 500 LINE"
);
}
);
width = 600;
}
);
},
{
glyphname = B.sc;
lastChange = "2018-04-09 20:03:12 +0000";
layers = (
{
background = {
paths = (
{
closed = 1;
nodes = (
"100 700 LINE",
"100 0 LINE",
"200 0 LINE",
"200 700 LINE"
);
},
{
closed = 1;
nodes = (
"200 100 LINE",
"200 0 LINE",
"500 0 LINE",
"500 100 LINE"
);
},
{
closed = 1;
nodes = (
"200 400 LINE",
"200 300 LINE",
"500 300 LINE",
"500 400 LINE"
);
},
{
closed = 1;
nodes = (
"500 300 LINE",
"500 100 LINE",
"600 100 LINE",
"600 300 LINE"
);
},
{
closed = 1;
nodes = (
"200 700 LINE",
"200 600 LINE",
"500 600 LINE",
"500 700 LINE"
);
},
{
closed = 1;
nodes = (
"500 600 LINE",
"500 400 LINE",
"600 400 LINE",
"600 600 LINE"
);
}
);
};
layerId = "F98BA250-6091-4D70-9AF4-192CADB0E332";
paths = (
{
closed = 1;
nodes = (
"50 500 LINE",
"50 0 LINE",
"150 0 LINE",
"150 500 LINE"
);
},
{
closed = 1;
nodes = (
"425 225 OFFCURVE",
"475 250 OFFCURVE",
"475 350 CURVE",
"475 450 OFFCURVE",
"425 500 OFFCURVE",
"325 500 CURVE",
"150 500 LINE",
"150 400 LINE",
"375 400 LINE",
"375 300 LINE",
"150 300 LINE",
"150 225 LINE",
"325 225 LINE"
);
},
{
closed = 1;
nodes = (
"450 0 OFFCURVE",
"500 50 OFFCURVE",
"500 150 CURVE",
"500 250 OFFCURVE",
"450 275 OFFCURVE",
"350 275 CURVE",
"150 275 LINE",
"150 200 LINE",
"400 200 LINE",
"400 100 LINE",
"150 100 LINE",
"150 0 LINE",
"350 0 LINE"
);
}
);
width = 550;
}
);
},
{
glyphname = C.sc;
lastChange = "2018-04-09 20:03:12 +0000";
layers = (
{
background = {
paths = (
{
closed = 1;
nodes = (
"25 600 LINE",
"25 100 LINE",
"125 100 LINE",
"125 600 LINE"
);
},
{
closed = 1;
nodes = (
"125 100 LINE",
"125 0 LINE",
"425 0 LINE",
"425 100 LINE"
);
},
{
closed = 1;
nodes = (
"425 200 LINE",
"425 100 LINE",
"525 100 LINE",
"525 200 LINE"
);
},
{
closed = 1;
nodes = (
"125 700 LINE",
"125 600 LINE",
"425 600 LINE",
"425 700 LINE"
);
},
{
closed = 1;
nodes = (
"425 600 LINE",
"425 500 LINE",
"525 500 LINE",
"525 600 LINE"
);
}
);
};
layerId = "F98BA250-6091-4D70-9AF4-192CADB0E332";
paths = (
{
closed = 1;
nodes = (
"150 500 OFFCURVE",
"25 425 OFFCURVE",
"25 250 CURVE",
"25 75 OFFCURVE",
"150 0 OFFCURVE",
"300 0 CURVE",
"425 0 OFFCURVE",
"500 50 OFFCURVE",
"500 50 CURVE",
"500 150 LINE",
"500 150 OFFCURVE",
"425 100 OFFCURVE",
"300 100 CURVE",
"200 100 OFFCURVE",
"125 150 OFFCURVE",
"125 250 CURVE",
"125 350 OFFCURVE",
"200 400 OFFCURVE",
"300 400 CURVE",
"425 400 OFFCURVE",
"500 350 OFFCURVE",
"500 350 CURVE",
"500 450 LINE",
"500 450 OFFCURVE",
"425 500 OFFCURVE",
"300 500 CURVE"
);
}
);
width = 550;
}
);
leftKerningGroup = O;
},
{
glyphname = Ccedilla.sc;
lastChange = "2018-04-09 20:03:12 +0000";
layers = (
{
components = (
{
name = cedilla;
transform = "{1, 0, 0, 1, 100, 0}";
}
);
layerId = "F98BA250-6091-4D70-9AF4-192CADB0E332";
paths = (
{
closed = 1;
nodes = (
"150 500 OFFCURVE",
"25 425 OFFCURVE",
"25 250 CURVE",
"25 75 OFFCURVE",
"150 0 OFFCURVE",
"300 0 CURVE",
"425 0 OFFCURVE",
"500 50 OFFCURVE",
"500 50 CURVE",
"500 150 LINE",
"500 150 OFFCURVE",
"425 100 OFFCURVE",
"300 100 CURVE",
"200 100 OFFCURVE",
"125 150 OFFCURVE",
"125 250 CURVE",
"125 350 OFFCURVE",
"200 400 OFFCURVE",
"300 400 CURVE",
"425 400 OFFCURVE",
"500 350 OFFCURVE",
"500 350 CURVE",
"500 450 LINE",
"500 450 OFFCURVE",
"425 500 OFFCURVE",
"300 500 CURVE"
);
}
);
width = 550;
}
);
leftKerningGroup = O;
},
{
glyphname = D.sc;
lastChange = "2018-04-09 20:03:12 +0000";
layers = (
{
background = {
paths = (
{
closed = 1;
nodes = (
"50 700 LINE",
"50 0 LINE",
"150 0 LINE",
"150 700 LINE"
);
},
{
closed = 1;
nodes = (
"150 100 LINE",
"150 0 LINE",
"450 0 LINE",
"450 100 LINE"
);
},
{
closed = 1;
nodes = (
"450 600 LINE",
"450 100 LINE",
"550 100 LINE",
"550 600 LINE"
);
},
{
closed = 1;
nodes = (
"150 700 LINE",
"150 600 LINE",
"450 600 LINE",
"450 700 LINE"
);
}
);
};
layerId = "F98BA250-6091-4D70-9AF4-192CADB0E332";
paths = (
{
closed = 1;
nodes = (
"150 500 LINE",
"150 400 LINE",
"225 400 LINE",
"325 400 OFFCURVE",
"425 375 OFFCURVE",
"425 250 CURVE",
"425 125 OFFCURVE",
"325 100 OFFCURVE",
"225 100 CURVE",
"150 100 LINE",
"150 0 LINE",
"225 0 LINE",
"400 0 OFFCURVE",
"525 75 OFFCURVE",
"525 250 CURVE",
"525 425 OFFCURVE",
"400 500 OFFCURVE",
"225 500 CURVE"
);
},
{
closed = 1;
nodes = (
"50 500 LINE",
"50 0 LINE",
"150 0 LINE",
"150 500 LINE"
);
}
);
width = 550;
}
);
rightKerningGroup = O;
},
{
glyphname = E.sc;
lastChange = "2018-04-09 20:03:12 +0000";
layers = (
{
background = {
paths = (
{
closed = 1;
nodes = (
"100 700 LINE",
"100 0 LINE",
"200 0 LINE",
"200 700 LINE"
);
},
{
closed = 1;
nodes = (
"200 100 LINE",
"200 0 LINE",
"600 0 LINE",
"600 100 LINE"
);
},
{
closed = 1;
nodes = (
"200 400 LINE",
"200 300 LINE",
"400 300 LINE",
"400 400 LINE"
);
},
{
closed = 1;
nodes = (
"200 700 LINE",
"200 600 LINE",
"600 600 LINE",
"600 700 LINE"
);
}
);
};
layerId = "F98BA250-6091-4D70-9AF4-192CADB0E332";
paths = (
{
closed = 1;
nodes = (
"50 500 LINE",
"50 0 LINE",
"150 0 LINE",
"150 500 LINE"
);
},
{
closed = 1;
nodes = (
"150 100 LINE",
"150 0 LINE",
"450 0 LINE",
"450 100 LINE"
);
},
{
closed = 1;
nodes = (
"150 300 LINE",
"150 200 LINE",
"350 200 LINE",
"350 300 LINE"
);
},
{
closed = 1;
nodes = (
"150 500 LINE",
"150 400 LINE",
"450 400 LINE",
"450 500 LINE"
);
}
);
width = 500;
}
);
},
{
glyphname = Eacute.sc;
lastChange = "2018-04-09 20:03:12 +0000";
layers = (
{
background = {
components = (
{
name = acute;
}
);
paths = (
{
closed = 1;
nodes = (
"200 500 LINE",
"200 0 LINE",
"300 0 LINE",
"300 500 LINE"
);
},
{
closed = 1;
nodes = (
"300 100 LINE",
"300 0 LINE",
"600 0 LINE",
"600 100 LINE"
);
},
{
closed = 1;
nodes = (
"300 300 LINE",
"300 200 LINE",
"400 200 LINE",
"400 300 LINE"
);
},
{
closed = 1;
nodes = (
"300 500 LINE",
"300 400 LINE",
"600 400 LINE",
"600 500 LINE"
);
}
);
};
components = (
{
name = acute;
transform = "{1, 0, 0, 1, 100, 0}";
}
);
layerId = "F98BA250-6091-4D70-9AF4-192CADB0E332";
paths = (
{
closed = 1;
nodes = (
"50 500 LINE",
"50 0 LINE",
"150 0 LINE",
"150 500 LINE"
);
},
{
closed = 1;
nodes = (
"150 100 LINE",
"150 0 LINE",
"450 0 LINE",
"450 100 LINE"
);
},
{
closed = 1;
nodes = (
"150 300 LINE",
"150 200 LINE",
"250 200 LINE",
"250 300 LINE"
);
},
{
closed = 1;
nodes = (
"150 500 LINE",
"150 400 LINE",
"450 400 LINE",
"450 500 LINE"
);
}
);
width = 500;
}
);
},
{
glyphname = Ecircumflex.sc;
lastChange = "2018-04-09 20:03:12 +0000";
layers = (
{
background = {
components = (
{
name = circumflex;
transform = "{1, 0, 0, 1, 50, 0}";
}
);
paths = (
{
closed = 1;
nodes = (
"200 500 LINE",
"200 0 LINE",
"300 0 LINE",
"300 500 LINE"
);
},
{
closed = 1;
nodes = (
"300 100 LINE",
"300 0 LINE",
"600 0 LINE",
"600 100 LINE"
);
},
{
closed = 1;
nodes = (
"300 300 LINE",
"300 200 LINE",
"400 200 LINE",
"400 300 LINE"
);
},
{
closed = 1;
nodes = (
"300 500 LINE",
"300 400 LINE",
"600 400 LINE",
"600 500 LINE"
);
}
);
};
components = (
{
name = circumflex;
transform = "{1, 0, 0, 1, 100, 0}";
}
);
layerId = "F98BA250-6091-4D70-9AF4-192CADB0E332";
paths = (
{
closed = 1;
nodes = (
"50 500 LINE",
"50 0 LINE",
"150 0 LINE",
"150 500 LINE"
);
},
{
closed = 1;
nodes = (
"150 100 LINE",
"150 0 LINE",
"450 0 LINE",
"450 100 LINE"
);
},
{
closed = 1;
nodes = (
"150 300 LINE",
"150 200 LINE",
"250 200 LINE",
"250 300 LINE"
);
},
{
closed = 1;
nodes = (
"150 500 LINE",
"150 400 LINE",
"450 400 LINE",
"450 500 LINE"
);
}
);
width = 500;
}
);
},
{
glyphname = Edieresis.sc;
lastChange = "2018-04-09 20:03:12 +0000";
layers = (
{
background = {
components = (
{
name = dieresis;
}
);
paths = (
{
closed = 1;
nodes = (
"200 500 LINE",
"200 0 LINE",
"300 0 LINE",
"300 500 LINE"
);
},
{
closed = 1;
nodes = (
"300 100 LINE",
"300 0 LINE",
"600 0 LINE",
"600 100 LINE"
);
},
{
closed = 1;
nodes = (
"300 300 LINE",
"300 200 LINE",
"400 200 LINE",
"400 300 LINE"
);
},
{
closed = 1;
nodes = (
"300 500 LINE",
"300 400 LINE",
"600 400 LINE",
"600 500 LINE"
);
}
);
};
components = (
{
name = dieresis;
transform = "{1, 0, 0, 1, 50, 0}";
}
);
layerId = "F98BA250-6091-4D70-9AF4-192CADB0E332";
paths = (
{
closed = 1;
nodes = (
"100 500 LINE",
"100 0 LINE",
"200 0 LINE",
"200 500 LINE"
);
},
{
closed = 1;
nodes = (
"200 100 LINE",
"200 0 LINE",
"500 0 LINE",
"500 100 LINE"
);
},
{
closed = 1;
nodes = (
"200 300 LINE",
"200 200 LINE",
"300 200 LINE",
"300 300 LINE"
);
},
{
closed = 1;
nodes = (
"200 500 LINE",
"200 400 LINE",
"500 400 LINE",
"500 500 LINE"
);
}
);
width = 550;
}
);
},
{
glyphname = Egrave.sc;
lastChange = "2018-04-09 20:03:12 +0000";
layers = (
{
background = {
components = (
{
name = grave;
transform = "{1, 0, 0, 1, 50, 0}";
}
);
paths = (
{
closed = 1;
nodes = (
"200 500 LINE",
"200 0 LINE",
"300 0 LINE",
"300 500 LINE"
);
},
{
closed = 1;
nodes = (
"300 100 LINE",
"300 0 LINE",
"600 0 LINE",
"600 100 LINE"
);
},
{
closed = 1;
nodes = (
"300 300 LINE",
"300 200 LINE",
"400 200 LINE",
"400 300 LINE"
);
},
{
closed = 1;
nodes = (
"300 500 LINE",
"300 400 LINE",
"600 400 LINE",
"600 500 LINE"
);
}
);
};
components = (
{
name = grave;
transform = "{1, 0, 0, 1, 100, 0}";
}
);
layerId = "F98BA250-6091-4D70-9AF4-192CADB0E332";
paths = (
{
closed = 1;
nodes = (
"50 500 LINE",
"50 0 LINE",
"150 0 LINE",
"150 500 LINE"
);
},
{
closed = 1;
nodes = (
"150 100 LINE",
"150 0 LINE",
"450 0 LINE",
"450 100 LINE"
);
},
{
closed = 1;
nodes = (
"150 300 LINE",
"150 200 LINE",
"250 200 LINE",
"250 300 LINE"
);
},
{
closed = 1;
nodes = (
"150 500 LINE",
"150 400 LINE",
"450 400 LINE",
"450 500 LINE"
);
}
);
width = 500;
}
);
},
{
glyphname = F.sc;
lastChange = "2018-04-09 20:03:12 +0000";
layers = (
{
background = {
paths = (
{
closed = 1;
nodes = (
"100 700 LINE",
"100 0 LINE",
"200 0 LINE",
"200 700 LINE"
);
},
{
closed = 1;
nodes = (
"200 400 LINE",
"200 300 LINE",
"400 300 LINE",
"400 400 LINE"
);
},
{
closed = 1;
nodes = (
"200 700 LINE",
"200 600 LINE",
"600 600 LINE",
"600 700 LINE"
);
}
);
};
layerId = "F98BA250-6091-4D70-9AF4-192CADB0E332";
paths = (
{
closed = 1;
nodes = (
"50 500 LINE",
"50 0 LINE",
"150 0 LINE",
"150 500 LINE"
);
},
{
closed = 1;
nodes = (
"150 300 LINE",
"150 200 LINE",
"350 200 LINE",
"350 300 LINE"
);
},
{
closed = 1;
nodes = (
"150 500 LINE",
"150 400 LINE",
"450 400 LINE",
"450 500 LINE"
);
}
);
width = 500;
}
);
rightKerningGroup = F;
},
{
glyphname = G.sc;
lastChange = "2018-05-21 18:31:51 +0000";
layers = (
{
background = {
paths = (
{
closed = 1;
nodes = (
"150 600 LINE",
"450 600 LINE",
"450 700 LINE",
"150 700 LINE"
);
},
{
closed = 1;
nodes = (
"450 500 LINE",
"550 500 LINE",
"550 600 LINE",
"450 600 LINE"
);
},
{
closed = 1;
nodes = (
"50 100 LINE",
"150 100 LINE",
"150 600 LINE",
"50 600 LINE"
);
},
{
closed = 1;
nodes = (
"150 0 LINE",
"550 0 LINE",
"550 100 LINE",
"150 100 LINE"
);
},
{
closed = 1;
nodes = (
"450 100 LINE",
"550 100 LINE",
"550 200 LINE",
"450 200 LINE"
);
},
{
closed = 1;
nodes = (
"350 200 LINE",
"550 200 LINE",
"550 300 LINE",
"350 300 LINE"
);
}
);
};
layerId = "F98BA250-6091-4D70-9AF4-192CADB0E332";
paths = (
{
closed = 1;
nodes = (
"300 300 LINE",
"300 200 LINE",
"400 200 LINE",
"400 300 LINE"
);
},
{
closed = 1;
nodes = (
"400 300 LINE",
"400 100 LINE",
"500 100 LINE",
"500 300 LINE"
);
},
{
closed = 1;
nodes = (
"150 500 OFFCURVE",
"25 425 OFFCURVE",
"25 250 CURVE",
"25 75 OFFCURVE",
"150 0 OFFCURVE",
"300 0 CURVE",
"425 0 OFFCURVE",
"500 25 OFFCURVE",
"500 25 CURVE",
"500 100 LINE",
"300 100 LINE",
"200 100 OFFCURVE",
"125 150 OFFCURVE",
"125 250 CURVE",
"125 350 OFFCURVE",
"200 400 OFFCURVE",
"300 400 CURVE",
"425 400 OFFCURVE",
"500 350 OFFCURVE",
"500 350 CURVE",
"500 450 LINE",
"500 450 OFFCURVE",
"425 500 OFFCURVE",
"300 500 CURVE"
);
}
);
width = 550;
}
);
leftKerningGroup = O;
},
{
glyphname = H.sc;
lastChange = "2018-04-09 20:03:12 +0000";
layers = (
{
background = {
paths = (
{
closed = 1;
nodes = (
"450 700 LINE",
"450 0 LINE",
"550 0 LINE",
"550 700 LINE"
);
},
{
closed = 1;
nodes = (
"50 700 LINE",
"50 0 LINE",
"150 0 LINE",
"150 700 LINE"
);
},
{
closed = 1;
nodes = (
"150 400 LINE",
"150 300 LINE",
"450 300 LINE",
"450 400 LINE"
);
}
);
};
layerId = "F98BA250-6091-4D70-9AF4-192CADB0E332";
paths = (
{
closed = 1;
nodes = (
"450 500 LINE",
"450 0 LINE",
"550 0 LINE",
"550 500 LINE"
);
},
{
closed = 1;
nodes = (
"50 500 LINE",
"50 0 LINE",
"150 0 LINE",
"150 500 LINE"
);
},
{
closed = 1;
nodes = (
"150 300 LINE",
"150 200 LINE",
"450 200 LINE",
"450 300 LINE"
);
}
);
width = 600;
}
);
},
{
glyphname = I.sc;
lastChange = "2018-04-09 20:03:12 +0000";
layers = (
{
background = {
paths = (
{
closed = 1;
nodes = (
"300 600 LINE",
"300 100 LINE",
"400 100 LINE",
"400 600 LINE"
);
},
{
closed = 1;
nodes = (
"200 100 LINE",
"200 0 LINE",
"500 0 LINE",
"500 100 LINE"
);
},
{
closed = 1;
nodes = (
"200 700 LINE",
"200 600 LINE",
"500 600 LINE",
"500 700 LINE"
);
}
);
};
layerId = "F98BA250-6091-4D70-9AF4-192CADB0E332";
paths = (
{
closed = 1;
nodes = (
"150 400 LINE",
"150 100 LINE",
"250 100 LINE",
"250 400 LINE"
);
},
{
closed = 1;
nodes = (
"50 100 LINE",
"50 0 LINE",
"350 0 LINE",
"350 100 LINE"
);
},
{
closed = 1;
nodes = (
"50 500 LINE",
"50 400 LINE",
"350 400 LINE",
"350 500 LINE"
);
}
);
width = 400;
}
);
},
{
glyphname = IJ.sc;
lastChange = "2018-04-09 20:03:12 +0000";
layers = (
{
background = {
paths = (
{
closed = 1;
nodes = (
"100 700 LINE",
"100 600 LINE",
"600 600 LINE",
"600 700 LINE"
);
},
{
closed = 1;
nodes = (
"100 200 LINE",
"100 100 LINE",
"200 100 LINE",
"200 200 LINE"
);
},
{
closed = 1;
nodes = (
"200 100 LINE",
"200 0 LINE",
"400 0 LINE",
"400 100 LINE"
);
},
{
closed = 1;
nodes = (
"200 600 LINE",
"200 100 LINE",
"300 100 LINE",
"300 600 LINE"
);
},
{
closed = 1;
nodes = (
"400 600 LINE",
"400 100 LINE",
"500 100 LINE",
"500 600 LINE"
);
}
);
};
layerId = "F98BA250-6091-4D70-9AF4-192CADB0E332";
paths = (
{
closed = 1;
nodes = (
"350 500 LINE",
"350 250 LINE",
"350 150 OFFCURVE",
"300 100 OFFCURVE",
"225 100 CURVE",
"125 100 OFFCURVE",
"50 200 OFFCURVE",
"50 200 CURVE",
"50 75 LINE",
"50 75 OFFCURVE",
"100 0 OFFCURVE",
"225 0 CURVE",
"350 0 OFFCURVE",
"450 75 OFFCURVE",
"450 250 CURVE",
"450 500 LINE"
);
},
{
closed = 1;
nodes = (
"50 500 LINE",
"50 300 LINE",
"150 300 LINE",
"150 500 LINE"
);
},
{
closed = 1;
nodes = (
"250 500 LINE",
"250 400 LINE",
"550 400 LINE",
"550 500 LINE"
);
}
);
width = 600;
}
);
},
{
glyphname = Iacute.sc;
lastChange = "2018-04-09 20:03:12 +0000";
layers = (
{
background = {
components = (
{
name = acute;
}
);
paths = (
{
closed = 1;
nodes = (
"300 400 LINE",
"300 100 LINE",
"400 100 LINE",
"400 400 LINE"
);
},
{
closed = 1;
nodes = (
"200 100 LINE",
"200 0 LINE",
"500 0 LINE",
"500 100 LINE"
);
},
{
closed = 1;
nodes = (
"200 500 LINE",
"200 400 LINE",
"500 400 LINE",
"500 500 LINE"
);
}
);
};
layerId = "F98BA250-6091-4D70-9AF4-192CADB0E332";
paths = (
{
closed = 1;
nodes = (
"50 400 LINE",
"50 300 LINE",
"350 300 LINE",
"350 400 LINE"
);
},
{
closed = 1;
nodes = (
"50 100 LINE",
"50 0 LINE",
"350 0 LINE",
"350 100 LINE"
);
},
{
closed = 1;
nodes = (
"150 300 LINE",
"150 100 LINE",
"250 100 LINE",
"250 300 LINE"
);
},
{
closed = 1;
nodes = (
"250 700 LINE",
"250 600 LINE",
"350 600 LINE",
"350 700 LINE"
);
},
{
closed = 1;
nodes = (
"50 600 LINE",
"50 500 LINE",
"250 500 LINE",
"250 600 LINE"
);
}
);
width = 400;
}
);
},
{
glyphname = Icircumflex.sc;
lastChange = "2018-04-09 20:03:12 +0000";
layers = (
{
background = {
components = (
{
name = circumflex;
}
);
paths = (
{
closed = 1;
nodes = (
"300 300 LINE",
"300 100 LINE",
"400 100 LINE",
"400 300 LINE"
);
},
{
closed = 1;
nodes = (
"200 100 LINE",
"200 0 LINE",
"500 0 LINE",
"500 100 LINE"
);
},
{
closed = 1;
nodes = (
"200 400 LINE",
"200 300 LINE",
"500 300 LINE",
"500 400 LINE"
);
}
);
};
components = (
{
name = circumflex;
transform = "{1, 0, 0, 1, 50, 0}";
}
);
layerId = "F98BA250-6091-4D70-9AF4-192CADB0E332";
paths = (
{
closed = 1;
nodes = (
"100 400 LINE",
"100 300 LINE",
"400 300 LINE",
"400 400 LINE"
);
},
{
closed = 1;
nodes = (
"100 100 LINE",
"100 0 LINE",
"400 0 LINE",
"400 100 LINE"
);
},
{
closed = 1;
nodes = (
"200 300 LINE",
"200 100 LINE",
"300 100 LINE",
"300 300 LINE"
);
}
);
width = 450;
}
);
},
{
glyphname = Idieresis.sc;
lastChange = "2018-04-09 20:03:12 +0000";
layers = (
{
background = {
components = (
{
name = dieresis;
}
);
paths = (
{
closed = 1;
nodes = (
"300 400 LINE",
"300 100 LINE",
"400 100 LINE",
"400 400 LINE"
);
},
{
closed = 1;
nodes = (
"200 100 LINE",
"200 0 LINE",
"500 0 LINE",
"500 100 LINE"
);
},
{
closed = 1;
nodes = (
"200 500 LINE",
"200 400 LINE",
"500 400 LINE",
"500 500 LINE"
);
}
);
};
components = (
{
name = dieresis;
transform = "{1, 0, 0, 1, 50, 0}";
}
);
layerId = "F98BA250-6091-4D70-9AF4-192CADB0E332";
paths = (
{
closed = 1;
nodes = (
"100 500 LINE",
"100 400 LINE",
"400 400 LINE",
"400 500 LINE"
);
},
{
closed = 1;
nodes = (
"100 100 LINE",
"100 0 LINE",
"400 0 LINE",
"400 100 LINE"
);
},
{
closed = 1;
nodes = (
"200 400 LINE",
"200 100 LINE",
"300 100 LINE",
"300 400 LINE"
);
}
);
width = 450;
}
);
},
{
glyphname = Igrave.sc;
lastChange = "2018-04-09 20:03:12 +0000";
layers = (
{
background = {
components = (
{
name = grave;
}
);
paths = (
{
closed = 1;
nodes = (
"300 400 LINE",
"300 100 LINE",
"400 100 LINE",
"400 400 LINE"
);
},
{
closed = 1;
nodes = (
"200 100 LINE",
"200 0 LINE",
"500 0 LINE",
"500 100 LINE"
);
},
{
closed = 1;
nodes = (
"200 500 LINE",
"200 400 LINE",
"500 400 LINE",
"500 500 LINE"
);
}
);
};
layerId = "F98BA250-6091-4D70-9AF4-192CADB0E332";
paths = (
{
closed = 1;
nodes = (
"100 400 LINE",
"100 300 LINE",
"400 300 LINE",
"400 400 LINE"
);
},
{
closed = 1;
nodes = (
"100 100 LINE",
"100 0 LINE",
"400 0 LINE",
"400 100 LINE"
);
},
{
closed = 1;
nodes = (
"200 300 LINE",
"200 100 LINE",
"300 100 LINE",
"300 300 LINE"
);
},
{
closed = 1;
nodes = (
"200 600 LINE",
"200 500 LINE",
"400 500 LINE",
"400 600 LINE"
);
},
{
closed = 1;
nodes = (
"100 700 LINE",
"100 600 LINE",
"200 600 LINE",
"200 700 LINE"
);
}
);
width = 450;
}
);
},
{
glyphname = J.sc;
lastChange = "2018-04-09 20:03:12 +0000";
layers = (
{
background = {
paths = (
{
closed = 1;
nodes = (
"450 600 LINE",
"450 100 LINE",
"550 100 LINE",
"550 600 LINE"
);
},
{
closed = 1;
nodes = (
"150 200 LINE",
"150 100 LINE",
"250 100 LINE",
"250 200 LINE"
);
},
{
closed = 1;
nodes = (
"250 100 LINE",
"250 0 LINE",
"450 0 LINE",
"450 100 LINE"
);
},
{
closed = 1;
nodes = (
"350 700 LINE",
"350 600 LINE",
"650 600 LINE",
"650 700 LINE"
);
}
);
};
layerId = "F98BA250-6091-4D70-9AF4-192CADB0E332";
paths = (
{
closed = 1;
nodes = (
"350 500 LINE",
"350 250 LINE",
"350 150 OFFCURVE",
"300 100 OFFCURVE",
"225 100 CURVE",
"125 100 OFFCURVE",
"50 200 OFFCURVE",
"50 200 CURVE",
"50 75 LINE",
"50 75 OFFCURVE",
"100 0 OFFCURVE",
"225 0 CURVE",
"350 0 OFFCURVE",
"450 75 OFFCURVE",
"450 250 CURVE",
"450 500 LINE"
);
},
{
closed = 1;
nodes = (
"150 500 LINE",
"150 400 LINE",
"550 400 LINE",
"550 500 LINE"
);
}
);
width = 600;
}
);
leftKerningGroup = J;
rightKerningGroup = J;
},
{
glyphname = K.sc;
lastChange = "2018-04-09 20:03:12 +0000";
layers = (
{
background = {
paths = (
{
closed = 1;
nodes = (
"150 700 LINE",
"150 0 LINE",
"250 0 LINE",
"250 700 LINE"
);
},
{
closed = 1;
nodes = (
"250 400 LINE",
"250 300 LINE",
"350 300 LINE",
"350 400 LINE"
);
},
{
closed = 1;
nodes = (
"350 300 LINE",
"350 200 LINE",
"450 200 LINE",
"450 300 LINE"
);
},
{
closed = 1;
nodes = (
"450 200 LINE",
"450 100 LINE",
"550 100 LINE",
"550 200 LINE"
);
},
{
closed = 1;
nodes = (
"550 100 LINE",
"550 0 LINE",
"650 0 LINE",
"650 100 LINE"
);
},
{
closed = 1;
nodes = (
"350 500 LINE",
"350 400 LINE",
"450 400 LINE",
"450 500 LINE"
);
},
{
closed = 1;
nodes = (
"450 600 LINE",
"450 500 LINE",
"550 500 LINE",
"550 600 LINE"
);
},
{
closed = 1;
nodes = (
"550 700 LINE",
"550 600 LINE",
"650 600 LINE",
"650 700 LINE"
);
}
);
};
layerId = "F98BA250-6091-4D70-9AF4-192CADB0E332";
paths = (
{
closed = 1;
nodes = (
"150 0 LINE",
"150 500 LINE",
"50 500 LINE",
"50 0 LINE"
);
},
{
closed = 1;
nodes = (
"225 125 LINE",
"325 0 LINE",
"450 0 LINE",
"250 250 LINE",
"150 250 LINE"
);
},
{
closed = 1;
nodes = (
"225 375 LINE",
"125 225 LINE",
"50 0 LINE",
"450 500 LINE",
"325 500 LINE"
);
}
);
width = 450;
}
);
},
{
glyphname = L.sc;
lastChange = "2018-04-09 20:03:12 +0000";
layers = (
{
background = {
paths = (
{
closed = 1;
nodes = (
"100 700 LINE",
"100 0 LINE",
"200 0 LINE",
"200 700 LINE"
);
},
{
closed = 1;
nodes = (
"200 100 LINE",
"200 0 LINE",
"600 0 LINE",
"600 100 LINE"
);
}
);
};
layerId = "F98BA250-6091-4D70-9AF4-192CADB0E332";
paths = (
{
closed = 1;
nodes = (
"50 500 LINE",
"50 0 LINE",
"150 0 LINE",
"150 500 LINE"
);
},
{
closed = 1;
nodes = (
"150 100 LINE",
"150 0 LINE",
"450 0 LINE",
"450 100 LINE"
);
}
);
width = 500;
}
);
rightKerningGroup = L;
},
{
glyphname = M.sc;
lastChange = "2018-04-09 20:03:12 +0000";
layers = (
{
background = {
paths = (
{
closed = 1;
nodes = (
"525 700 LINE",
"525 0 LINE",
"625 0 LINE",
"625 700 LINE"
);
},
{
closed = 1;
nodes = (
"125 700 LINE",
"125 0 LINE",
"225 0 LINE",
"225 700 LINE"
);
},
{
closed = 1;
nodes = (
"225 600 LINE",
"225 500 LINE",
"325 500 LINE",
"325 600 LINE"
);
},
{
closed = 1;
nodes = (
"325 500 LINE",
"325 400 LINE",
"425 400 LINE",
"425 500 LINE"
);
},
{
closed = 1;
nodes = (
"425 600 LINE",
"425 500 LINE",
"525 500 LINE",
"525 600 LINE"
);
}
);
};
layerId = "F98BA250-6091-4D70-9AF4-192CADB0E332";
paths = (
{
closed = 1;
nodes = (
"500 500 LINE",
"325 275 LINE",
"150 500 LINE",
"50 500 LINE",
"50 0 LINE",
"150 0 LINE",
"150 350 LINE",
"325 125 LINE",
"500 350 LINE",
"500 0 LINE",
"600 0 LINE",
"600 500 LINE"
);
}
);
width = 650;
}
);
},
{
glyphname = N.sc;
lastChange = "2018-04-09 20:03:12 +0000";
layers = (
{
background = {
paths = (
{
closed = 1;
nodes = (
"450 700 LINE",
"450 0 LINE",
"550 0 LINE",
"550 700 LINE"
);
},
{
closed = 1;
nodes = (
"50 700 LINE",
"50 0 LINE",
"150 0 LINE",
"150 700 LINE"
);
},
{
closed = 1;
nodes = (
"150 500 LINE",
"150 400 LINE",
"250 400 LINE",
"250 500 LINE"
);
},
{
closed = 1;
nodes = (
"250 400 LINE",
"250 300 LINE",
"350 300 LINE",
"350 400 LINE"
);
},
{
closed = 1;
nodes = (
"350 300 LINE",
"350 200 LINE",
"450 200 LINE",
"450 300 LINE"
);
}
);
};
layerId = "F98BA250-6091-4D70-9AF4-192CADB0E332";
paths = (
{
closed = 1;
nodes = (
"450 500 LINE",
"450 125 LINE",
"475 125 LINE",
"150 500 LINE",
"50 500 LINE",
"50 0 LINE",
"150 0 LINE",
"150 375 LINE",
"125 375 LINE",
"450 0 LINE",
"550 0 LINE",
"550 500 LINE"
);
}
);
width = 600;
}
);
},
{
glyphname = Ntilde.sc;
lastChange = "2018-04-09 20:03:12 +0000";
layers = (
{
background = {
components = (
{
name = tilde;
transform = "{1, 0, 0, 1, -50, 0}";
}
);
paths = (
{
closed = 1;
nodes = (
"450 400 LINE",
"450 0 LINE",
"550 0 LINE",
"550 400 LINE"
);
},
{
closed = 1;
nodes = (
"50 400 LINE",
"50 0 LINE",
"150 0 LINE",
"150 400 LINE"
);
},
{
closed = 1;
nodes = (
"150 400 LINE",
"150 300 LINE",
"250 300 LINE",
"250 400 LINE"
);
},
{
closed = 1;
nodes = (
"250 300 LINE",
"250 100 LINE",
"350 100 LINE",
"350 300 LINE"
);
},
{
closed = 1;
nodes = (
"350 100 LINE",
"350 0 LINE",
"450 0 LINE",
"450 100 LINE"
);
}
);
};
components = (
{
name = tilde;
}
);
layerId = "F98BA250-6091-4D70-9AF4-192CADB0E332";
paths = (
{
closed = 1;
nodes = (
"450 400 LINE",
"450 100 LINE",
"550 50 LINE",
"150 400 LINE",
"50 400 LINE",
"50 0 LINE",
"150 0 LINE",
"150 300 LINE",
"50 350 LINE",
"450 0 LINE",
"550 0 LINE",
"550 400 LINE"
);
}
);
width = 600;
}
);
},
{
glyphname = O.sc;
lastChange = "2018-04-09 20:03:12 +0000";
layers = (
{
background = {
paths = (
{
closed = 1;
nodes = (
"475 600 LINE",
"475 100 LINE",
"575 100 LINE",
"575 600 LINE"
);
},
{
closed = 1;
nodes = (
"175 100 LINE",
"175 0 LINE",
"475 0 LINE",
"475 100 LINE"
);
},
{
closed = 1;
nodes = (
"75 600 LINE",
"75 100 LINE",
"175 100 LINE",
"175 600 LINE"
);
},
{
closed = 1;
nodes = (
"175 700 LINE",
"175 600 LINE",
"475 600 LINE",
"475 700 LINE"
);
}
);
};
layerId = "F98BA250-6091-4D70-9AF4-192CADB0E332";
paths = (
{
closed = 1;
nodes = (
"125 500 OFFCURVE",
"25 400 OFFCURVE",
"25 250 CURVE",
"25 100 OFFCURVE",
"125 0 OFFCURVE",
"275 0 CURVE",
"425 0 OFFCURVE",
"525 100 OFFCURVE",
"525 250 CURVE",
"525 400 OFFCURVE",
"425 500 OFFCURVE",
"275 500 CURVE"
);
},
{
closed = 1;
nodes = (
"350 400 OFFCURVE",
"425 350 OFFCURVE",
"425 250 CURVE",
"425 150 OFFCURVE",
"350 100 OFFCURVE",
"275 100 CURVE",
"200 100 OFFCURVE",
"125 150 OFFCURVE",
"125 250 CURVE",
"125 350 OFFCURVE",
"200 400 OFFCURVE",
"275 400 CURVE"
);
}
);
width = 550;
}
);
leftKerningGroup = O;
rightKerningGroup = O;
},
{
glyphname = Oacute.sc;
lastChange = "2018-04-09 20:03:12 +0000";
layers = (
{
background = {
components = (
{
name = acute;
}
);
paths = (
{
closed = 1;
nodes = (
"500 300 LINE",
"500 100 LINE",
"600 100 LINE",
"600 300 LINE"
);
},
{
closed = 1;
nodes = (
"200 100 LINE",
"200 0 LINE",
"500 0 LINE",
"500 100 LINE"
);
},
{
closed = 1;
nodes = (
"100 300 LINE",
"100 100 LINE",
"200 100 LINE",
"200 300 LINE"
);
},
{
closed = 1;
nodes = (
"200 400 LINE",
"200 300 LINE",
"500 300 LINE",
"500 400 LINE"
);
}
);
};
layerId = "F98BA250-6091-4D70-9AF4-192CADB0E332";
paths = (
{
closed = 1;
nodes = (
"350 700 LINE",
"350 600 LINE",
"450 600 LINE",
"450 700 LINE"
);
},
{
closed = 1;
nodes = (
"150 600 LINE",
"150 500 LINE",
"350 500 LINE",
"350 600 LINE"
);
},
{
closed = 1;
nodes = (
"125 400 OFFCURVE",
"25 325 OFFCURVE",
"25 200 CURVE",
"25 75 OFFCURVE",
"125 0 OFFCURVE",
"300 0 CURVE",
"475 0 OFFCURVE",
"575 75 OFFCURVE",
"575 200 CURVE",
"575 325 OFFCURVE",
"475 400 OFFCURVE",
"300 400 CURVE"
);
},
{
closed = 1;
nodes = (
"400 300 OFFCURVE",
"475 275 OFFCURVE",
"475 200 CURVE",
"475 125 OFFCURVE",
"400 100 OFFCURVE",
"300 100 CURVE",
"200 100 OFFCURVE",
"125 125 OFFCURVE",
"125 200 CURVE",
"125 275 OFFCURVE",
"200 300 OFFCURVE",
"300 300 CURVE"
);
}
);
width = 600;
}
);
leftKerningGroup = O;
rightKerningGroup = O;
},
{
glyphname = Ocircumflex.sc;
lastChange = "2018-04-09 20:03:12 +0000";
layers = (
{
background = {
components = (
{
name = circumflex;
}
);
paths = (
{
closed = 1;
nodes = (
"500 300 LINE",
"500 100 LINE",
"600 100 LINE",
"600 300 LINE"
);
},
{
closed = 1;
nodes = (
"200 100 LINE",
"200 0 LINE",
"500 0 LINE",
"500 100 LINE"
);
},
{
closed = 1;
nodes = (
"100 300 LINE",
"100 100 LINE",
"200 100 LINE",
"200 300 LINE"
);
},
{
closed = 1;
nodes = (
"200 400 LINE",
"200 300 LINE",
"500 300 LINE",
"500 400 LINE"
);
}
);
};
components = (
{
name = circumflex;
transform = "{1, 0, 0, 1, 100, 0}";
}
);
layerId = "F98BA250-6091-4D70-9AF4-192CADB0E332";
paths = (
{
closed = 1;
nodes = (
"125 400 OFFCURVE",
"25 325 OFFCURVE",
"25 200 CURVE",
"25 75 OFFCURVE",
"125 0 OFFCURVE",
"300 0 CURVE",
"475 0 OFFCURVE",
"575 75 OFFCURVE",
"575 200 CURVE",
"575 325 OFFCURVE",
"475 400 OFFCURVE",
"300 400 CURVE"
);
},
{
closed = 1;
nodes = (
"400 300 OFFCURVE",
"475 275 OFFCURVE",
"475 200 CURVE",
"475 125 OFFCURVE",
"400 100 OFFCURVE",
"300 100 CURVE",
"200 100 OFFCURVE",
"125 125 OFFCURVE",
"125 200 CURVE",
"125 275 OFFCURVE",
"200 300 OFFCURVE",
"300 300 CURVE"
);
}
);
width = 600;
}
);
leftKerningGroup = O;
rightKerningGroup = O;
},
{
glyphname = Odieresis.sc;
lastChange = "2018-04-09 20:03:12 +0000";
layers = (
{
background = {
components = (
{
name = dieresis;
transform = "{1, 0, 0, 1, -50, 0}";
}
);
paths = (
{
closed = 1;
nodes = (
"450 400 LINE",
"450 100 LINE",
"550 100 LINE",
"550 400 LINE"
);
},
{
closed = 1;
nodes = (
"150 100 LINE",
"150 0 LINE",
"450 0 LINE",
"450 100 LINE"
);
},
{
closed = 1;
nodes = (
"50 400 LINE",
"50 100 LINE",
"150 100 LINE",
"150 400 LINE"
);
},
{
closed = 1;
nodes = (
"150 500 LINE",
"150 400 LINE",
"450 400 LINE",
"450 500 LINE"
);
}
);
};
components = (
{
name = dieresis;
transform = "{1, 0, 0, 1, 50, 0}";
}
);
layerId = "F98BA250-6091-4D70-9AF4-192CADB0E332";
paths = (
{
closed = 1;
nodes = (
"100 500 OFFCURVE",
"25 400 OFFCURVE",
"25 250 CURVE",
"25 100 OFFCURVE",
"100 0 OFFCURVE",
"250 0 CURVE",
"400 0 OFFCURVE",
"475 100 OFFCURVE",
"475 250 CURVE",
"475 400 OFFCURVE",
"400 500 OFFCURVE",
"250 500 CURVE"
);
},
{
closed = 1;
nodes = (
"325 400 OFFCURVE",
"375 350 OFFCURVE",
"375 250 CURVE",
"375 150 OFFCURVE",
"325 100 OFFCURVE",
"250 100 CURVE",
"175 100 OFFCURVE",
"125 150 OFFCURVE",
"125 250 CURVE",
"125 350 OFFCURVE",
"175 400 OFFCURVE",
"250 400 CURVE"
);
}
);
width = 500;
}
);
leftKerningGroup = O;
rightKerningGroup = O;
},
{
glyphname = Ograve.sc;
lastChange = "2018-04-09 20:03:12 +0000";
layers = (
{
background = {
components = (
{
name = grave;
}
);
paths = (
{
closed = 1;
nodes = (
"500 300 LINE",
"500 100 LINE",
"600 100 LINE",
"600 300 LINE"
);
},
{
closed = 1;
nodes = (
"200 100 LINE",
"200 0 LINE",
"500 0 LINE",
"500 100 LINE"
);
},
{
closed = 1;
nodes = (
"100 300 LINE",
"100 100 LINE",
"200 100 LINE",
"200 300 LINE"
);
},
{
closed = 1;
nodes = (
"200 400 LINE",
"200 300 LINE",
"500 300 LINE",
"500 400 LINE"
);
}
);
};
layerId = "F98BA250-6091-4D70-9AF4-192CADB0E332";
paths = (
{
closed = 1;
nodes = (
"250 600 LINE",
"250 500 LINE",
"450 500 LINE",
"450 600 LINE"
);
},
{
closed = 1;
nodes = (
"150 700 LINE",
"150 600 LINE",
"250 600 LINE",
"250 700 LINE"
);
},
{
closed = 1;
nodes = (
"125 400 OFFCURVE",
"25 325 OFFCURVE",
"25 200 CURVE",
"25 75 OFFCURVE",
"125 0 OFFCURVE",
"300 0 CURVE",
"475 0 OFFCURVE",
"575 75 OFFCURVE",
"575 200 CURVE",
"575 325 OFFCURVE",
"475 400 OFFCURVE",
"300 400 CURVE"
);
},
{
closed = 1;
nodes = (
"400 300 OFFCURVE",
"475 275 OFFCURVE",
"475 200 CURVE",
"475 125 OFFCURVE",
"400 100 OFFCURVE",
"300 100 CURVE",
"200 100 OFFCURVE",
"125 125 OFFCURVE",
"125 200 CURVE",
"125 275 OFFCURVE",
"200 300 OFFCURVE",
"300 300 CURVE"
);
}
);
width = 600;
}
);
leftKerningGroup = O;
rightKerningGroup = O;
},
{
glyphname = Otilde.sc;
lastChange = "2018-04-09 20:03:12 +0000";
layers = (
{
background = {
components = (
{
name = tilde;
transform = "{1, 0, 0, 1, -50, 0}";
}
);
paths = (
{
closed = 1;
nodes = (
"450 300 LINE",
"450 100 LINE",
"550 100 LINE",
"550 300 LINE"
);
},
{
closed = 1;
nodes = (
"150 100 LINE",
"150 0 LINE",
"450 0 LINE",
"450 100 LINE"
);
},
{
closed = 1;
nodes = (
"50 300 LINE",
"50 100 LINE",
"150 100 LINE",
"150 300 LINE"
);
},
{
closed = 1;
nodes = (
"150 400 LINE",
"150 300 LINE",
"450 300 LINE",
"450 400 LINE"
);
}
);
};
components = (
{
name = tilde;
}
);
layerId = "F98BA250-6091-4D70-9AF4-192CADB0E332";
paths = (
{
closed = 1;
nodes = (
"125 400 OFFCURVE",
"25 325 OFFCURVE",
"25 200 CURVE",
"25 75 OFFCURVE",
"125 0 OFFCURVE",
"300 0 CURVE",
"475 0 OFFCURVE",
"575 75 OFFCURVE",
"575 200 CURVE",
"575 325 OFFCURVE",
"475 400 OFFCURVE",
"300 400 CURVE"
);
},
{
closed = 1;
nodes = (
"400 300 OFFCURVE",
"475 275 OFFCURVE",
"475 200 CURVE",
"475 125 OFFCURVE",
"400 100 OFFCURVE",
"300 100 CURVE",
"200 100 OFFCURVE",
"125 125 OFFCURVE",
"125 200 CURVE",
"125 275 OFFCURVE",
"200 300 OFFCURVE",
"300 300 CURVE"
);
}
);
width = 600;
}
);
leftKerningGroup = O;
rightKerningGroup = O;
},
{
glyphname = OE.sc;
lastChange = "2018-04-09 20:03:12 +0000";
layers = (
{
background = {
paths = (
{
closed = 1;
nodes = (
"300 600 LINE",
"300 100 LINE",
"400 100 LINE",
"400 600 LINE"
);
},
{
closed = 1;
nodes = (
"200 100 LINE",
"200 0 LINE",
"600 0 LINE",
"600 100 LINE"
);
},
{
closed = 1;
nodes = (
"100 600 LINE",
"100 100 LINE",
"200 100 LINE",
"200 600 LINE"
);
},
{
closed = 1;
nodes = (
"400 400 LINE",
"400 300 LINE",
"500 300 LINE",
"500 400 LINE"
);
},
{
closed = 1;
nodes = (
"200 700 LINE",
"200 600 LINE",
"600 600 LINE",
"600 700 LINE"
);
}
);
};
layerId = "F98BA250-6091-4D70-9AF4-192CADB0E332";
paths = (
{
closed = 1;
nodes = (
"250 400 LINE",
"250 100 LINE",
"350 100 LINE",
"350 400 LINE"
);
},
{
closed = 1;
nodes = (
"150 100 LINE",
"150 0 LINE",
"550 0 LINE",
"550 100 LINE"
);
},
{
closed = 1;
nodes = (
"50 400 LINE",
"50 100 LINE",
"150 100 LINE",
"150 400 LINE"
);
},
{
closed = 1;
nodes = (
"350 300 LINE",
"350 200 LINE",
"450 200 LINE",
"450 300 LINE"
);
},
{
closed = 1;
nodes = (
"150 500 LINE",
"150 400 LINE",
"550 400 LINE",
"550 500 LINE"
);
}
);
width = 600;
}
);
},
{
glyphname = P.sc;
lastChange = "2018-04-09 20:03:12 +0000";
layers = (
{
background = {
paths = (
{
closed = 1;
nodes = (
"100 700 LINE",
"100 0 LINE",
"200 0 LINE",
"200 700 LINE"
);
},
{
closed = 1;
nodes = (
"200 400 LINE",
"200 300 LINE",
"500 300 LINE",
"500 400 LINE"
);
},
{
closed = 1;
nodes = (
"200 700 LINE",
"200 600 LINE",
"500 600 LINE",
"500 700 LINE"
);
},
{
closed = 1;
nodes = (
"500 600 LINE",
"500 400 LINE",
"600 400 LINE",
"600 600 LINE"
);
}
);
};
layerId = "F98BA250-6091-4D70-9AF4-192CADB0E332";
paths = (
{
closed = 1;
nodes = (
"50 500 LINE",
"50 0 LINE",
"150 0 LINE",
"150 500 LINE"
);
},
{
closed = 1;
nodes = (
"425 200 OFFCURVE",
"475 250 OFFCURVE",
"475 350 CURVE",
"475 450 OFFCURVE",
"425 500 OFFCURVE",
"325 500 CURVE",
"150 500 LINE",
"150 400 LINE",
"375 400 LINE",
"375 300 LINE",
"150 300 LINE",
"150 200 LINE",
"325 200 LINE"
);
}
);
width = 500;
}
);
},
{
glyphname = Q.sc;
lastChange = "2018-05-04 13:05:41 +0000";
layers = (
{
background = {
paths = (
{
closed = 1;
nodes = (
"75 600 LINE",
"75 100 LINE",
"175 100 LINE",
"175 600 LINE"
);
},
{
closed = 1;
nodes = (
"175 100 LINE",
"175 0 LINE",
"375 0 LINE",
"375 100 LINE"
);
},
{
closed = 1;
nodes = (
"375 200 LINE",
"375 100 LINE",
"475 100 LINE",
"475 200 LINE"
);
},
{
closed = 1;
nodes = (
"475 100 LINE",
"475 0 LINE",
"575 0 LINE",
"575 100 LINE"
);
},
{
closed = 1;
nodes = (
"275 300 LINE",
"275 200 LINE",
"375 200 LINE",
"375 300 LINE"
);
},
{
closed = 1;
nodes = (
"475 600 LINE",
"475 200 LINE",
"575 200 LINE",
"575 600 LINE"
);
},
{
closed = 1;
nodes = (
"175 700 LINE",
"175 600 LINE",
"475 600 LINE",
"475 700 LINE"
);
}
);
};
layerId = "F98BA250-6091-4D70-9AF4-192CADB0E332";
paths = (
{
closed = 1;
nodes = (
"250 200 LINE",
"350 200 LINE",
"350 300 LINE",
"250 300 LINE"
);
},
{
closed = 1;
nodes = (
"550 400 OFFCURVE",
"450 500 OFFCURVE",
"300 500 CURVE",
"150 500 OFFCURVE",
"50 400 OFFCURVE",
"50 250 CURVE",
"50 100 OFFCURVE",
"150 0 OFFCURVE",
"300 0 CURVE SMOOTH",
"350 0 LINE",
"350 100 LINE",
"300 100 LINE",
"225 100 OFFCURVE",
"150 150 OFFCURVE",
"150 250 CURVE",
"150 350 OFFCURVE",
"225 400 OFFCURVE",
"300 400 CURVE",
"375 400 OFFCURVE",
"450 350 OFFCURVE",
"450 250 CURVE",
"450 200 LINE",
"550 200 LINE",
"550 250 LINE SMOOTH"
);
},
{
closed = 1;
nodes = (
"350 100 LINE",
"450 100 LINE",
"450 200 LINE",
"350 200 LINE"
);
},
{
closed = 1;
nodes = (
"450 0 LINE",
"550 0 LINE",
"550 100 LINE",
"450 100 LINE"
);
}
);
width = 600;
}
);
leftKerningGroup = O;
rightKerningGroup = Q;
},
{
glyphname = R.sc;
lastChange = "2018-05-21 18:32:13 +0000";
layers = (
{
background = {
paths = (
{
closed = 1;
nodes = (
"100 700 LINE",
"100 0 LINE",
"200 0 LINE",
"200 700 LINE"
);
},
{
closed = 1;
nodes = (
"300 300 LINE",
"300 200 LINE",
"400 200 LINE",
"400 300 LINE"
);
},
{
closed = 1;
nodes = (
"400 200 LINE",
"400 100 LINE",
"500 100 LINE",
"500 200 LINE"
);
},
{
closed = 1;
nodes = (
"500 100 LINE",
"500 0 LINE",
"600 0 LINE",
"600 100 LINE"
);
},
{
closed = 1;
nodes = (
"200 400 LINE",
"200 300 LINE",
"500 300 LINE",
"500 400 LINE"
);
},
{
closed = 1;
nodes = (
"200 700 LINE",
"200 600 LINE",
"500 600 LINE",
"500 700 LINE"
);
},
{
closed = 1;
nodes = (
"500 600 LINE",
"500 400 LINE",
"600 400 LINE",
"600 600 LINE"
);
}
);
};
layerId = "F98BA250-6091-4D70-9AF4-192CADB0E332";
paths = (
{
closed = 1;
nodes = (
"50 500 LINE",
"50 0 LINE",
"150 0 LINE",
"150 500 LINE"
);
},
{
closed = 1;
nodes = (
"425 200 OFFCURVE",
"475 250 OFFCURVE",
"475 350 CURVE",
"475 450 OFFCURVE",
"425 500 OFFCURVE",
"325 500 CURVE",
"150 500 LINE",
"150 400 LINE",
"375 400 LINE",
"375 300 LINE",
"150 300 LINE",
"150 200 LINE",
"325 200 LINE"
);
},
{
closed = 1;
nodes = (
"250 125 LINE",
"350 0 LINE",
"475 0 LINE",
"275 250 LINE",
"250 250 LINE"
);
}
);
width = 500;
}
);
},
{
glyphname = S.sc;
lastChange = "2018-04-09 20:03:12 +0000";
layers = (
{
layerId = "F98BA250-6091-4D70-9AF4-192CADB0E332";
paths = (
{
closed = 1;
nodes = (
"25 225 OFFCURVE",
"125 200 OFFCURVE",
"250 200 CURVE",
"375 200 LINE",
"375 100 LINE",
"250 100 LINE",
"150 100 OFFCURVE",
"50 125 OFFCURVE",
"50 125 CURVE",
"50 25 LINE",
"50 25 OFFCURVE",
"150 0 OFFCURVE",
"250 0 CURVE",
"375 0 OFFCURVE",
"475 25 OFFCURVE",
"475 150 CURVE SMOOTH",
"475 275 OFFCURVE",
"375 300 OFFCURVE",
"250 300 CURVE",
"125 300 LINE",
"125 400 LINE",
"250 400 LINE",
"350 400 OFFCURVE",
"450 375 OFFCURVE",
"450 375 CURVE",
"450 475 LINE",
"450 475 OFFCURVE",
"350 500 OFFCURVE",
"250 500 CURVE",
"125 500 OFFCURVE",
"25 475 OFFCURVE",
"25 350 CURVE SMOOTH"
);
}
);
width = 500;
}
);
},
{
glyphname = T.sc;
lastChange = "2018-04-09 20:03:12 +0000";
layers = (
{
background = {
paths = (
{
closed = 1;
nodes = (
"300 600 LINE",
"300 0 LINE",
"400 0 LINE",
"400 600 LINE"
);
},
{
closed = 1;
nodes = (
"100 700 LINE",
"100 600 LINE",
"600 600 LINE",
"600 700 LINE"
);
}
);
};
layerId = "F98BA250-6091-4D70-9AF4-192CADB0E332";
paths = (
{
closed = 1;
nodes = (
"250 400 LINE",
"250 0 LINE",
"350 0 LINE",
"350 400 LINE"
);
},
{
closed = 1;
nodes = (
"50 500 LINE",
"50 400 LINE",
"550 400 LINE",
"550 500 LINE"
);
}
);
width = 600;
}
);
leftKerningGroup = T;
rightKerningGroup = T;
},
{
glyphname = U.sc;
lastChange = "2018-05-09 00:27:57 +0000";
layers = (
{
background = {
paths = (
{
closed = 1;
nodes = (
"450 700 LINE",
"450 100 LINE",
"550 100 LINE",
"550 700 LINE"
);
},
{
closed = 1;
nodes = (
"150 100 LINE",
"150 0 LINE",
"450 0 LINE",
"450 100 LINE"
);
},
{
closed = 1;
nodes = (
"50 700 LINE",
"50 100 LINE",
"150 100 LINE",
"150 700 LINE"
);
}
);
};
layerId = "F98BA250-6091-4D70-9AF4-192CADB0E332";
paths = (
{
closed = 1;
nodes = (
"450 500 LINE",
"450 275 LINE",
"450 175 OFFCURVE",
"400 100 OFFCURVE",
"300 100 CURVE",
"200 100 OFFCURVE",
"150 175 OFFCURVE",
"150 275 CURVE",
"150 500 LINE",
"50 500 LINE",
"50 275 LINE",
"50 125 OFFCURVE",
"125 0 OFFCURVE",
"300 0 CURVE",
"475 0 OFFCURVE",
"550 125 OFFCURVE",
"550 275 CURVE",
"550 500 LINE"
);
}
);
width = 600;
}
);
leftKerningGroup = U;
rightKerningGroup = U;
},
{
glyphname = Uacute.sc;
lastChange = "2018-04-09 20:03:12 +0000";
layers = (
{
background = {
components = (
{
name = acute;
}
);
paths = (
{
closed = 1;
nodes = (
"500 400 LINE",
"500 100 LINE",
"600 100 LINE",
"600 400 LINE"
);
},
{
closed = 1;
nodes = (
"200 100 LINE",
"200 0 LINE",
"500 0 LINE",
"500 100 LINE"
);
},
{
closed = 1;
nodes = (
"100 400 LINE",
"100 100 LINE",
"200 100 LINE",
"200 400 LINE"
);
}
);
};
layerId = "F98BA250-6091-4D70-9AF4-192CADB0E332";
paths = (
{
closed = 1;
nodes = (
"450 400 LINE",
"450 275 LINE",
"450 175 OFFCURVE",
"400 100 OFFCURVE",
"300 100 CURVE",
"200 100 OFFCURVE",
"150 175 OFFCURVE",
"150 275 CURVE",
"150 400 LINE",
"50 400 LINE",
"50 275 LINE",
"50 125 OFFCURVE",
"125 0 OFFCURVE",
"300 0 CURVE",
"475 0 OFFCURVE",
"550 125 OFFCURVE",
"550 275 CURVE",
"550 400 LINE"
);
},
{
closed = 1;
nodes = (
"350 700 LINE",
"350 600 LINE",
"450 600 LINE",
"450 700 LINE"
);
},
{
closed = 1;
nodes = (
"150 600 LINE",
"150 500 LINE",
"350 500 LINE",
"350 600 LINE"
);
}
);
width = 600;
}
);
leftKerningGroup = U;
rightKerningGroup = U;
},
{
glyphname = Ucircumflex.sc;
lastChange = "2018-04-09 20:03:12 +0000";
layers = (
{
background = {
components = (
{
name = circumflex;
}
);
paths = (
{
closed = 1;
nodes = (
"500 400 LINE",
"500 100 LINE",
"600 100 LINE",
"600 400 LINE"
);
},
{
closed = 1;
nodes = (
"200 100 LINE",
"200 0 LINE",
"500 0 LINE",
"500 100 LINE"
);
},
{
closed = 1;
nodes = (
"100 400 LINE",
"100 100 LINE",
"200 100 LINE",
"200 400 LINE"
);
}
);
};
components = (
{
name = circumflex;
transform = "{1, 0, 0, 1, 100, 0}";
}
);
layerId = "F98BA250-6091-4D70-9AF4-192CADB0E332";
paths = (
{
closed = 1;
nodes = (
"450 400 LINE",
"450 275 LINE",
"450 175 OFFCURVE",
"400 100 OFFCURVE",
"300 100 CURVE",
"200 100 OFFCURVE",
"150 175 OFFCURVE",
"150 275 CURVE",
"150 400 LINE",
"50 400 LINE",
"50 275 LINE",
"50 125 OFFCURVE",
"125 0 OFFCURVE",
"300 0 CURVE",
"475 0 OFFCURVE",
"550 125 OFFCURVE",
"550 275 CURVE",
"550 400 LINE"
);
}
);
width = 600;
}
);
leftKerningGroup = U;
rightKerningGroup = U;
},
{
glyphname = Udieresis.sc;
lastChange = "2018-04-09 20:03:12 +0000";
layers = (
{
background = {
components = (
{
name = dieresis;
}
);
paths = (
{
closed = 1;
nodes = (
"500 500 LINE",
"500 100 LINE",
"600 100 LINE",
"600 500 LINE"
);
},
{
closed = 1;
nodes = (
"200 100 LINE",
"200 0 LINE",
"500 0 LINE",
"500 100 LINE"
);
},
{
closed = 1;
nodes = (
"100 500 LINE",
"100 100 LINE",
"200 100 LINE",
"200 500 LINE"
);
}
);
};
components = (
{
name = dieresis;
transform = "{1, 0, 0, 1, 100, 0}";
}
);
layerId = "F98BA250-6091-4D70-9AF4-192CADB0E332";
paths = (
{
closed = 1;
nodes = (
"450 500 LINE",
"450 275 LINE",
"450 175 OFFCURVE",
"400 100 OFFCURVE",
"300 100 CURVE",
"200 100 OFFCURVE",
"150 175 OFFCURVE",
"150 275 CURVE",
"150 500 LINE",
"50 500 LINE",
"50 275 LINE",
"50 125 OFFCURVE",
"125 0 OFFCURVE",
"300 0 CURVE",
"475 0 OFFCURVE",
"550 125 OFFCURVE",
"550 275 CURVE",
"550 500 LINE"
);
}
);
width = 600;
}
);
leftKerningGroup = U;
rightKerningGroup = U;
},
{
glyphname = Ugrave.sc;
lastChange = "2018-04-09 20:03:12 +0000";
layers = (
{
background = {
components = (
{
name = grave;
}
);
paths = (
{
closed = 1;
nodes = (
"500 400 LINE",
"500 100 LINE",
"600 100 LINE",
"600 400 LINE"
);
},
{
closed = 1;
nodes = (
"200 100 LINE",
"200 0 LINE",
"500 0 LINE",
"500 100 LINE"
);
},
{
closed = 1;
nodes = (
"100 400 LINE",
"100 100 LINE",
"200 100 LINE",
"200 400 LINE"
);
}
);
};
layerId = "F98BA250-6091-4D70-9AF4-192CADB0E332";
paths = (
{
closed = 1;
nodes = (
"450 400 LINE",
"450 275 LINE",
"450 175 OFFCURVE",
"400 100 OFFCURVE",
"300 100 CURVE",
"200 100 OFFCURVE",
"150 175 OFFCURVE",
"150 275 CURVE",
"150 400 LINE",
"50 400 LINE",
"50 275 LINE",
"50 125 OFFCURVE",
"125 0 OFFCURVE",
"300 0 CURVE",
"475 0 OFFCURVE",
"550 125 OFFCURVE",
"550 275 CURVE",
"550 400 LINE"
);
},
{
closed = 1;
nodes = (
"250 600 LINE",
"250 500 LINE",
"450 500 LINE",
"450 600 LINE"
);
},
{
closed = 1;
nodes = (
"150 700 LINE",
"150 600 LINE",
"250 600 LINE",
"250 700 LINE"
);
}
);
width = 600;
}
);
leftKerningGroup = U;
rightKerningGroup = U;
},
{
glyphname = V.sc;
lastChange = "2018-04-09 20:03:12 +0000";
layers = (
{
background = {
paths = (
{
closed = 1;
nodes = (
"400 700 LINE",
"400 400 LINE",
"500 400 LINE",
"500 700 LINE"
);
},
{
closed = 1;
nodes = (
"200 200 LINE",
"200 0 LINE",
"300 0 LINE",
"300 200 LINE"
);
},
{
closed = 1;
nodes = (
"100 400 LINE",
"100 200 LINE",
"200 200 LINE",
"200 400 LINE"
);
},
{
closed = 1;
nodes = (
"0 700 LINE",
"0 400 LINE",
"100 400 LINE",
"100 700 LINE"
);
},
{
closed = 1;
nodes = (
"300 400 LINE",
"300 200 LINE",
"400 200 LINE",
"400 400 LINE"
);
}
);
};
layerId = "F98BA250-6091-4D70-9AF4-192CADB0E332";
paths = (
{
closed = 1;
nodes = (
"475 500 LINE",
"375 500 LINE",
"225 0 LINE",
"325 0 LINE"
);
},
{
closed = 1;
nodes = (
"125 500 LINE",
"25 500 LINE",
"175 0 LINE",
"275 0 LINE"
);
}
);
width = 500;
}
);
leftKerningGroup = V;
rightKerningGroup = V;
},
{
glyphname = W.sc;
lastChange = "2018-04-09 20:03:12 +0000";
layers = (
{
background = {
paths = (
{
closed = 1;
nodes = (
"500 700 LINE",
"500 100 LINE",
"600 100 LINE",
"600 700 LINE"
);
},
{
closed = 1;
nodes = (
"200 100 LINE",
"200 0 LINE",
"300 0 LINE",
"300 100 LINE"
);
},
{
closed = 1;
nodes = (
"400 100 LINE",
"400 0 LINE",
"500 0 LINE",
"500 100 LINE"
);
},
{
closed = 1;
nodes = (
"100 700 LINE",
"100 100 LINE",
"200 100 LINE",
"200 700 LINE"
);
},
{
closed = 1;
nodes = (
"300 400 LINE",
"300 100 LINE",
"400 100 LINE",
"400 400 LINE"
);
}
);
};
layerId = "F98BA250-6091-4D70-9AF4-192CADB0E332";
paths = (
{
closed = 1;
nodes = (
"425 500 LINE",
"375 0 LINE",
"475 0 LINE",
"525 500 LINE"
);
},
{
closed = 1;
nodes = (
"25 500 LINE",
"75 0 LINE",
"175 0 LINE",
"125 500 LINE"
);
},
{
closed = 1;
nodes = (
"450 0 LINE",
"325 300 LINE",
"225 300 LINE",
"100 0 LINE",
"175 0 LINE",
"275 200 LINE",
"375 0 LINE"
);
}
);
width = 550;
}
);
},
{
glyphname = X.sc;
lastChange = "2018-04-09 20:03:12 +0000";
layers = (
{
background = {
paths = (
{
closed = 1;
nodes = (
"400 700 LINE",
"400 500 LINE",
"500 500 LINE",
"500 700 LINE"
);
},
{
closed = 1;
nodes = (
"0 200 LINE",
"0 0 LINE",
"100 0 LINE",
"100 200 LINE"
);
},
{
closed = 1;
nodes = (
"100 300 LINE",
"100 200 LINE",
"200 200 LINE",
"200 300 LINE"
);
},
{
closed = 1;
nodes = (
"400 200 LINE",
"400 0 LINE",
"500 0 LINE",
"500 200 LINE"
);
},
{
closed = 1;
nodes = (
"100 500 LINE",
"100 400 LINE",
"200 400 LINE",
"200 500 LINE"
);
},
{
closed = 1;
nodes = (
"200 400 LINE",
"200 300 LINE",
"300 300 LINE",
"300 400 LINE"
);
},
{
closed = 1;
nodes = (
"300 300 LINE",
"300 200 LINE",
"400 200 LINE",
"400 300 LINE"
);
},
{
closed = 1;
nodes = (
"0 700 LINE",
"0 500 LINE",
"100 500 LINE",
"100 700 LINE"
);
},
{
closed = 1;
nodes = (
"300 500 LINE",
"300 400 LINE",
"400 400 LINE",
"400 500 LINE"
);
}
);
};
layerId = "F98BA250-6091-4D70-9AF4-192CADB0E332";
paths = (
{
closed = 1;
nodes = (
"375 0 LINE",
"500 0 LINE",
"125 500 LINE",
"0 500 LINE"
);
},
{
closed = 1;
nodes = (
"0 0 LINE",
"125 0 LINE",
"500 500 LINE",
"375 500 LINE"
);
}
);
width = 500;
}
);
},
{
glyphname = Y.sc;
lastChange = "2018-05-09 00:26:43 +0000";
layers = (
{
background = {
paths = (
{
closed = 1;
nodes = (
"450 700 LINE",
"450 500 LINE",
"550 500 LINE",
"550 700 LINE"
);
},
{
closed = 1;
nodes = (
"250 400 LINE",
"250 0 LINE",
"350 0 LINE",
"350 400 LINE"
);
},
{
closed = 1;
nodes = (
"150 500 LINE",
"150 400 LINE",
"250 400 LINE",
"250 500 LINE"
);
},
{
closed = 1;
nodes = (
"50 700 LINE",
"50 500 LINE",
"150 500 LINE",
"150 700 LINE"
);
},
{
closed = 1;
nodes = (
"350 500 LINE",
"350 400 LINE",
"450 400 LINE",
"450 500 LINE"
);
}
);
};
layerId = "F98BA250-6091-4D70-9AF4-192CADB0E332";
paths = (
{
closed = 1;
nodes = (
"450 500 LINE",
"275 275 LINE",
"325 275 LINE",
"150 500 LINE",
"25 500 LINE",
"250 225 LINE",
"250 0 LINE",
"350 0 LINE",
"350 225 LINE",
"575 500 LINE"
);
}
);
width = 600;
}
);
leftKerningGroup = Y;
rightKerningGroup = Y;
},
{
glyphname = Yacute.sc;
lastChange = "2018-04-09 20:03:12 +0000";
layers = (
{
background = {
components = (
{
name = acute;
transform = "{1, 0, 0, 1, -175, 0}";
}
);
paths = (
{
closed = 1;
nodes = (
"325 500 LINE",
"325 300 LINE",
"425 300 LINE",
"425 500 LINE"
);
},
{
closed = 1;
nodes = (
"125 200 LINE",
"125 0 LINE",
"225 0 LINE",
"225 200 LINE"
);
},
{
closed = 1;
nodes = (
"25 300 LINE",
"25 200 LINE",
"125 200 LINE",
"125 300 LINE"
);
},
{
closed = 1;
nodes = (
"-75 500 LINE",
"-75 300 LINE",
"25 300 LINE",
"25 500 LINE"
);
},
{
closed = 1;
nodes = (
"225 300 LINE",
"225 200 LINE",
"325 200 LINE",
"325 300 LINE"
);
}
);
};
layerId = "F98BA250-6091-4D70-9AF4-192CADB0E332";
paths = (
{
closed = 1;
nodes = (
"375 400 LINE",
"225 200 LINE",
"275 200 LINE",
"125 400 LINE",
"0 400 LINE",
"200 150 LINE",
"200 0 LINE",
"300 0 LINE",
"300 150 LINE",
"500 400 LINE"
);
},
{
closed = 1;
nodes = (
"300 700 LINE",
"300 600 LINE",
"400 600 LINE",
"400 700 LINE"
);
},
{
closed = 1;
nodes = (
"100 600 LINE",
"100 500 LINE",
"300 500 LINE",
"300 600 LINE"
);
}
);
width = 500;
}
);
leftKerningGroup = Y;
rightKerningGroup = Y;
},
{
glyphname = Ycircumflex.sc;
lastChange = "2018-04-09 20:03:12 +0000";
layers = (
{
background = {
components = (
{
name = circumflex;
transform = "{1, 0, 0, 1, -175, 0}";
}
);
paths = (
{
closed = 1;
nodes = (
"325 400 LINE",
"325 300 LINE",
"425 300 LINE",
"425 400 LINE"
);
},
{
closed = 1;
nodes = (
"125 200 LINE",
"125 0 LINE",
"225 0 LINE",
"225 200 LINE"
);
},
{
closed = 1;
nodes = (
"25 300 LINE",
"25 200 LINE",
"125 200 LINE",
"125 300 LINE"
);
},
{
closed = 1;
nodes = (
"-75 400 LINE",
"-75 300 LINE",
"25 300 LINE",
"25 400 LINE"
);
},
{
closed = 1;
nodes = (
"225 300 LINE",
"225 200 LINE",
"325 200 LINE",
"325 300 LINE"
);
}
);
};
components = (
{
name = circumflex;
transform = "{1, 0, 0, 1, 50, 0}";
}
);
layerId = "F98BA250-6091-4D70-9AF4-192CADB0E332";
paths = (
{
closed = 1;
nodes = (
"375 400 LINE",
"225 200 LINE",
"275 200 LINE",
"125 400 LINE",
"0 400 LINE",
"200 150 LINE",
"200 0 LINE",
"300 0 LINE",
"300 150 LINE",
"500 400 LINE"
);
}
);
width = 500;
}
);
leftKerningGroup = Y;
rightKerningGroup = Y;
},
{
glyphname = Ydieresis.sc;
lastChange = "2018-05-09 00:26:35 +0000";
layers = (
{
background = {
components = (
{
name = dieresis;
transform = "{1, 0, 0, 1, -50, 0}";
}
);
paths = (
{
closed = 1;
nodes = (
"450 500 LINE",
"450 300 LINE",
"550 300 LINE",
"550 500 LINE"
);
},
{
closed = 1;
nodes = (
"250 200 LINE",
"250 0 LINE",
"350 0 LINE",
"350 200 LINE"
);
},
{
closed = 1;
nodes = (
"150 300 LINE",
"150 200 LINE",
"250 200 LINE",
"250 300 LINE"
);
},
{
closed = 1;
nodes = (
"50 500 LINE",
"50 300 LINE",
"150 300 LINE",
"150 500 LINE"
);
},
{
closed = 1;
nodes = (
"350 300 LINE",
"350 200 LINE",
"450 200 LINE",
"450 300 LINE"
);
}
);
};
components = (
{
name = dieresis;
transform = "{1, 0, 0, 1, 100, 0}";
}
);
layerId = "F98BA250-6091-4D70-9AF4-192CADB0E332";
paths = (
{
closed = 1;
nodes = (
"450 500 LINE",
"275 275 LINE",
"325 275 LINE",
"150 500 LINE",
"25 500 LINE",
"250 225 LINE",
"250 0 LINE",
"350 0 LINE",
"350 225 LINE",
"575 500 LINE"
);
}
);
width = 600;
}
);
leftKerningGroup = Y;
rightKerningGroup = Y;
},
{
glyphname = Ygrave.sc;
lastChange = "2018-04-09 20:03:12 +0000";
layers = (
{
background = {
components = (
{
name = grave;
transform = "{1, 0, 0, 1, -175, 0}";
}
);
paths = (
{
closed = 1;
nodes = (
"325 500 LINE",
"325 300 LINE",
"425 300 LINE",
"425 500 LINE"
);
},
{
closed = 1;
nodes = (
"125 200 LINE",
"125 0 LINE",
"225 0 LINE",
"225 200 LINE"
);
},
{
closed = 1;
nodes = (
"25 300 LINE",
"25 200 LINE",
"125 200 LINE",
"125 300 LINE"
);
},
{
closed = 1;
nodes = (
"-75 500 LINE",
"-75 300 LINE",
"25 300 LINE",
"25 500 LINE"
);
},
{
closed = 1;
nodes = (
"225 300 LINE",
"225 200 LINE",
"325 200 LINE",
"325 300 LINE"
);
}
);
};
layerId = "F98BA250-6091-4D70-9AF4-192CADB0E332";
paths = (
{
closed = 1;
nodes = (
"200 600 LINE",
"200 500 LINE",
"400 500 LINE",
"400 600 LINE"
);
},
{
closed = 1;
nodes = (
"100 700 LINE",
"100 600 LINE",
"200 600 LINE",
"200 700 LINE"
);
},
{
closed = 1;
nodes = (
"375 400 LINE",
"225 200 LINE",
"275 200 LINE",
"125 400 LINE",
"0 400 LINE",
"200 150 LINE",
"200 0 LINE",
"300 0 LINE",
"300 150 LINE",
"500 400 LINE"
);
}
);
width = 500;
}
);
leftKerningGroup = Y;
rightKerningGroup = Y;
},
{
glyphname = Z.sc;
lastChange = "2018-04-09 20:03:12 +0000";
layers = (
{
background = {
paths = (
{
closed = 1;
nodes = (
"50 700 LINE",
"50 600 LINE",
"550 600 LINE",
"550 700 LINE"
);
},
{
closed = 1;
nodes = (
"50 200 LINE",
"50 100 LINE",
"150 100 LINE",
"150 200 LINE"
);
},
{
closed = 1;
nodes = (
"50 100 LINE",
"50 0 LINE",
"550 0 LINE",
"550 100 LINE"
);
},
{
closed = 1;
nodes = (
"150 300 LINE",
"150 200 LINE",
"250 200 LINE",
"250 300 LINE"
);
},
{
closed = 1;
nodes = (
"250 400 LINE",
"250 300 LINE",
"350 300 LINE",
"350 400 LINE"
);
},
{
closed = 1;
nodes = (
"350 500 LINE",
"350 400 LINE",
"450 400 LINE",
"450 500 LINE"
);
},
{
closed = 1;
nodes = (
"450 600 LINE",
"450 500 LINE",
"550 500 LINE",
"550 600 LINE"
);
}
);
};
layerId = "F98BA250-6091-4D70-9AF4-192CADB0E332";
paths = (
{
closed = 1;
nodes = (
"325 400 LINE",
"50 100 LINE",
"175 100 LINE",
"450 400 LINE"
);
},
{
closed = 1;
nodes = (
"50 100 LINE",
"50 0 LINE",
"450 0 LINE",
"450 100 LINE"
);
},
{
closed = 1;
nodes = (
"50 500 LINE",
"50 400 LINE",
"450 400 LINE",
"450 500 LINE"
);
}
);
width = 500;
}
);
},
{
glyphname = ordfeminine;
lastChange = "2018-04-09 20:03:12 +0000";
layers = (
{
background = {
paths = (
{
closed = 1;
nodes = (
"400 400 LINE",
"500 400 LINE",
"500 700 LINE",
"400 700 LINE"
);
},
{
closed = 1;
nodes = (
"300 600 LINE",
"400 600 LINE",
"400 700 LINE",
"300 700 LINE"
);
},
{
closed = 1;
nodes = (
"200 500 LINE",
"300 500 LINE",
"300 600 LINE",
"200 600 LINE"
);
},
{
closed = 1;
nodes = (
"300 400 LINE",
"400 400 LINE",
"400 500 LINE",
"300 500 LINE"
);
}
);
};
layerId = "F98BA250-6091-4D70-9AF4-192CADB0E332";
paths = (
{
closed = 1;
nodes = (
"250 700 LINE",
"250 400 LINE",
"350 400 LINE",
"350 700 LINE"
);
},
{
closed = 1;
nodes = (
"50 600 LINE",
"50 500 LINE",
"150 500 LINE",
"150 600 LINE"
);
},
{
closed = 1;
nodes = (
"150 500 LINE",
"150 400 LINE",
"250 400 LINE",
"250 500 LINE"
);
},
{
closed = 1;
nodes = (
"150 700 LINE",
"150 600 LINE",
"250 600 LINE",
"250 700 LINE"
);
}
);
width = 400;
}
);
unicode = 00AA;
},
